<svg width="392" height="384" viewBox="0 0 392 384" fill="none" xmlns="http://www.w3.org/2000/svg">
<rect id="background" x="-714" y="-112" width="3936" height="1857" rx="107" fill="#006229"/>
<g id="Mask Group">
<mask id="mask0_0_1" style="mask-type:alpha" maskUnits="userSpaceOnUse" x="6" y="1" width="2449" height="1571">
<path id="mask" fill-rule="evenodd" clip-rule="evenodd" d="M218.5 2.04406C275.595 8.56206 325.037 38.983 357.537 87.593C394.812 143.344 399.334 218.669 369.025 278.951C336.111 344.413 269.83 386 198.409 386C168.622 386 142.435 380.017 115.301 367.01C32.2272 327.19 -10.5288 233.833 12.9372 143.5C30.7602 74.8901 86.3792 21.1 155.629 5.50097C174.136 1.33197 199.869 -0.0829436 218.5 2.04406ZM368.231 615.25C368.49 800.654 368.577 808.723 370.362 814C373.577 823.501 377.058 829.246 383.379 835.481C393.323 845.289 404.556 850 418 850C440.572 850 460.764 834.36 466.469 812.458C467.818 807.279 468 783.78 468 614.79V423H639.497H810.995L811.247 609.152L811.5 795.305L847.4 697.902C892.675 575.066 894.114 571.431 905.946 550C946.673 476.232 1006.66 433.698 1084.3 423.543C1099.89 421.505 1132.12 421.504 1147.66 423.542C1206.55 431.262 1259.9 460.696 1297 505.929L1304.5 515.075L1304.76 468.537L1305.02 422H1475.99H1646.96L1647.23 615.75L1647.5 809.5L1649.83 816C1658.86 841.22 1684.24 855.037 1709.46 848.467C1726.48 844.036 1739.83 830.248 1744.51 812.297C1745.8 807.33 1746 781.362 1746 614.29V422H1916.98H2087.96L2088.23 615.25C2088.49 800.654 2088.58 808.723 2090.36 814C2093.58 823.501 2097.06 829.246 2103.38 835.481C2113.32 845.289 2124.56 850 2138 850C2162.29 850 2183.59 831.845 2187.35 807.92C2187.95 804.114 2188.8 801 2189.23 801C2189.66 801 2200.65 805.587 2213.65 811.193L2237.29 821.385L2236.64 836.516C2231.92 946.031 2182.25 1025.57 2099 1056.9L2088.5 1060.85L2088.26 1064.68C2086.75 1088.26 2082.68 1113.91 2076.97 1135.86C2051.87 1232.24 1985.34 1301.29 1885.54 1334.52C1848.39 1346.89 1810.07 1353.95 1763 1357.09C1740.84 1358.57 1681.15 1357.71 1656.5 1355.55C1606.23 1351.15 1558.04 1342.86 1513.37 1330.91C1480.55 1322.13 1432.77 1305.59 1432.21 1302.81C1431.9 1301.27 1458.81 1138.86 1459.48 1138.18C1459.71 1137.96 1464.08 1139.57 1469.19 1141.76C1499.67 1154.82 1539.84 1163.4 1582.26 1165.93C1615.61 1167.92 1644.12 1163.01 1667.5 1151.25C1711.98 1128.89 1739.3 1084.14 1744.97 1024.36C1745.53 1018.39 1746 1004.12 1746 992.66L1746 971.82L1741.81 977.16C1734.69 986.217 1715.01 1005.81 1704.5 1014.3C1649.26 1058.91 1576.39 1077.41 1506.7 1064.51C1409 1046.44 1332.17 971.848 1310.55 874.105C1305.79 852.597 1305.7 850.756 1305.08 762.5C1304.51 679.486 1304.47 678.438 1302.35 673.255C1298.77 664.528 1295.39 659.578 1288.96 653.624C1272.28 638.181 1249.9 635.662 1228.5 646.82C1215.69 653.498 1200.65 670.73 1191.23 689.51C1189.57 692.816 1170.4 739.478 1148.64 793.204C1126.87 846.93 1106.8 895.949 1104.03 902.135C1086.2 941.949 1060.33 978.068 1032.52 1001.94C989.027 1039.27 938.867 1057.77 869.5 1062.05C857.757 1062.78 823.515 1063.02 771 1062.74C684.247 1062.28 681.882 1062.16 657 1056.54C604.521 1044.7 557.293 1016.1 523.18 975.5C514.807 965.533 499.838 943.274 496.079 935.2C494.748 932.34 493.398 930.005 493.079 930.011C492.761 930.017 490.7 933.469 488.5 937.683C486.3 941.897 481.097 950.555 476.938 956.922C443.221 1008.54 392.157 1045.44 333.5 1060.58C254.977 1080.84 172.998 1061.67 111.323 1008.61C71.5181 974.368 43.1422 926.526 31.5462 874.105C26.3272 850.512 26.6022 863.01 26.2672 634.25L25.9552 422H196.958H367.961L368.231 615.25ZM2332.31 1044.43C2370.52 1055.7 2396 1089.73 2396 1129.5C2396 1180.89 2353.78 1220.74 2302.57 1217.68C2264.73 1215.42 2233 1189.07 2222.88 1151.5C2221.15 1145.1 2220.72 1140.7 2220.72 1129.5C2220.72 1118.3 2221.15 1113.9 2222.88 1107.5C2231.71 1074.71 2257.34 1050.04 2290 1042.87C2302.19 1040.19 2320.21 1040.86 2332.31 1044.43ZM2293.07 1071.53C2267.3 1078.74 2248.85 1102.42 2248.67 1128.5C2248.55 1146.21 2253.83 1159.05 2266.39 1171.59C2278.84 1184.01 2290.95 1189 2308.66 1189C2342.75 1189 2369.83 1160.08 2367.66 1126C2366.14 1102.12 2350.15 1080.89 2327.72 1072.97C2319.49 1070.06 2301.07 1069.3 2293.07 1071.53ZM2320 1088.06C2323.57 1088.63 2329.54 1090.5 2333.25 1092.2L2340 1095.3V1104.65V1114H2328.5H2317V1111.07C2317 1106.49 2312.75 1103.68 2306.67 1104.26C2298.49 1105.04 2298.5 1105 2298.5 1129.5C2298.5 1153.38 2298.55 1153.57 2305.26 1154.66C2312.55 1155.84 2317 1153.1 2317 1147.43V1144H2328.5H2340V1153.98V1163.96L2336.25 1165.84C2327.45 1170.26 2321.84 1171.44 2309.5 1171.47C2300.47 1171.49 2296.22 1171.06 2292.35 1169.7C2275.44 1163.8 2268.8 1152.46 2268.8 1129.5C2268.81 1109.82 2273.53 1099.06 2284.98 1092.63C2294.2 1087.45 2306.33 1085.86 2320 1088.06ZM461 1471V1569H440.5H420V1471V1373H440.5H461V1471ZM2006 1403.5C2006 1420.28 2006.17 1434 2006.38 1434C2006.58 1434 2009.31 1432.87 2012.43 1431.49C2026.3 1425.36 2044.14 1422.65 2055.5 1424.97C2074.6 1428.86 2089.06 1444.2 2094.46 1466.31C2098.19 1481.58 2098.19 1506.37 2094.47 1521.69C2087.66 1549.68 2067.4 1566.93 2036.5 1571.06C2019.85 1573.29 1995.07 1571.17 1973 1565.63L1964.5 1563.5L1964.24 1468.25L1963.99 1373H1984.99H2006V1403.5ZM135 1383.3L145.5 1384.5L145.773 1403.38L146.045 1422.26L143.138 1421.68C122.391 1417.53 89.3602 1416.31 79.5702 1419.33C66.0182 1423.51 60.8352 1437.05 69.1562 1446.53C72.9512 1450.85 79.4682 1452.91 100.987 1456.58C125.117 1460.7 136.047 1465.29 143.418 1474.38C151.302 1484.11 154.322 1494.35 154.357 1511.5C154.397 1530.96 150.209 1542.75 139.395 1553.61C125.525 1567.55 105.779 1572.84 72.0001 1571.67C56.8561 1571.14 31.6731 1568.3 25.8751 1566.46C24.1311 1565.91 24.0001 1564.58 24.0001 1547.43C24.0001 1537.29 24.3702 1529 24.8222 1529C25.2742 1529 32.1362 1530.1 40.0722 1531.44C72.9662 1536.99 88.4771 1536.93 100 1531.22C106.386 1528.06 109.602 1523.84 110.578 1517.33C111.999 1507.85 106.895 1500.53 96.7642 1497.52C93.8692 1496.66 84.9751 1494.85 77.0001 1493.5C52.8301 1489.41 43.8572 1485.77 35.1282 1476.54C25.9972 1466.89 22.0352 1455.38 22.0352 1438.5C22.0352 1418.06 28.5762 1403.5 41.9772 1394.1C51.0082 1387.76 61.9341 1383.92 77.5001 1381.6C82.7031 1380.83 124.039 1382.05 135 1383.3ZM1154.66 1382.56C1161.17 1383.42 1169.88 1384.9 1174 1385.85L1181.5 1387.57L1181.77 1405.92L1182.05 1424.26L1179.27 1423.68C1177.75 1423.36 1172.22 1422.19 1167 1421.09C1135.51 1414.43 1113.39 1417.65 1108.38 1429.64C1104.07 1439.96 1110.23 1453.02 1120.78 1455.96C1123.09 1456.6 1142.02 1456.99 1170.75 1456.99L1217 1457V1473.5V1490H1204.93C1193.91 1490 1192.91 1490.15 1193.39 1491.75C1193.67 1492.71 1198.88 1510.21 1204.95 1530.63C1211.03 1551.05 1216 1568.05 1216 1568.4C1216 1568.75 1207.13 1568.92 1196.29 1568.77L1176.58 1568.5L1174.34 1561.5C1173.11 1557.65 1172.08 1554.37 1172.05 1554.2C1172.02 1554.04 1169.94 1555.32 1167.43 1557.05C1154.72 1565.79 1138.48 1570.86 1120.47 1571.71C1088.9 1573.19 1064.16 1559.37 1057.01 1536.25C1049.61 1512.32 1058.16 1489.28 1079.27 1476.25L1085.11 1472.65L1079.92 1467.58C1066.09 1454.04 1060.67 1437.59 1064.44 1420.62C1067.52 1406.76 1076.48 1396.34 1091.75 1388.87C1107.23 1381.29 1128.67 1379.14 1154.66 1382.56ZM1502.5 1387.23C1521.91 1393.78 1533.25 1406.6 1536.16 1425.29C1538.92 1443.03 1530.78 1461.56 1516.05 1471.09L1513.6 1472.68L1520.4 1476.03C1529.28 1480.4 1535.36 1486.42 1539.31 1494.78C1542.43 1501.36 1542.5 1501.8 1542.46 1515.5C1542.42 1531.6 1541.07 1536.39 1533.86 1546C1525.62 1557 1514.11 1563.9 1498.7 1567.08C1490.47 1568.77 1484.77 1568.98 1444.75 1568.99L1400 1569V1476.45V1383.89L1447.25 1384.21L1494.5 1384.54L1502.5 1387.23ZM1443 1438.89V1458L1459.75 1457.99C1477.51 1457.99 1481.73 1457.33 1487.06 1453.74C1492.11 1450.34 1494.35 1445.73 1494.43 1438.6C1494.52 1430.69 1491.83 1426.11 1485.23 1422.91C1480.93 1420.82 1478.78 1420.57 1461.75 1420.2L1443 1419.78V1438.89ZM305.5 1426.47C323.236 1431.18 334.764 1441.6 340.203 1457.83C342.385 1464.34 342.448 1465.77 342.777 1516.77L343.114 1569.05L325.317 1568.77L307.52 1568.5L306.139 1562C305.38 1558.43 304.641 1555.37 304.499 1555.2C304.356 1555.04 302.234 1556.26 299.782 1557.91C272.057 1576.63 238.647 1574.75 224.671 1553.69C218.946 1545.07 217.5 1539.28 217.5 1525C217.5 1513.51 217.717 1512.04 220.203 1506.73C223.586 1499.51 231.801 1491.21 239 1487.72C249.533 1482.63 254.838 1481.77 278.857 1481.26L301.213 1480.78L300.817 1473.77C300.457 1467.4 300.135 1466.51 297.25 1463.93C292.296 1459.51 287.241 1458.48 271 1458.63C257.909 1458.75 246.736 1460.14 230.75 1463.63L228 1464.23V1447.2V1430.17L232.811 1429.13C237.496 1428.13 257.965 1425.42 267 1424.62C276.398 1423.77 299.556 1424.89 305.5 1426.47ZM627.144 1426.86C646.761 1432 660.628 1443.16 668.965 1460.5C673.835 1470.63 675.966 1479.4 676.691 1492.3C679.031 1533.96 659.297 1562.7 623.214 1570.19C610.635 1572.8 591.436 1572.27 580.016 1569.01C561.518 1563.71 548.44 1553.04 540.636 1536.86C534.624 1524.4 532.717 1515 532.754 1498C532.796 1478.41 536.045 1465.43 543.976 1453.16C553.552 1438.34 567.925 1429.28 587.834 1425.5C598.148 1423.54 616.962 1424.19 627.144 1426.86ZM846.364 1425.49C850.139 1426.29 855.157 1428.07 857.515 1429.46C863.408 1432.91 869.487 1440.1 872.217 1446.85C874.491 1452.48 874.501 1452.74 874.795 1510.75L875.09 1569H854.545H834V1520.15C834 1486.98 833.644 1470.28 832.892 1468.12C829.936 1459.64 815.551 1459.98 795.656 1469L789 1472.02V1520.51V1569H768.5H748V1498V1427H767H786V1434C786 1437.85 786.214 1441 786.475 1441C786.737 1441 791.124 1438.78 796.225 1436.07C817.316 1424.84 830.345 1422.1 846.364 1425.49ZM1694.5 1426.55C1704.49 1429.27 1711.13 1432.98 1717.56 1439.43C1720.89 1442.77 1724.65 1447.64 1725.9 1450.26C1731.25 1461.41 1731.29 1461.8 1731.74 1517.25L1732.16 1569H1714.21H1696.27L1694.99 1562.75C1694.28 1559.31 1693.52 1556.16 1693.29 1555.74C1693.06 1555.33 1690.99 1556.28 1688.69 1557.86C1667.51 1572.39 1642.19 1575.06 1625 1564.58C1614.27 1558.04 1608.02 1547.47 1605.91 1532.31C1603.25 1513.16 1611.73 1495.69 1627.44 1487.95C1638.47 1482.53 1642.6 1481.83 1667.25 1481.28L1690 1480.76V1475.33C1690 1465.83 1686.75 1462.18 1675.76 1459.35C1665.88 1456.8 1642.96 1458.56 1619.75 1463.63L1617 1464.23V1447.2V1430.17L1622 1429.09C1627.27 1427.96 1647.03 1425.33 1655.5 1424.64C1665.76 1423.79 1688.47 1424.9 1694.5 1426.55ZM2252.5 1426.49C2265.72 1429.95 2275.5 1436.61 2282.43 1446.86C2290.58 1458.92 2294 1473.94 2294 1497.72V1510H2249.48H2204.96L2205.57 1512.75C2207.8 1522.82 2212.02 1528.47 2219.82 1531.83C2225.5 1534.27 2235.18 1535.98 2243.37 1535.99C2252.89 1536.01 2274.86 1532.33 2288.77 1528.4L2291.05 1527.75L2290.77 1545.63L2290.5 1563.5L2281.5 1565.76C2262.7 1570.48 2255.26 1571.4 2235.5 1571.43C2220.57 1571.45 2215 1571.08 2209.53 1569.69C2193.74 1565.69 2179.84 1556.08 2172.59 1544.15C2165.04 1531.73 2161.26 1512.81 2162.28 1492.61C2163.42 1469.89 2169.27 1454.52 2181.39 1442.39C2191.06 1432.72 2202.03 1427.4 2217.48 1424.92C2224.81 1423.74 2245.55 1424.67 2252.5 1426.49ZM1898 1447.37V1468.74L1888.75 1470.87C1883.66 1472.04 1872.86 1475.1 1864.75 1477.67L1850 1482.35V1525.67V1569H1829.5H1809V1498V1427H1828.5H1848V1437.93V1448.86L1857.25 1442.56C1871.59 1432.79 1880.93 1428.53 1891.4 1427C1894.21 1426.59 1896.84 1426.19 1897.25 1426.13C1897.66 1426.06 1898 1435.62 1898 1447.37ZM2455 1447.36V1468.72L2443.75 1471.41C2437.56 1472.89 2426.87 1475.99 2420 1478.3L2407.5 1482.5L2407.24 1525.75L2406.98 1569H2386.49H2366V1498V1427H2385.5H2405V1437.98V1448.97L2415.75 1441.84C2428.18 1433.6 2436.25 1429.69 2444 1428.13C2451.32 1426.65 2453.35 1426.25 2454.25 1426.12C2454.66 1426.05 2455 1435.61 2455 1447.36ZM2223.09 1457.08C2214.09 1458.86 2206.49 1466.94 2205.27 1476L2204.74 1480H2228.37C2255.19 1480 2253.3 1480.75 2250.47 1471.23C2249.64 1468.41 2247.84 1464.77 2246.48 1463.16C2242.17 1458.04 2231.81 1455.34 2223.09 1457.08ZM592.885 1461.38C580.676 1465.74 575 1477.26 575 1497.66C575 1524.73 583.898 1536.42 604.5 1536.42C614.374 1536.42 619.108 1534.86 624.553 1529.85C629.946 1524.87 632.624 1518.58 633.977 1507.68C635.906 1492.16 632.957 1475.98 626.857 1468.62C621.87 1462.6 615.259 1460.01 605 1460.05C600.325 1460.07 594.873 1460.67 592.885 1461.38ZM2021.5 1461.9C2017.65 1462.94 2012.59 1464.57 2010.25 1465.51L2006 1467.22V1502.03V1536.84L2012.65 1537.55C2021.01 1538.45 2031.16 1537.6 2037 1535.52C2043.09 1533.35 2049.51 1526.82 2052.24 1520.03C2054.25 1515.05 2054.47 1512.75 2054.48 1496.98L2054.5 1479.46L2051.19 1472.74C2048.56 1467.4 2046.98 1465.49 2043.49 1463.44C2037.57 1459.97 2030.42 1459.47 2021.5 1461.9ZM1109.5 1491.87C1092.41 1499.65 1091.51 1524.11 1107.98 1533.37C1112.8 1536.08 1114.58 1536.49 1122.98 1536.83C1131.25 1537.16 1133.55 1536.86 1140.33 1534.59C1148.2 1531.95 1157.1 1526.92 1160.14 1523.4C1161.67 1521.62 1161.48 1520.48 1157.2 1505.75L1152.64 1490L1133.07 1490.02C1116.3 1490.04 1112.93 1490.31 1109.5 1491.87ZM1443 1513.49V1533.2L1464.25 1532.8C1487.98 1532.36 1490.3 1531.84 1495.7 1525.69C1499.2 1521.71 1500.62 1515.67 1499.7 1508.77C1498.96 1503.27 1496.38 1500 1490.45 1497.01C1485.73 1494.65 1484.5 1494.51 1464.25 1494.15L1443 1493.78V1513.49ZM268.534 1509.47C259.615 1511.86 256.055 1519.2 259.629 1527.82C262.35 1534.39 266.376 1536.5 276 1536.41C283.561 1536.34 287.549 1535.42 296.25 1531.76L301 1529.75V1518.88V1508L287.25 1508.07C279.167 1508.11 271.453 1508.68 268.534 1509.47ZM1657.65 1509.44C1651.21 1511.17 1647.91 1514.58 1647.28 1520.16C1646.3 1528.93 1651.4 1535.19 1660.66 1536.58C1665.75 1537.34 1677.61 1535.08 1684.84 1531.97L1690 1529.75V1518.88V1508L1676.25 1508.07C1668.33 1508.11 1660.45 1508.69 1657.65 1509.44Z" fill="#006229"/>
</mask>
<g mask="url(#mask0_0_1)">
<path id="ivy" d="M200 604C200 836 133 1193 464 907C673.129 726.303 684.171 513.203 639.671 500.036C555.671 535.036 639.671 1114 965.671 806.536C1024.84 642.036 1130.5 556.5 1407 521.5C1683.5 486.5 1218.36 1033.22 1663.5 867.5C1942.85 763.5 1757.5 368.5 1905.5 472.5C2053.5 694.5 2096 1270.9 1634 1168.5C1172 1066.1 1838 887.203 2256 806.536" stroke="white" stroke-width="400" stroke-linecap="square" stroke-linejoin="round"/>
</g>
</g>
<path id="outline" d="M-607 -87H3117C3162.29 -87 3199 -50.2873 3199 -5V1640C3199 1685.29 3162.29 1722 3117 1722H-607C-652.287 1722 -689 1685.29 -689 1640V-5C-689 -50.2873 -652.287 -87 -607 -87Z" stroke="white" stroke-width="50"/>
<path id="leaf" d="M-195.207 146.141C-194.731 145.951 -188.124 141.259 -180.483 135.783C-119.39 91.7425 -47.8303 51.4489 17.5371 24.3462C26.6277 20.5628 42.9887 14.2143 49.0781 12.0655C51.8536 11.1302 56.7619 9.39771 60.0133 8.27197C70.3058 4.61643 92.7252 -2.1166 104.439 -5.0914C194.446 -28.2816 270.555 -23.9188 332.067 7.83081C376.615 30.8117 413.598 68.7194 441.878 120.478C450.266 135.844 456.169 148.582 463.849 167.811C466.754 175.106 469.283 181.208 469.419 181.304C469.961 181.69 488.316 179.805 499.457 178.209C522.624 174.919 541.343 169.654 555.095 162.573C561.772 159.122 562.373 158.756 573.908 151.155C579.105 147.775 584.409 144.34 585.764 143.584C588.921 141.73 592.034 141.564 594.156 143.075C598.822 146.463 598.125 152.318 592.695 155.069C591.542 155.637 586.516 158.874 581.472 162.23C561.683 175.401 549.283 181.062 528.277 186.287C519.106 188.558 496.864 192.175 484.282 193.407C478.876 193.925 474.263 194.479 474.048 194.59C473.832 194.701 473.954 195.582 474.305 196.427C474.934 197.934 474.917 198.054 473.885 197.782C472.808 197.479 472.714 197.61 468.595 205.595C451.529 238.171 430.974 268.859 410.801 291.747C338.784 373.596 246.644 399.304 135.727 368.507C63.5072 348.453 -18.6929 302.173 -100.11 235.676C-132.434 209.29 -162.107 182.144 -188.651 154.712C-192.049 151.169 -195.228 148.178 -195.637 148.084C-196.593 147.801 -196.329 146.666 -195.207 146.141Z" fill="white"/>
<ellipse id="dot" cx="196" cy="192" rx="196" ry="192" fill="white"/>
</svg>
