<svg width="3940" height="1859" viewBox="0 0 3940 1859" fill="none" xmlns="http://www.w3.org/2000/svg">
<path id="Image (Traced)" fill-rule="evenodd" clip-rule="evenodd" d="M106.5 1.0531C78.298 3.8061 53.438 16.121 33.309 37.311C24.359 46.734 19.023 54.602 12.924 67.37C6.85301 80.079 3.33002 93.219 2.02902 108C0.62902 123.916 0.625999 1735.08 2.026 1750.9C4.718 1781.32 16.378 1805.67 38.309 1826.69C54.481 1842.18 71.773 1851.19 96 1856.72C103.065 1858.34 211.324 1858.45 1963 1858.76C3245.95 1858.98 3825.91 1858.76 3833.5 1858.04C3847.11 1856.75 3860.66 1853.19 3871.78 1847.98C3906.11 1831.89 3929.44 1802.04 3937.76 1763.56C3939.41 1755.93 3939.5 1710.99 3939.5 929.5C3939.5 126.878 3939.45 103.259 3937.63 95C3931.91 68.957 3921.51 50.3301 3902.58 32.2321C3883.44 13.9381 3860.71 3.66905 3833.5 1.02405C3821.38 -0.153954 118.571 -0.124902 106.5 1.0531ZM935.5 114.044C992.595 120.562 1042.04 150.983 1074.54 199.593C1111.81 255.344 1116.33 330.669 1086.03 390.951C1053.11 456.413 986.83 498 915.409 498C885.622 498 859.435 492.017 832.301 479.01C749.227 439.19 706.471 345.833 729.937 255.5C747.76 186.89 803.379 133.1 872.629 117.501C891.136 113.332 916.869 111.917 935.5 114.044ZM1085.23 727.25C1085.49 912.654 1085.58 920.723 1087.36 926C1090.58 935.501 1094.06 941.246 1100.38 947.481C1110.32 957.289 1121.56 962 1135 962C1157.57 962 1177.76 946.36 1183.47 924.458C1184.82 919.279 1185 895.78 1185 726.79V535H1356.5H1528L1528.25 721.152L1528.5 907.305L1564.4 809.902C1609.68 687.066 1611.11 683.431 1622.95 662C1663.67 588.232 1723.66 545.698 1801.3 535.543C1816.89 533.505 1849.12 533.504 1864.66 535.542C1923.55 543.262 1976.9 572.696 2014 617.929L2021.5 627.075L2021.76 580.537L2022.02 534H2192.99H2363.96L2364.23 727.75L2364.5 921.5L2366.83 928C2375.86 953.22 2401.24 967.037 2426.46 960.467C2443.48 956.036 2456.83 942.248 2461.51 924.297C2462.8 919.33 2463 893.362 2463 726.29V534H2633.98H2804.96L2805.23 727.25C2805.49 912.654 2805.58 920.723 2807.36 926C2810.58 935.501 2814.06 941.246 2820.38 947.481C2830.32 957.289 2841.56 962 2855 962C2879.29 962 2900.59 943.845 2904.35 919.92C2904.95 916.114 2905.8 913 2906.23 913C2906.66 913 2917.65 917.587 2930.65 923.193L2954.29 933.385L2953.64 948.516C2948.92 1058.03 2899.25 1137.57 2816 1168.9L2805.5 1172.85L2805.26 1176.68C2803.75 1200.26 2799.68 1225.91 2793.97 1247.86C2768.87 1344.24 2702.34 1413.29 2602.54 1446.52C2565.39 1458.89 2527.07 1465.95 2480 1469.09C2457.84 1470.57 2398.15 1469.71 2373.5 1467.55C2323.23 1463.15 2275.04 1454.86 2230.37 1442.91C2197.55 1434.13 2149.77 1417.59 2149.21 1414.81C2148.9 1413.27 2175.81 1250.86 2176.48 1250.18C2176.71 1249.96 2181.08 1251.57 2186.19 1253.76C2216.67 1266.82 2256.84 1275.4 2299.26 1277.93C2332.61 1279.92 2361.12 1275.01 2384.5 1263.25C2428.98 1240.89 2456.3 1196.14 2461.97 1136.36C2462.53 1130.39 2463 1116.12 2463 1104.66L2463 1083.82L2458.81 1089.16C2451.69 1098.22 2432.01 1117.81 2421.5 1126.3C2366.26 1170.91 2293.39 1189.41 2223.7 1176.51C2126 1158.44 2049.17 1083.85 2027.55 986.105C2022.79 964.597 2022.7 962.756 2022.08 874.5C2021.51 791.486 2021.47 790.438 2019.35 785.255C2015.77 776.528 2012.39 771.578 2005.96 765.624C1989.28 750.181 1966.9 747.662 1945.5 758.82C1932.69 765.498 1917.65 782.73 1908.23 801.51C1906.57 804.816 1887.4 851.478 1865.64 905.204C1843.87 958.93 1823.8 1007.95 1821.03 1014.14C1803.2 1053.95 1777.33 1090.07 1749.52 1113.94C1706.03 1151.27 1655.87 1169.77 1586.5 1174.05C1574.76 1174.78 1540.52 1175.02 1488 1174.74C1401.25 1174.28 1398.88 1174.16 1374 1168.54C1321.52 1156.7 1274.29 1128.1 1240.18 1087.5C1231.81 1077.53 1216.84 1055.27 1213.08 1047.2C1211.75 1044.34 1210.4 1042.01 1210.08 1042.01C1209.76 1042.02 1207.7 1045.47 1205.5 1049.68C1203.3 1053.9 1198.1 1062.56 1193.94 1068.92C1160.22 1120.54 1109.16 1157.44 1050.5 1172.58C971.977 1192.84 889.998 1173.67 828.323 1120.61C788.518 1086.37 760.142 1038.53 748.546 986.105C743.327 962.512 743.602 975.01 743.267 746.25L742.955 534H913.958H1084.96L1085.23 727.25ZM3049.31 1156.43C3087.52 1167.7 3113 1201.73 3113 1241.5C3113 1292.89 3070.78 1332.74 3019.57 1329.68C2981.73 1327.42 2950 1301.07 2939.88 1263.5C2938.15 1257.1 2937.72 1252.7 2937.72 1241.5C2937.72 1230.3 2938.15 1225.9 2939.88 1219.5C2948.71 1186.71 2974.34 1162.04 3007 1154.87C3019.19 1152.2 3037.21 1152.86 3049.31 1156.43ZM3010.07 1183.53C2984.3 1190.74 2965.85 1214.42 2965.67 1240.5C2965.55 1258.21 2970.83 1271.05 2983.39 1283.59C2995.84 1296.01 3007.95 1301 3025.66 1301C3059.75 1301 3086.83 1272.08 3084.66 1238C3083.14 1214.12 3067.15 1192.89 3044.72 1184.97C3036.49 1182.06 3018.07 1181.3 3010.07 1183.53ZM3037 1200.06C3040.57 1200.63 3046.54 1202.5 3050.25 1204.2L3057 1207.3V1216.65V1226H3045.5H3034V1223.07C3034 1218.49 3029.75 1215.68 3023.67 1216.26C3015.49 1217.04 3015.5 1217 3015.5 1241.5C3015.5 1265.38 3015.55 1265.57 3022.26 1266.66C3029.55 1267.84 3034 1265.1 3034 1259.43V1256H3045.5H3057V1265.98V1275.96L3053.25 1277.84C3044.45 1282.26 3038.84 1283.44 3026.5 1283.47C3017.47 1283.49 3013.22 1283.06 3009.35 1281.7C2992.44 1275.8 2985.8 1264.46 2985.8 1241.5C2985.81 1221.82 2990.53 1211.06 3001.98 1204.63C3011.2 1199.45 3023.33 1197.86 3037 1200.06ZM1178 1583V1681H1157.5H1137V1583V1485H1157.5H1178V1583ZM2723 1515.5C2723 1532.28 2723.17 1546 2723.38 1546C2723.58 1546 2726.31 1544.87 2729.43 1543.49C2743.3 1537.36 2761.14 1534.65 2772.5 1536.97C2791.6 1540.86 2806.06 1556.2 2811.46 1578.31C2815.19 1593.58 2815.19 1618.37 2811.47 1633.69C2804.66 1661.68 2784.4 1678.93 2753.5 1683.06C2736.85 1685.29 2712.07 1683.17 2690 1677.63L2681.5 1675.5L2681.24 1580.25L2680.99 1485H2701.99H2723V1515.5ZM852 1495.3L862.5 1496.5L862.773 1515.38L863.045 1534.26L860.138 1533.68C839.391 1529.53 806.36 1528.31 796.57 1531.33C783.018 1535.51 777.835 1549.05 786.156 1558.53C789.951 1562.85 796.468 1564.91 817.987 1568.58C842.117 1572.7 853.047 1577.29 860.418 1586.38C868.302 1596.11 871.322 1606.35 871.357 1623.5C871.397 1642.96 867.209 1654.75 856.395 1665.61C842.525 1679.55 822.779 1684.84 789 1683.67C773.856 1683.14 748.673 1680.3 742.875 1678.46C741.131 1677.91 741 1676.58 741 1659.43C741 1649.3 741.37 1641 741.822 1641C742.274 1641 749.136 1642.1 757.072 1643.44C789.966 1648.99 805.477 1648.94 817 1643.23C823.386 1640.06 826.602 1635.84 827.578 1629.33C828.999 1619.85 823.895 1612.53 813.764 1609.52C810.869 1608.66 801.975 1606.85 794 1605.5C769.83 1601.41 760.857 1597.77 752.128 1588.54C742.997 1578.89 739.035 1567.38 739.035 1550.5C739.035 1530.06 745.576 1515.5 758.977 1506.1C768.008 1499.76 778.934 1495.92 794.5 1493.6C799.703 1492.83 841.039 1494.05 852 1495.3ZM1871.66 1494.56C1878.17 1495.42 1886.87 1496.9 1891 1497.85L1898.5 1499.57L1898.77 1517.92L1899.05 1536.26L1896.27 1535.68C1894.75 1535.36 1889.22 1534.19 1884 1533.09C1852.51 1526.43 1830.39 1529.65 1825.38 1541.64C1821.07 1551.96 1827.22 1565.02 1837.78 1567.96C1840.09 1568.6 1859.02 1568.99 1887.75 1568.99L1934 1569V1585.5V1602H1921.93C1910.91 1602 1909.91 1602.15 1910.38 1603.75C1910.67 1604.71 1915.88 1622.21 1921.95 1642.63C1928.03 1663.05 1933 1680.05 1933 1680.4C1933 1680.75 1924.13 1680.92 1913.29 1680.77L1893.58 1680.5L1891.34 1673.5C1890.11 1669.65 1889.08 1666.37 1889.05 1666.2C1889.02 1666.04 1886.94 1667.32 1884.43 1669.05C1871.72 1677.79 1855.48 1682.86 1837.47 1683.71C1805.9 1685.19 1781.16 1671.37 1774.01 1648.25C1766.61 1624.32 1775.16 1601.28 1796.27 1588.25L1802.11 1584.65L1796.92 1579.58C1783.09 1566.04 1777.67 1549.59 1781.44 1532.62C1784.52 1518.76 1793.48 1508.34 1808.75 1500.87C1824.23 1493.29 1845.67 1491.14 1871.66 1494.56ZM2219.5 1499.23C2238.91 1505.78 2250.25 1518.6 2253.16 1537.29C2255.92 1555.03 2247.78 1573.56 2233.05 1583.09L2230.6 1584.68L2237.4 1588.03C2246.28 1592.4 2252.36 1598.42 2256.31 1606.78C2259.43 1613.36 2259.5 1613.8 2259.46 1627.5C2259.42 1643.6 2258.07 1648.39 2250.86 1658C2242.62 1669 2231.11 1675.9 2215.7 1679.08C2207.47 1680.77 2201.77 1680.98 2161.75 1680.99L2117 1681V1588.45V1495.89L2164.25 1496.21L2211.5 1496.54L2219.5 1499.23ZM2160 1550.89V1570L2176.75 1569.99C2194.51 1569.99 2198.73 1569.33 2204.06 1565.74C2209.11 1562.34 2211.35 1557.73 2211.43 1550.6C2211.52 1542.69 2208.83 1538.11 2202.23 1534.91C2197.93 1532.82 2195.78 1532.57 2178.75 1532.2L2160 1531.78V1550.89ZM1022.5 1538.47C1040.24 1543.18 1051.76 1553.6 1057.2 1569.83C1059.39 1576.34 1059.45 1577.77 1059.78 1628.77L1060.11 1681.05L1042.32 1680.77L1024.52 1680.5L1023.14 1674C1022.38 1670.43 1021.64 1667.37 1021.5 1667.2C1021.36 1667.04 1019.23 1668.26 1016.78 1669.91C989.057 1688.63 955.647 1686.75 941.671 1665.69C935.946 1657.07 934.5 1651.28 934.5 1637C934.5 1625.51 934.717 1624.04 937.203 1618.73C940.586 1611.51 948.801 1603.21 956 1599.72C966.533 1594.63 971.838 1593.77 995.857 1593.26L1018.21 1592.78L1017.82 1585.77C1017.46 1579.4 1017.14 1578.51 1014.25 1575.93C1009.3 1571.51 1004.24 1570.48 988 1570.63C974.909 1570.75 963.736 1572.14 947.75 1575.63L945 1576.23V1559.2V1542.17L949.811 1541.13C954.496 1540.13 974.965 1537.42 984 1536.62C993.398 1535.77 1016.56 1536.89 1022.5 1538.47ZM1344.14 1538.86C1363.76 1544 1377.63 1555.16 1385.97 1572.5C1390.84 1582.63 1392.97 1591.4 1393.69 1604.3C1396.03 1645.96 1376.3 1674.7 1340.21 1682.19C1327.64 1684.8 1308.44 1684.27 1297.02 1681.01C1278.52 1675.71 1265.44 1665.04 1257.64 1648.86C1251.62 1636.4 1249.72 1627 1249.75 1610C1249.8 1590.41 1253.05 1577.43 1260.98 1565.16C1270.55 1550.34 1284.93 1541.28 1304.83 1537.5C1315.15 1535.54 1333.96 1536.19 1344.14 1538.86ZM1563.36 1537.49C1567.14 1538.29 1572.16 1540.07 1574.52 1541.46C1580.41 1544.91 1586.49 1552.1 1589.22 1558.85C1591.49 1564.48 1591.5 1564.74 1591.8 1622.75L1592.09 1681H1571.55H1551V1632.15C1551 1598.98 1550.64 1582.28 1549.89 1580.12C1546.94 1571.64 1532.55 1571.98 1512.66 1581L1506 1584.02V1632.51V1681H1485.5H1465V1610V1539H1484H1503V1546C1503 1549.85 1503.21 1553 1503.48 1553C1503.74 1553 1508.12 1550.78 1513.23 1548.07C1534.32 1536.84 1547.35 1534.1 1563.36 1537.49ZM2411.5 1538.55C2421.49 1541.27 2428.13 1544.98 2434.56 1551.43C2437.89 1554.77 2441.65 1559.64 2442.9 1562.26C2448.25 1573.41 2448.29 1573.8 2448.74 1629.25L2449.16 1681H2431.21H2413.27L2411.99 1674.75C2411.28 1671.31 2410.52 1668.16 2410.29 1667.75C2410.06 1667.33 2407.99 1668.28 2405.69 1669.86C2384.51 1684.39 2359.19 1687.06 2342 1676.58C2331.27 1670.04 2325.02 1659.47 2322.91 1644.31C2320.25 1625.16 2328.73 1607.69 2344.44 1599.95C2355.47 1594.53 2359.6 1593.83 2384.25 1593.28L2407 1592.76V1587.33C2407 1577.83 2403.75 1574.18 2392.76 1571.35C2382.88 1568.8 2359.96 1570.56 2336.75 1575.63L2334 1576.23V1559.2V1542.17L2339 1541.09C2344.27 1539.96 2364.03 1537.33 2372.5 1536.64C2382.76 1535.79 2405.47 1536.9 2411.5 1538.55ZM2969.5 1538.49C2982.72 1541.95 2992.5 1548.61 2999.43 1558.86C3007.58 1570.92 3011 1585.94 3011 1609.72V1622H2966.48H2921.96L2922.57 1624.75C2924.8 1634.82 2929.02 1640.47 2936.82 1643.83C2942.5 1646.27 2952.18 1647.98 2960.37 1647.99C2969.89 1648.01 2991.86 1644.33 3005.77 1640.4L3008.05 1639.75L3007.77 1657.63L3007.5 1675.5L2998.5 1677.76C2979.7 1682.48 2972.26 1683.4 2952.5 1683.43C2937.57 1683.45 2932 1683.08 2926.53 1681.69C2910.74 1677.69 2896.84 1668.08 2889.59 1656.15C2882.04 1643.73 2878.26 1624.81 2879.28 1604.61C2880.42 1581.89 2886.27 1566.52 2898.39 1554.39C2908.06 1544.72 2919.03 1539.4 2934.48 1536.92C2941.81 1535.74 2962.55 1536.67 2969.5 1538.49ZM2615 1559.37V1580.74L2605.75 1582.87C2600.66 1584.04 2589.86 1587.1 2581.75 1589.67L2567 1594.35V1637.67V1681H2546.5H2526V1610V1539H2545.5H2565V1549.93V1560.86L2574.25 1554.56C2588.59 1544.79 2597.93 1540.53 2608.4 1539C2611.21 1538.59 2613.84 1538.19 2614.25 1538.13C2614.66 1538.06 2615 1547.62 2615 1559.37ZM3172 1559.36V1580.72L3160.75 1583.41C3154.56 1584.89 3143.87 1587.99 3137 1590.3L3124.5 1594.5L3124.24 1637.75L3123.98 1681H3103.49H3083V1610V1539H3102.5H3122V1549.98V1560.97L3132.75 1553.84C3145.18 1545.6 3153.25 1541.69 3161 1540.13C3168.32 1538.65 3170.35 1538.25 3171.25 1538.12C3171.66 1538.05 3172 1547.61 3172 1559.36ZM2940.09 1569.08C2931.09 1570.86 2923.49 1578.94 2922.27 1588L2921.74 1592H2945.37C2972.19 1592 2970.3 1592.75 2967.47 1583.23C2966.64 1580.41 2964.84 1576.77 2963.48 1575.16C2959.17 1570.04 2948.81 1567.34 2940.09 1569.08ZM1309.89 1573.38C1297.68 1577.74 1292 1589.26 1292 1609.66C1292 1636.73 1300.9 1648.42 1321.5 1648.42C1331.37 1648.42 1336.11 1646.86 1341.55 1641.85C1346.95 1636.87 1349.62 1630.58 1350.98 1619.68C1352.91 1604.16 1349.96 1587.98 1343.86 1580.62C1338.87 1574.6 1332.26 1572.01 1322 1572.05C1317.33 1572.07 1311.87 1572.67 1309.89 1573.38ZM2738.5 1573.9C2734.65 1574.94 2729.59 1576.57 2727.25 1577.51L2723 1579.22V1614.03V1648.84L2729.65 1649.55C2738.01 1650.45 2748.16 1649.6 2754 1647.52C2760.09 1645.35 2766.51 1638.82 2769.24 1632.03C2771.25 1627.05 2771.47 1624.75 2771.48 1608.98L2771.5 1591.46L2768.19 1584.74C2765.56 1579.4 2763.98 1577.49 2760.49 1575.44C2754.57 1571.97 2747.42 1571.47 2738.5 1573.9ZM1826.5 1603.87C1809.41 1611.65 1808.51 1636.11 1824.98 1645.37C1829.8 1648.08 1831.58 1648.49 1839.98 1648.83C1848.25 1649.16 1850.55 1648.86 1857.33 1646.59C1865.2 1643.95 1874.1 1638.92 1877.14 1635.4C1878.67 1633.62 1878.48 1632.48 1874.2 1617.75L1869.64 1602L1850.07 1602.02C1833.3 1602.04 1829.93 1602.31 1826.5 1603.87ZM2160 1625.49V1645.2L2181.25 1644.8C2204.98 1644.36 2207.3 1643.84 2212.7 1637.69C2216.2 1633.71 2217.62 1627.67 2216.7 1620.77C2215.96 1615.27 2213.38 1612 2207.45 1609.01C2202.73 1606.65 2201.5 1606.51 2181.25 1606.15L2160 1605.78V1625.49ZM985.534 1621.47C976.615 1623.86 973.055 1631.2 976.629 1639.82C979.35 1646.39 983.376 1648.5 993 1648.41C1000.56 1648.34 1004.55 1647.42 1013.25 1643.76L1018 1641.75V1630.88V1620L1004.25 1620.07C996.167 1620.11 988.453 1620.68 985.534 1621.47ZM2374.65 1621.44C2368.21 1623.17 2364.91 1626.58 2364.28 1632.16C2363.3 1640.93 2368.4 1647.19 2377.66 1648.58C2382.75 1649.34 2394.61 1647.08 2401.84 1643.97L2407 1641.75V1630.88V1620L2393.25 1620.07C2385.33 1620.11 2377.45 1620.69 2374.65 1621.44Z" fill="#006229"/>
</svg>
