<svg width="2497" height="1126" viewBox="0 0 2497 1126" fill="none" xmlns="http://www.w3.org/2000/svg">
<rect width="2497" height="1126" fill="#282626"/>
<rect id="background" x="-710" y="-369" width="3938" height="1859" rx="107" fill="#006229" stroke="white" stroke-width="100" stroke-linecap="round"/>
<path id="ivy" d="M206 349C206 581 139 938 470 652C679.129 471.303 690.171 258.203 645.671 245.036C561.671 280.036 645.671 859 971.671 551.536C1030.84 387.036 1136.5 301.5 1413 266.5C1689.5 231.5 1224.36 778.221 1669.5 612.5C1948.85 508.5 1763.5 113.5 1911.5 217.5C2059.5 439.5 2102 1015.9 1640 913.5C1178 811.1 1844 632.203 2262 551.536" stroke="white" stroke-width="400" stroke-linecap="square" stroke-linejoin="round"/>
<path id="mask" fill-rule="evenodd" clip-rule="evenodd" d="M-604.5 -365.947C-632.702 -363.194 -657.562 -350.879 -677.691 -329.689C-686.641 -320.266 -691.977 -312.398 -698.076 -299.63C-704.147 -286.921 -707.67 -273.781 -708.971 -259C-710.371 -243.084 -710.374 1368.08 -708.974 1383.9C-706.282 1414.32 -694.622 1438.67 -672.691 1459.69C-656.519 1475.18 -639.227 1484.19 -615 1489.72C-607.935 1491.34 -499.676 1491.45 1252 1491.76C2534.95 1491.98 3114.91 1491.76 3122.5 1491.04C3136.11 1489.75 3149.66 1486.19 3160.78 1480.98C3195.11 1464.89 3218.44 1435.04 3226.76 1396.56C3228.41 1388.93 3228.5 1343.99 3228.5 562.5C3228.5 -240.122 3228.45 -263.741 3226.63 -272C3220.91 -298.043 3210.51 -316.67 3191.58 -334.768C3172.44 -353.062 3149.71 -363.331 3122.5 -365.976C3110.38 -367.154 -592.429 -367.125 -604.5 -365.947ZM224.5 -252.956C281.595 -246.438 331.037 -216.017 363.537 -167.407C400.812 -111.656 405.334 -36.331 375.025 23.951C342.111 89.413 275.83 131 204.409 131C174.622 131 148.435 125.017 121.301 112.01C38.2271 72.1901 -4.52896 -21.1669 18.937 -111.5C36.76 -180.11 92.3791 -233.9 161.629 -249.499C180.136 -253.668 205.869 -255.083 224.5 -252.956ZM374.231 360.25C374.49 545.654 374.577 553.723 376.362 559C379.577 568.501 383.058 574.246 389.379 580.481C399.323 590.289 410.556 595 424 595C446.572 595 466.764 579.36 472.469 557.458C473.818 552.279 474 528.78 474 359.79V168H645.497H816.995L817.247 354.152L817.5 540.305L853.4 442.902C898.675 320.066 900.114 316.431 911.946 295C952.673 221.232 1012.66 178.698 1090.3 168.543C1105.89 166.505 1138.12 166.504 1153.66 168.542C1212.55 176.262 1265.9 205.696 1303 250.929L1310.5 260.075L1310.76 213.537L1311.02 167H1481.99H1652.96L1653.23 360.75L1653.5 554.5L1655.83 561C1664.86 586.22 1690.24 600.037 1715.46 593.467C1732.48 589.036 1745.83 575.248 1750.51 557.297C1751.8 552.33 1752 526.362 1752 359.29V167H1922.98H2093.96L2094.23 360.25C2094.49 545.654 2094.58 553.723 2096.36 559C2099.58 568.501 2103.06 574.246 2109.38 580.481C2119.32 590.289 2130.56 595 2144 595C2168.29 595 2189.59 576.845 2193.35 552.92C2193.95 549.114 2194.8 546 2195.23 546C2195.66 546 2206.65 550.587 2219.65 556.193L2243.29 566.385L2242.64 581.516C2237.92 691.031 2188.25 770.565 2105 801.901L2094.5 805.854L2094.26 809.677C2092.75 833.256 2088.68 858.91 2082.97 880.855C2057.87 977.242 1991.34 1046.29 1891.54 1079.52C1854.39 1091.89 1816.07 1098.95 1769 1102.09C1746.84 1103.57 1687.15 1102.71 1662.5 1100.55C1612.23 1096.15 1564.04 1087.86 1519.37 1075.91C1486.55 1067.13 1438.77 1050.59 1438.21 1047.81C1437.9 1046.27 1464.81 883.858 1465.48 883.183C1465.71 882.959 1470.08 884.57 1475.19 886.762C1505.67 899.816 1545.84 908.402 1588.26 910.929C1621.61 912.915 1650.12 908.005 1673.5 896.251C1717.98 873.889 1745.3 829.141 1750.97 769.356C1751.53 763.385 1752 749.122 1752 737.66L1752 716.82L1747.81 722.16C1740.69 731.217 1721.01 750.81 1710.5 759.299C1655.26 803.912 1582.39 822.411 1512.7 809.514C1415 791.435 1338.17 716.848 1316.55 619.105C1311.79 597.597 1311.7 595.756 1311.08 507.5C1310.51 424.486 1310.47 423.438 1308.35 418.255C1304.77 409.528 1301.39 404.578 1294.96 398.624C1278.28 383.181 1255.9 380.662 1234.5 391.82C1221.69 398.498 1206.65 415.73 1197.23 434.51C1195.57 437.816 1176.4 484.478 1154.64 538.204C1132.87 591.93 1112.8 640.949 1110.03 647.135C1092.2 686.949 1066.33 723.068 1038.52 746.939C995.027 784.273 944.867 802.769 875.5 807.053C863.757 807.778 829.515 808.017 777 807.74C690.247 807.283 687.882 807.155 663 801.542C610.521 789.704 563.293 761.103 529.18 720.5C520.807 710.533 505.838 688.274 502.079 680.2C500.748 677.34 499.398 675.005 499.079 675.011C498.761 675.017 496.7 678.469 494.5 682.683C492.3 686.897 487.097 695.555 482.938 701.922C449.221 753.541 398.157 790.442 339.5 805.579C260.977 825.842 178.998 806.667 117.323 753.61C77.518 719.368 49.1421 671.526 37.5461 619.105C32.3271 595.512 32.6021 608.01 32.2671 379.25L31.9551 167H202.958H373.961L374.231 360.25ZM2338.31 789.427C2376.52 800.696 2402 834.727 2402 874.5C2402 925.891 2359.78 965.738 2308.57 962.68C2270.73 960.42 2239 934.068 2228.88 896.5C2227.15 890.102 2226.72 885.697 2226.72 874.5C2226.72 863.303 2227.15 858.898 2228.88 852.5C2237.71 819.706 2263.34 795.036 2296 787.87C2308.19 785.195 2326.21 785.859 2338.31 789.427ZM2299.07 816.532C2273.3 823.739 2254.85 847.416 2254.67 873.496C2254.55 891.209 2259.83 904.054 2272.39 916.589C2284.84 929.01 2296.95 934 2314.66 934C2348.75 934 2375.83 905.084 2373.66 871C2372.14 847.123 2356.15 825.892 2333.72 817.966C2325.49 815.058 2307.07 814.296 2299.07 816.532ZM2326 833.058C2329.57 833.632 2335.54 835.495 2339.25 837.199L2346 840.296V849.648V859H2334.5H2323V856.073C2323 851.488 2318.75 848.684 2312.67 849.262C2304.49 850.041 2304.5 850 2304.5 874.5C2304.5 898.378 2304.55 898.566 2311.26 899.656C2318.55 900.837 2323 898.095 2323 892.429V889H2334.5H2346V898.98V908.959L2342.25 910.843C2333.45 915.262 2327.84 916.442 2315.5 916.471C2306.47 916.493 2302.22 916.055 2298.35 914.703C2281.44 908.803 2274.8 897.459 2274.8 874.5C2274.81 854.821 2279.53 844.058 2290.98 837.625C2300.2 832.446 2312.33 830.864 2326 833.058ZM467 1216V1314H446.5H426V1216V1118H446.5H467V1216ZM2012 1148.5C2012 1165.28 2012.17 1179 2012.38 1179C2012.58 1179 2015.31 1177.87 2018.43 1176.49C2032.3 1170.36 2050.14 1167.65 2061.5 1169.97C2080.6 1173.86 2095.06 1189.2 2100.46 1211.31C2104.19 1226.58 2104.19 1251.37 2100.47 1266.69C2093.66 1294.68 2073.4 1311.93 2042.5 1316.06C2025.85 1318.29 2001.07 1316.17 1979 1310.63L1970.5 1308.5L1970.24 1213.25L1969.99 1118H1990.99H2012V1148.5ZM141 1128.3L151.5 1129.5L151.773 1148.38L152.045 1167.26L149.138 1166.68C128.391 1162.53 95.3601 1161.31 85.5701 1164.33C72.0181 1168.51 66.835 1182.05 75.156 1191.53C78.951 1195.85 85.4681 1197.91 106.987 1201.58C131.117 1205.7 142.047 1210.29 149.418 1219.38C157.302 1229.11 160.322 1239.35 160.357 1256.5C160.397 1275.96 156.209 1287.75 145.395 1298.61C131.525 1312.55 111.779 1317.84 78 1316.67C62.856 1316.14 37.673 1313.3 31.875 1311.46C30.131 1310.91 30 1309.58 30 1292.43C30 1282.3 30.3701 1274 30.8221 1274C31.2741 1274 38.1361 1275.1 46.0721 1276.44C78.9661 1281.99 94.477 1281.94 106 1276.23C112.386 1273.06 115.602 1268.84 116.578 1262.33C117.999 1252.85 112.895 1245.53 102.764 1242.52C99.8691 1241.66 90.975 1239.85 83 1238.5C58.83 1234.41 49.8571 1230.77 41.1281 1221.54C31.9971 1211.89 28.0351 1200.38 28.0351 1183.5C28.0351 1163.06 34.5761 1148.5 47.9771 1139.1C57.0081 1132.76 67.934 1128.92 83.5 1126.6C88.703 1125.83 130.039 1127.05 141 1128.3ZM1160.66 1127.56C1167.17 1128.42 1175.87 1129.9 1180 1130.85L1187.5 1132.57L1187.77 1150.92L1188.05 1169.26L1185.27 1168.68C1183.75 1168.36 1178.22 1167.19 1173 1166.09C1141.51 1159.43 1119.39 1162.65 1114.38 1174.64C1110.07 1184.96 1116.22 1198.02 1126.78 1200.96C1129.09 1201.6 1148.02 1201.99 1176.75 1201.99L1223 1202V1218.5V1235H1210.93C1199.91 1235 1198.91 1235.15 1199.38 1236.75C1199.67 1237.71 1204.88 1255.21 1210.95 1275.63C1217.03 1296.05 1222 1313.05 1222 1313.4C1222 1313.75 1213.13 1313.92 1202.29 1313.77L1182.58 1313.5L1180.34 1306.5C1179.11 1302.65 1178.08 1299.37 1178.05 1299.2C1178.02 1299.04 1175.94 1300.32 1173.43 1302.05C1160.72 1310.79 1144.48 1315.86 1126.47 1316.71C1094.9 1318.19 1070.16 1304.37 1063.01 1281.25C1055.61 1257.32 1064.16 1234.28 1085.27 1221.25L1091.11 1217.65L1085.92 1212.58C1072.09 1199.04 1066.67 1182.59 1070.44 1165.62C1073.52 1151.76 1082.48 1141.34 1097.75 1133.87C1113.23 1126.29 1134.67 1124.14 1160.66 1127.56ZM1508.5 1132.23C1527.91 1138.78 1539.25 1151.6 1542.16 1170.29C1544.92 1188.03 1536.78 1206.56 1522.05 1216.09L1519.6 1217.68L1526.4 1221.03C1535.28 1225.4 1541.36 1231.42 1545.31 1239.78C1548.43 1246.36 1548.5 1246.8 1548.46 1260.5C1548.42 1276.6 1547.07 1281.39 1539.86 1291C1531.62 1302 1520.11 1308.9 1504.7 1312.08C1496.47 1313.77 1490.77 1313.98 1450.75 1313.99L1406 1314V1221.45V1128.89L1453.25 1129.21L1500.5 1129.54L1508.5 1132.23ZM1449 1183.89V1203L1465.75 1202.99C1483.51 1202.99 1487.73 1202.33 1493.06 1198.74C1498.11 1195.34 1500.35 1190.73 1500.43 1183.6C1500.52 1175.69 1497.83 1171.11 1491.23 1167.91C1486.93 1165.82 1484.78 1165.57 1467.75 1165.2L1449 1164.78V1183.89ZM311.5 1171.47C329.236 1176.18 340.764 1186.6 346.203 1202.83C348.385 1209.34 348.448 1210.77 348.777 1261.77L349.114 1314.05L331.317 1313.77L313.52 1313.5L312.139 1307C311.38 1303.43 310.641 1300.37 310.499 1300.2C310.356 1300.04 308.234 1301.26 305.782 1302.91C278.057 1321.63 244.647 1319.75 230.671 1298.69C224.946 1290.07 223.5 1284.28 223.5 1270C223.5 1258.51 223.717 1257.04 226.203 1251.73C229.586 1244.51 237.801 1236.21 245 1232.72C255.533 1227.63 260.838 1226.77 284.857 1226.26L307.213 1225.78L306.817 1218.77C306.457 1212.4 306.135 1211.51 303.25 1208.93C298.296 1204.51 293.241 1203.48 277 1203.63C263.909 1203.75 252.736 1205.14 236.75 1208.63L234 1209.23V1192.2V1175.17L238.811 1174.13C243.496 1173.13 263.965 1170.42 273 1169.62C282.398 1168.77 305.556 1169.89 311.5 1171.47ZM633.144 1171.86C652.761 1177 666.628 1188.16 674.965 1205.5C679.835 1215.63 681.966 1224.4 682.691 1237.3C685.031 1278.96 665.297 1307.7 629.214 1315.19C616.635 1317.8 597.436 1317.27 586.016 1314.01C567.518 1308.71 554.44 1298.04 546.636 1281.86C540.624 1269.4 538.717 1260 538.754 1243C538.796 1223.41 542.045 1210.43 549.976 1198.16C559.552 1183.34 573.925 1174.28 593.834 1170.5C604.148 1168.54 622.962 1169.19 633.144 1171.86ZM852.364 1170.49C856.139 1171.29 861.157 1173.07 863.515 1174.46C869.408 1177.91 875.487 1185.1 878.217 1191.85C880.491 1197.48 880.501 1197.74 880.795 1255.75L881.09 1314H860.545H840V1265.15C840 1231.98 839.644 1215.28 838.892 1213.12C835.936 1204.64 821.551 1204.98 801.656 1214L795 1217.02V1265.51V1314H774.5H754V1243V1172H773H792V1179C792 1182.85 792.214 1186 792.475 1186C792.737 1186 797.124 1183.78 802.225 1181.07C823.316 1169.84 836.345 1167.1 852.364 1170.49ZM1700.5 1171.55C1710.49 1174.27 1717.13 1177.98 1723.56 1184.43C1726.89 1187.77 1730.65 1192.64 1731.9 1195.26C1737.25 1206.41 1737.29 1206.8 1737.74 1262.25L1738.16 1314H1720.21H1702.27L1700.99 1307.75C1700.28 1304.31 1699.52 1301.16 1699.29 1300.75C1699.06 1300.33 1696.99 1301.28 1694.69 1302.86C1673.51 1317.39 1648.19 1320.06 1631 1309.58C1620.27 1303.04 1614.02 1292.47 1611.91 1277.31C1609.25 1258.16 1617.73 1240.69 1633.44 1232.95C1644.47 1227.53 1648.6 1226.83 1673.25 1226.28L1696 1225.76V1220.33C1696 1210.83 1692.75 1207.18 1681.76 1204.35C1671.88 1201.8 1648.96 1203.56 1625.75 1208.63L1623 1209.23V1192.2V1175.17L1628 1174.09C1633.27 1172.96 1653.03 1170.33 1661.5 1169.64C1671.76 1168.79 1694.47 1169.9 1700.5 1171.55ZM2258.5 1171.49C2271.72 1174.95 2281.5 1181.61 2288.43 1191.86C2296.58 1203.92 2300 1218.94 2300 1242.72V1255H2255.48H2210.96L2211.57 1257.75C2213.8 1267.82 2218.02 1273.47 2225.82 1276.83C2231.5 1279.27 2241.18 1280.98 2249.37 1280.99C2258.89 1281.01 2280.86 1277.33 2294.77 1273.4L2297.05 1272.75L2296.77 1290.63L2296.5 1308.5L2287.5 1310.76C2268.7 1315.48 2261.26 1316.4 2241.5 1316.43C2226.57 1316.45 2221 1316.08 2215.53 1314.69C2199.74 1310.69 2185.84 1301.08 2178.59 1289.15C2171.04 1276.73 2167.26 1257.81 2168.28 1237.61C2169.42 1214.89 2175.27 1199.52 2187.39 1187.39C2197.06 1177.72 2208.03 1172.4 2223.48 1169.92C2230.81 1168.74 2251.55 1169.67 2258.5 1171.49ZM1904 1192.37V1213.74L1894.75 1215.87C1889.66 1217.04 1878.86 1220.1 1870.75 1222.67L1856 1227.35V1270.67V1314H1835.5H1815V1243V1172H1834.5H1854V1182.93V1193.86L1863.25 1187.56C1877.59 1177.79 1886.93 1173.53 1897.4 1172C1900.21 1171.59 1902.84 1171.19 1903.25 1171.13C1903.66 1171.06 1904 1180.62 1904 1192.37ZM2461 1192.36V1213.72L2449.75 1216.41C2443.56 1217.89 2432.87 1220.99 2426 1223.3L2413.5 1227.5L2413.24 1270.75L2412.98 1314H2392.49H2372V1243V1172H2391.5H2411V1182.98V1193.97L2421.75 1186.84C2434.18 1178.6 2442.25 1174.69 2450 1173.13C2457.32 1171.65 2459.35 1171.25 2460.25 1171.12C2460.66 1171.05 2461 1180.61 2461 1192.36ZM2229.09 1202.08C2220.09 1203.86 2212.49 1211.94 2211.27 1221L2210.74 1225H2234.37C2261.19 1225 2259.3 1225.75 2256.47 1216.23C2255.64 1213.41 2253.84 1209.77 2252.48 1208.16C2248.17 1203.04 2237.81 1200.34 2229.09 1202.08ZM598.885 1206.38C586.676 1210.74 581 1222.26 581 1242.66C581 1269.73 589.898 1281.42 610.5 1281.42C620.374 1281.42 625.108 1279.86 630.553 1274.85C635.946 1269.87 638.624 1263.58 639.977 1252.68C641.906 1237.16 638.957 1220.98 632.857 1213.62C627.87 1207.6 621.259 1205.01 611 1205.05C606.325 1205.07 600.873 1205.67 598.885 1206.38ZM2027.5 1206.9C2023.65 1207.94 2018.59 1209.57 2016.25 1210.51L2012 1212.22V1247.03V1281.84L2018.65 1282.55C2027.01 1283.45 2037.16 1282.6 2043 1280.52C2049.09 1278.35 2055.51 1271.82 2058.24 1265.03C2060.25 1260.05 2060.47 1257.75 2060.48 1241.98L2060.5 1224.46L2057.19 1217.74C2054.56 1212.4 2052.98 1210.49 2049.49 1208.44C2043.57 1204.97 2036.42 1204.47 2027.5 1206.9ZM1115.5 1236.87C1098.41 1244.65 1097.51 1269.11 1113.98 1278.37C1118.8 1281.08 1120.58 1281.49 1128.98 1281.83C1137.25 1282.16 1139.55 1281.86 1146.33 1279.59C1154.2 1276.95 1163.1 1271.92 1166.14 1268.4C1167.67 1266.62 1167.48 1265.48 1163.2 1250.75L1158.64 1235L1139.07 1235.02C1122.3 1235.04 1118.93 1235.31 1115.5 1236.87ZM1449 1258.49V1278.2L1470.25 1277.8C1493.98 1277.36 1496.3 1276.84 1501.7 1270.69C1505.2 1266.71 1506.62 1260.67 1505.7 1253.77C1504.96 1248.27 1502.38 1245 1496.45 1242.01C1491.73 1239.65 1490.5 1239.51 1470.25 1239.15L1449 1238.78V1258.49ZM274.534 1254.47C265.615 1256.86 262.055 1264.2 265.629 1272.82C268.35 1279.39 272.376 1281.5 282 1281.41C289.561 1281.34 293.549 1280.42 302.25 1276.76L307 1274.75V1263.88V1253L293.25 1253.07C285.167 1253.11 277.453 1253.68 274.534 1254.47ZM1663.65 1254.44C1657.21 1256.17 1653.91 1259.58 1653.28 1265.16C1652.3 1273.93 1657.4 1280.19 1666.66 1281.58C1671.75 1282.34 1683.61 1280.08 1690.84 1276.97L1696 1274.75V1263.88V1253L1682.25 1253.07C1674.33 1253.11 1666.45 1253.69 1663.65 1254.44Z" fill="#006229"/>
<g id="Frame">
<path id="letters" fill-rule="evenodd" clip-rule="evenodd" d="M2341.31 789.43C2379.52 800.7 2405 834.73 2405 874.5C2405 925.89 2362.78 965.74 2311.57 962.68C2273.73 960.42 2242 934.07 2231.88 896.5C2230.15 890.1 2229.72 885.7 2229.72 874.5C2229.72 863.3 2230.15 858.9 2231.88 852.5C2240.71 819.71 2266.34 795.04 2299 787.87C2311.19 785.2 2329.21 785.86 2341.31 789.43ZM2302.07 816.53C2276.3 823.74 2257.85 847.42 2257.67 873.5C2257.55 891.21 2262.83 904.05 2275.39 916.59C2287.84 929.01 2299.95 934 2317.66 934C2351.75 934 2378.83 905.08 2376.66 871C2375.14 847.12 2359.15 825.89 2336.72 817.97C2328.49 815.06 2310.07 814.3 2302.07 816.53ZM2329 833.06C2332.57 833.63 2338.54 835.5 2342.25 837.2L2349 840.3V849.65V859H2337.5H2326V856.07C2326 851.49 2321.75 848.68 2315.67 849.26C2307.49 850.04 2307.5 850 2307.5 874.5C2307.5 898.38 2307.55 898.57 2314.26 899.66C2321.55 900.84 2326 898.1 2326 892.43V889H2337.5H2349V898.98V908.96L2345.25 910.84C2336.45 915.26 2330.84 916.44 2318.5 916.47C2309.47 916.49 2305.22 916.06 2301.35 914.7C2284.44 908.8 2277.8 897.46 2277.8 874.5C2277.81 854.82 2282.53 844.06 2293.98 837.63C2303.2 832.45 2315.33 830.86 2329 833.06ZM470 1216V1314H449.5H429V1216V1118H449.5H470V1216ZM2015 1148.5C2015 1165.28 2015.17 1179 2015.38 1179C2015.58 1179 2018.31 1177.87 2021.43 1176.49C2035.3 1170.36 2053.14 1167.65 2064.5 1169.97C2083.6 1173.86 2098.06 1189.2 2103.46 1211.31C2107.19 1226.58 2107.19 1251.37 2103.47 1266.69C2096.66 1294.68 2076.4 1311.93 2045.5 1316.06C2028.85 1318.29 2004.07 1316.17 1982 1310.63L1973.5 1308.5L1973.24 1213.25L1972.99 1118H1993.99H2015V1148.5ZM144 1128.3L154.5 1129.5L154.773 1148.38L155.045 1167.26L152.138 1166.68C131.391 1162.53 98.36 1161.31 88.57 1164.33C75.018 1168.51 69.835 1182.05 78.156 1191.53C81.951 1195.85 88.468 1197.91 109.987 1201.58C134.117 1205.7 145.047 1210.29 152.418 1219.38C160.302 1229.11 163.322 1239.35 163.357 1256.5C163.397 1275.96 159.209 1287.75 148.395 1298.61C134.525 1312.55 114.779 1317.84 81 1316.67C65.856 1316.14 40.673 1313.3 34.875 1311.46C33.131 1310.91 33 1309.58 33 1292.43C33 1282.3 33.37 1274 33.822 1274C34.274 1274 41.136 1275.1 49.072 1276.44C81.966 1281.99 97.477 1281.94 109 1276.23C115.386 1273.06 118.602 1268.84 119.578 1262.33C120.999 1252.85 115.895 1245.53 105.764 1242.52C102.869 1241.66 93.975 1239.85 86 1238.5C61.83 1234.41 52.857 1230.77 44.128 1221.54C34.997 1211.89 31.035 1200.38 31.035 1183.5C31.035 1163.06 37.576 1148.5 50.977 1139.1C60.008 1132.76 70.934 1128.92 86.5 1126.6C91.703 1125.83 133.039 1127.05 144 1128.3ZM1163.66 1127.56C1170.17 1128.42 1178.87 1129.9 1183 1130.85L1190.5 1132.57L1190.77 1150.92L1191.05 1169.26L1188.27 1168.68C1186.75 1168.36 1181.22 1167.19 1176 1166.09C1144.51 1159.43 1122.39 1162.65 1117.38 1174.64C1113.07 1184.96 1119.22 1198.02 1129.78 1200.96C1132.09 1201.6 1151.02 1201.99 1179.75 1201.99L1226 1202V1218.5V1235H1213.93C1202.91 1235 1201.91 1235.15 1202.38 1236.75C1202.67 1237.71 1207.88 1255.21 1213.95 1275.63C1220.03 1296.05 1225 1313.05 1225 1313.4C1225 1313.75 1216.13 1313.92 1205.29 1313.77L1185.58 1313.5L1183.34 1306.5C1182.11 1302.65 1181.08 1299.37 1181.05 1299.2C1181.02 1299.04 1178.94 1300.32 1176.43 1302.05C1163.72 1310.79 1147.48 1315.86 1129.47 1316.71C1097.9 1318.19 1073.16 1304.37 1066.01 1281.25C1058.61 1257.32 1067.16 1234.28 1088.27 1221.25L1094.11 1217.65L1088.92 1212.58C1075.09 1199.04 1069.67 1182.59 1073.44 1165.62C1076.52 1151.76 1085.48 1141.34 1100.75 1133.87C1116.23 1126.29 1137.67 1124.14 1163.66 1127.56ZM1511.5 1132.23C1530.91 1138.78 1542.25 1151.6 1545.16 1170.29C1547.92 1188.03 1539.78 1206.56 1525.05 1216.09L1522.6 1217.68L1529.4 1221.03C1538.28 1225.4 1544.36 1231.42 1548.31 1239.78C1551.43 1246.36 1551.5 1246.8 1551.46 1260.5C1551.42 1276.6 1550.07 1281.39 1542.86 1291C1534.62 1302 1523.11 1308.9 1507.7 1312.08C1499.47 1313.77 1493.77 1313.98 1453.75 1313.99L1409 1314V1221.45V1128.89L1456.25 1129.21L1503.5 1129.54L1511.5 1132.23ZM1452 1183.89V1203L1468.75 1202.99C1486.51 1202.99 1490.73 1202.33 1496.06 1198.74C1501.11 1195.34 1503.35 1190.73 1503.43 1183.6C1503.52 1175.69 1500.83 1171.11 1494.23 1167.91C1489.93 1165.82 1487.78 1165.57 1470.75 1165.2L1452 1164.78V1183.89ZM314.5 1171.47C332.24 1176.18 343.76 1186.6 349.2 1202.83C351.39 1209.34 351.45 1210.77 351.78 1261.77L352.11 1314.05L334.32 1313.77L316.52 1313.5L315.14 1307C314.38 1303.43 313.64 1300.37 313.5 1300.2C313.36 1300.04 311.23 1301.26 308.78 1302.91C281.057 1321.63 247.647 1319.75 233.671 1298.69C227.946 1290.07 226.5 1284.28 226.5 1270C226.5 1258.51 226.717 1257.04 229.203 1251.73C232.586 1244.51 240.801 1236.21 248 1232.72C258.533 1227.63 263.838 1226.77 287.857 1226.26L310.21 1225.78L309.82 1218.77C309.46 1212.4 309.14 1211.51 306.25 1208.93C301.3 1204.51 296.24 1203.48 280 1203.63C266.909 1203.75 255.736 1205.14 239.75 1208.63L237 1209.23V1192.2V1175.17L241.811 1174.13C246.496 1173.13 266.965 1170.42 276 1169.62C285.398 1168.77 308.56 1169.89 314.5 1171.47ZM636.14 1171.86C655.76 1177 669.63 1188.16 677.97 1205.5C682.84 1215.63 684.97 1224.4 685.69 1237.3C688.03 1278.96 668.3 1307.7 632.21 1315.19C619.64 1317.8 600.44 1317.27 589.02 1314.01C570.52 1308.71 557.44 1298.04 549.64 1281.86C543.62 1269.4 541.72 1260 541.75 1243C541.8 1223.41 545.05 1210.43 552.98 1198.16C562.55 1183.34 576.93 1174.28 596.83 1170.5C607.15 1168.54 625.96 1169.19 636.14 1171.86ZM855.36 1170.49C859.14 1171.29 864.16 1173.07 866.52 1174.46C872.41 1177.91 878.49 1185.1 881.22 1191.85C883.49 1197.48 883.5 1197.74 883.8 1255.75L884.09 1314H863.55H843V1265.15C843 1231.98 842.64 1215.28 841.89 1213.12C838.94 1204.64 824.55 1204.98 804.66 1214L798 1217.02V1265.51V1314H777.5H757V1243V1172H776H795V1179C795 1182.85 795.21 1186 795.48 1186C795.74 1186 800.12 1183.78 805.23 1181.07C826.32 1169.84 839.35 1167.1 855.36 1170.49ZM1703.5 1171.55C1713.49 1174.27 1720.13 1177.98 1726.56 1184.43C1729.89 1187.77 1733.65 1192.64 1734.9 1195.26C1740.25 1206.41 1740.29 1206.8 1740.74 1262.25L1741.16 1314H1723.21H1705.27L1703.99 1307.75C1703.28 1304.31 1702.52 1301.16 1702.29 1300.75C1702.06 1300.33 1699.99 1301.28 1697.69 1302.86C1676.51 1317.39 1651.19 1320.06 1634 1309.58C1623.27 1303.04 1617.02 1292.47 1614.91 1277.31C1612.25 1258.16 1620.73 1240.69 1636.44 1232.95C1647.47 1227.53 1651.6 1226.83 1676.25 1226.28L1699 1225.76V1220.33C1699 1210.83 1695.75 1207.18 1684.76 1204.35C1674.88 1201.8 1651.96 1203.56 1628.75 1208.63L1626 1209.23V1192.2V1175.17L1631 1174.09C1636.27 1172.96 1656.03 1170.33 1664.5 1169.64C1674.76 1168.79 1697.47 1169.9 1703.5 1171.55ZM2261.5 1171.49C2274.72 1174.95 2284.5 1181.61 2291.43 1191.86C2299.58 1203.92 2303 1218.94 2303 1242.72V1255H2258.48H2213.96L2214.57 1257.75C2216.8 1267.82 2221.02 1273.47 2228.82 1276.83C2234.5 1279.27 2244.18 1280.98 2252.37 1280.99C2261.89 1281.01 2283.86 1277.33 2297.77 1273.4L2300.05 1272.75L2299.77 1290.63L2299.5 1308.5L2290.5 1310.76C2271.7 1315.48 2264.26 1316.4 2244.5 1316.43C2229.57 1316.45 2224 1316.08 2218.53 1314.69C2202.74 1310.69 2188.84 1301.08 2181.59 1289.15C2174.04 1276.73 2170.26 1257.81 2171.28 1237.61C2172.42 1214.89 2178.27 1199.52 2190.39 1187.39C2200.06 1177.72 2211.03 1172.4 2226.48 1169.92C2233.81 1168.74 2254.55 1169.67 2261.5 1171.49ZM1907 1192.37V1213.74L1897.75 1215.87C1892.66 1217.04 1881.86 1220.1 1873.75 1222.67L1859 1227.35V1270.67V1314H1838.5H1818V1243V1172H1837.5H1857V1182.93V1193.86L1866.25 1187.56C1880.59 1177.79 1889.93 1173.53 1900.4 1172C1903.21 1171.59 1905.84 1171.19 1906.25 1171.13C1906.66 1171.06 1907 1180.62 1907 1192.37ZM2464 1192.36V1213.72L2452.75 1216.41C2446.56 1217.89 2435.87 1220.99 2429 1223.3L2416.5 1227.5L2416.24 1270.75L2415.98 1314H2395.49H2375V1243V1172H2394.5H2414V1182.98V1193.97L2424.75 1186.84C2437.18 1178.6 2445.25 1174.69 2453 1173.13C2460.32 1171.65 2462.35 1171.25 2463.25 1171.12C2463.66 1171.05 2464 1180.61 2464 1192.36ZM2232.09 1202.08C2223.09 1203.86 2215.49 1211.94 2214.27 1221L2213.74 1225H2237.37C2264.19 1225 2262.3 1225.75 2259.47 1216.23C2258.64 1213.41 2256.84 1209.77 2255.48 1208.16C2251.17 1203.04 2240.81 1200.34 2232.09 1202.08ZM601.89 1206.38C589.68 1210.74 584 1222.26 584 1242.66C584 1269.73 592.9 1281.42 613.5 1281.42C623.37 1281.42 628.11 1279.86 633.55 1274.85C638.95 1269.87 641.62 1263.58 642.98 1252.68C644.91 1237.16 641.96 1220.98 635.86 1213.62C630.87 1207.6 624.26 1205.01 614 1205.05C609.33 1205.07 603.87 1205.67 601.89 1206.38ZM2030.5 1206.9C2026.65 1207.94 2021.59 1209.57 2019.25 1210.51L2015 1212.22V1247.03V1281.84L2021.65 1282.55C2030.01 1283.45 2040.16 1282.6 2046 1280.52C2052.09 1278.35 2058.51 1271.82 2061.24 1265.03C2063.25 1260.05 2063.47 1257.75 2063.48 1241.98L2063.5 1224.46L2060.19 1217.74C2057.56 1212.4 2055.98 1210.49 2052.49 1208.44C2046.57 1204.97 2039.42 1204.47 2030.5 1206.9ZM1118.5 1236.87C1101.41 1244.65 1100.51 1269.11 1116.98 1278.37C1121.8 1281.08 1123.58 1281.49 1131.98 1281.83C1140.25 1282.16 1142.55 1281.86 1149.33 1279.59C1157.2 1276.95 1166.1 1271.92 1169.14 1268.4C1170.67 1266.62 1170.48 1265.48 1166.2 1250.75L1161.64 1235L1142.07 1235.02C1125.3 1235.04 1121.93 1235.31 1118.5 1236.87ZM1452 1258.49V1278.2L1473.25 1277.8C1496.98 1277.36 1499.3 1276.84 1504.7 1270.69C1508.2 1266.71 1509.62 1260.67 1508.7 1253.77C1507.96 1248.27 1505.38 1245 1499.45 1242.01C1494.73 1239.65 1493.5 1239.51 1473.25 1239.15L1452 1238.78V1258.49ZM277.534 1254.47C268.615 1256.86 265.055 1264.2 268.629 1272.82C271.35 1279.39 275.376 1281.5 285 1281.41C292.56 1281.34 296.55 1280.42 305.25 1276.76L310 1274.75V1263.88V1253L296.25 1253.07C288.167 1253.11 280.453 1253.68 277.534 1254.47ZM1666.65 1254.44C1660.21 1256.17 1656.91 1259.58 1656.28 1265.16C1655.3 1273.93 1660.4 1280.19 1669.66 1281.58C1674.75 1282.34 1686.61 1280.08 1693.84 1276.97L1699 1274.75V1263.88V1253L1685.25 1253.07C1677.33 1253.11 1669.45 1253.69 1666.65 1254.44Z" fill="white"/>
</g>
<ellipse id="dot" cx="202" cy="-63" rx="196" ry="192" fill="white"/>
</svg>
