<svg width="4117" height="2037" viewBox="0 0 4117 2037" fill="none" xmlns="http://www.w3.org/2000/svg">
<path fill-rule="evenodd" clip-rule="evenodd" d="M180.5 1.164C159.831 3.502 134.684 11.139 114.677 21.153C92.93 32.037 78.308 42.585 60.904 59.938C25.659 95.082 5.3 139.124 1.01 189.5C0.209 198.907 -0.0109997 430.35 0.214 1027C0.511 1818.21 0.597 1851.92 2.339 1861.98C7.966 1894.47 18.675 1921.67 35.82 1947C68.806 1995.74 120.733 2027.91 178.685 2035.5C188.788 2036.83 405.267 2037 2058.5 2037C3729.84 2037 3928.14 2036.84 3938.7 2035.47C3984.35 2029.55 4025.92 2008.53 4058.54 1974.86C4088.05 1944.4 4105.75 1909.8 4114.21 1866L4116.43 1854.5L4116.76 1026.5C4116.99 440.235 4116.77 195.143 4116.01 187C4111.37 137.49 4089.81 92.413 4054.27 57.898C4024.17 28.666 3989.6 10.938 3946 2.367C3936.75 0.549 3887.77 0.497 2062.5 0.38C950.119 0.308 185.249 0.627 180.5 1.164ZM3929.14 17.048C3995.39 23.749 4051.95 62.97 4081.04 122.385C4092.22 145.227 4098.3 168.466 4100.02 195C4101.29 214.572 4101.29 1822.43 4100.02 1842C4098.86 1859.86 4096.07 1874.69 4090.89 1890.44C4067.33 1962.23 4003.85 2012.95 3928.72 2020.03C3920.87 2020.76 3357.14 2020.99 2051 2020.76L184.5 2020.44L173.5 2018.27C132.771 2010.24 100.234 1993.24 72.497 1965.5C45.314 1938.32 28.83 1907.35 19.757 1866.42L17.557 1856.5L17.23 1025C16.99 414.126 17.201 190.979 18.027 184C25.745 118.75 65.797 62.696 124.978 34.323C143.107 25.632 166.766 19.042 186.768 17.112C200.117 15.825 3916.42 15.761 3929.14 17.048ZM194.5 90.053C166.298 92.806 141.438 105.121 121.309 126.311C112.359 135.734 107.023 143.602 100.924 156.37C94.853 169.079 91.33 182.219 90.029 197C88.629 212.916 88.626 1824.08 90.026 1839.9C92.718 1870.32 104.378 1894.67 126.309 1915.69C142.481 1931.18 159.773 1940.19 184 1945.72C191.065 1947.34 299.324 1947.45 2051 1947.76C3333.95 1947.98 3913.91 1947.76 3921.5 1947.04C3935.11 1945.75 3948.66 1942.19 3959.78 1936.98C3994.11 1920.89 4017.44 1891.04 4025.76 1852.56C4027.41 1844.93 4027.5 1799.99 4027.5 1018.5C4027.5 215.878 4027.45 192.259 4025.63 184C4019.91 157.957 4009.51 139.33 3990.58 121.232C3971.44 102.938 3948.71 92.669 3921.5 90.024C3909.38 88.846 206.571 88.875 194.5 90.053ZM1023.5 203.044C1080.6 209.562 1130.04 239.983 1162.54 288.593C1199.81 344.344 1204.33 419.669 1174.03 479.951C1141.11 545.413 1074.83 587 1003.41 587C973.622 587 947.435 581.017 920.301 568.01C837.227 528.19 794.471 434.833 817.937 344.5C835.76 275.89 891.379 222.1 960.629 206.501C979.136 202.332 1004.87 200.917 1023.5 203.044ZM1173.23 816.25C1173.49 1001.65 1173.58 1009.72 1175.36 1015C1178.58 1024.5 1182.06 1030.25 1188.38 1036.48C1198.32 1046.29 1209.56 1051 1223 1051C1245.57 1051 1265.76 1035.36 1271.47 1013.46C1272.82 1008.28 1273 984.78 1273 815.79V624H1444.5H1616L1616.25 810.152L1616.5 996.305L1652.4 898.902C1697.68 776.066 1699.11 772.431 1710.95 751C1751.67 677.232 1811.66 634.698 1889.3 624.543C1904.89 622.505 1937.12 622.504 1952.66 624.542C2011.55 632.262 2064.9 661.696 2102 706.929L2109.5 716.075L2109.76 669.537L2110.02 623H2280.99H2451.96L2452.23 816.75L2452.5 1010.5L2454.83 1017C2463.86 1042.22 2489.24 1056.04 2514.46 1049.47C2531.48 1045.04 2544.83 1031.25 2549.51 1013.3C2550.8 1008.33 2551 982.362 2551 815.29V623H2721.98H2892.96L2893.23 816.25C2893.49 1001.65 2893.58 1009.72 2895.36 1015C2898.58 1024.5 2902.06 1030.25 2908.38 1036.48C2918.32 1046.29 2929.56 1051 2943 1051C2967.29 1051 2988.59 1032.84 2992.35 1008.92C2992.95 1005.11 2993.8 1002 2994.23 1002C2994.66 1002 3005.65 1006.59 3018.65 1012.19L3042.29 1022.38L3041.64 1037.52C3036.92 1147.03 2987.25 1226.57 2904 1257.9L2893.5 1261.85L2893.26 1265.68C2891.75 1289.26 2887.68 1314.91 2881.97 1336.86C2856.87 1433.24 2790.34 1502.29 2690.54 1535.52C2653.39 1547.89 2615.07 1554.95 2568 1558.09C2545.84 1559.57 2486.15 1558.71 2461.5 1556.55C2411.23 1552.15 2363.04 1543.86 2318.37 1531.91C2285.55 1523.13 2237.77 1506.59 2237.21 1503.81C2236.91 1502.27 2263.81 1339.86 2264.48 1339.18C2264.71 1338.96 2269.08 1340.57 2274.19 1342.76C2304.67 1355.82 2344.84 1364.4 2387.26 1366.93C2420.61 1368.91 2449.12 1364.01 2472.5 1352.25C2516.98 1329.89 2544.3 1285.14 2549.97 1225.36C2550.53 1219.39 2551 1205.12 2551 1193.66L2551 1172.82L2546.81 1178.16C2539.69 1187.22 2520.01 1206.81 2509.5 1215.3C2454.26 1259.91 2381.39 1278.41 2311.7 1265.51C2214 1247.44 2137.17 1172.85 2115.55 1075.11C2110.79 1053.6 2110.7 1051.76 2110.08 963.5C2109.51 880.486 2109.47 879.438 2107.35 874.255C2103.77 865.528 2100.39 860.578 2093.96 854.624C2077.28 839.181 2054.9 836.662 2033.5 847.82C2020.69 854.498 2005.65 871.73 1996.23 890.51C1994.57 893.816 1975.4 940.478 1953.64 994.204C1931.87 1047.93 1911.8 1096.95 1909.03 1103.14C1891.2 1142.95 1865.33 1179.07 1837.52 1202.94C1794.03 1240.27 1743.87 1258.77 1674.5 1263.05C1662.76 1263.78 1628.52 1264.02 1576 1263.74C1489.25 1263.28 1486.88 1263.16 1462 1257.54C1409.52 1245.7 1362.29 1217.1 1328.18 1176.5C1319.81 1166.53 1304.84 1144.27 1301.08 1136.2C1299.75 1133.34 1298.4 1131.01 1298.08 1131.01C1297.76 1131.02 1295.7 1134.47 1293.5 1138.68C1291.3 1142.9 1286.1 1151.56 1281.94 1157.92C1248.22 1209.54 1197.16 1246.44 1138.5 1261.58C1059.98 1281.84 977.998 1262.67 916.323 1209.61C876.518 1175.37 848.142 1127.53 836.546 1075.11C831.327 1051.51 831.602 1064.01 831.267 835.25L830.955 623H1001.96H1172.96L1173.23 816.25ZM3137.31 1245.43C3175.52 1256.7 3201 1290.73 3201 1330.5C3201 1381.89 3158.78 1421.74 3107.57 1418.68C3069.73 1416.42 3038 1390.07 3027.88 1352.5C3026.15 1346.1 3025.72 1341.7 3025.72 1330.5C3025.72 1319.3 3026.15 1314.9 3027.88 1308.5C3036.71 1275.71 3062.34 1251.04 3095 1243.87C3107.19 1241.2 3125.21 1241.86 3137.31 1245.43ZM3098.07 1272.53C3072.3 1279.74 3053.85 1303.42 3053.67 1329.5C3053.55 1347.21 3058.83 1360.05 3071.39 1372.59C3083.84 1385.01 3095.95 1390 3113.66 1390C3147.75 1390 3174.83 1361.08 3172.66 1327C3171.14 1303.12 3155.15 1281.89 3132.72 1273.97C3124.49 1271.06 3106.07 1270.3 3098.07 1272.53ZM3125 1289.06C3128.57 1289.63 3134.54 1291.5 3138.25 1293.2L3145 1296.3V1305.65V1315H3133.5H3122V1312.07C3122 1307.49 3117.75 1304.68 3111.67 1305.26C3103.49 1306.04 3103.5 1306 3103.5 1330.5C3103.5 1354.38 3103.55 1354.57 3110.26 1355.66C3117.55 1356.84 3122 1354.09 3122 1348.43V1345H3133.5H3145V1354.98V1364.96L3141.25 1366.84C3132.45 1371.26 3126.84 1372.44 3114.5 1372.47C3105.47 1372.49 3101.22 1372.06 3097.35 1370.7C3080.44 1364.8 3073.8 1353.46 3073.8 1330.5C3073.81 1310.82 3078.53 1300.06 3089.98 1293.63C3099.2 1288.45 3111.33 1286.86 3125 1289.06ZM1266 1672V1770H1245.5H1225V1672V1574H1245.5H1266V1672ZM2811 1604.5C2811 1621.28 2811.17 1635 2811.38 1635C2811.58 1635 2814.31 1633.87 2817.43 1632.49C2831.3 1626.36 2849.14 1623.65 2860.5 1625.97C2879.6 1629.86 2894.06 1645.2 2899.46 1667.31C2903.19 1682.58 2903.19 1707.37 2899.47 1722.69C2892.66 1750.68 2872.4 1767.93 2841.5 1772.06C2824.85 1774.29 2800.07 1772.17 2778 1766.63L2769.5 1764.5L2769.25 1669.25L2768.99 1574H2790H2811V1604.5ZM940 1584.3L950.5 1585.5L950.773 1604.38L951.045 1623.26L948.138 1622.68C927.391 1618.53 894.36 1617.31 884.57 1620.33C871.018 1624.51 865.835 1638.05 874.156 1647.53C877.951 1651.85 884.468 1653.91 905.987 1657.58C930.117 1661.7 941.047 1666.29 948.418 1675.38C956.302 1685.11 959.322 1695.35 959.357 1712.5C959.397 1731.96 955.209 1743.75 944.395 1754.61C930.525 1768.55 910.779 1773.84 877 1772.67C861.856 1772.14 836.673 1769.3 830.875 1767.46C829.131 1766.91 829 1765.58 829 1748.43C829 1738.3 829.37 1730 829.822 1730C830.274 1730 837.136 1731.1 845.072 1732.44C877.966 1737.99 893.477 1737.94 905 1732.23C911.386 1729.06 914.602 1724.84 915.578 1718.33C916.999 1708.85 911.895 1701.53 901.764 1698.52C898.869 1697.66 889.975 1695.85 882 1694.5C857.83 1690.41 848.857 1686.77 840.128 1677.54C830.997 1667.89 827.035 1656.38 827.035 1639.5C827.035 1619.06 833.576 1604.5 846.977 1595.1C856.008 1588.76 866.934 1584.92 882.5 1582.6C887.703 1581.83 929.039 1583.05 940 1584.3ZM1959.66 1583.56C1966.17 1584.42 1974.88 1585.9 1979 1586.85L1986.5 1588.57L1986.77 1606.92L1987.05 1625.26L1984.27 1624.68C1982.75 1624.36 1977.23 1623.19 1972 1622.09C1940.51 1615.43 1918.39 1618.65 1913.38 1630.64C1909.07 1640.96 1915.23 1654.02 1925.78 1656.96C1928.09 1657.6 1947.02 1657.99 1975.75 1657.99L2022 1658V1674.5V1691H2009.93C1998.91 1691 1997.91 1691.15 1998.39 1692.75C1998.67 1693.71 2003.88 1711.21 2009.95 1731.63C2016.03 1752.05 2021 1769.05 2021 1769.4C2021 1769.75 2012.13 1769.92 2001.29 1769.77L1981.58 1769.5L1979.34 1762.5C1978.11 1758.65 1977.08 1755.37 1977.05 1755.2C1977.02 1755.04 1974.94 1756.32 1972.43 1758.05C1959.72 1766.79 1943.48 1771.86 1925.47 1772.71C1893.9 1774.19 1869.16 1760.37 1862.01 1737.25C1854.61 1713.32 1863.16 1690.28 1884.27 1677.25L1890.11 1673.65L1884.92 1668.57C1871.09 1655.04 1865.67 1638.59 1869.44 1621.62C1872.52 1607.76 1881.48 1597.34 1896.75 1589.87C1912.23 1582.29 1933.67 1580.14 1959.66 1583.56ZM2307.5 1588.23C2326.91 1594.78 2338.25 1607.6 2341.16 1626.29C2343.92 1644.03 2335.78 1662.56 2321.05 1672.09L2318.6 1673.68L2325.4 1677.03C2334.28 1681.4 2340.36 1687.42 2344.31 1695.78C2347.43 1702.36 2347.5 1702.8 2347.46 1716.5C2347.42 1732.6 2346.07 1737.39 2338.86 1747C2330.62 1758 2319.11 1764.9 2303.7 1768.08C2295.47 1769.77 2289.77 1769.98 2249.75 1769.99L2205 1770V1677.45V1584.89L2252.25 1585.21L2299.5 1585.54L2307.5 1588.23ZM2248 1639.89V1659L2264.75 1658.99C2282.51 1658.99 2286.73 1658.33 2292.06 1654.74C2297.11 1651.34 2299.35 1646.73 2299.43 1639.6C2299.52 1631.69 2296.83 1627.11 2290.23 1623.91C2285.93 1621.82 2283.78 1621.57 2266.75 1621.2L2248 1620.78V1639.89ZM1110.5 1627.47C1128.24 1632.18 1139.76 1642.6 1145.2 1658.83C1147.39 1665.34 1147.45 1666.77 1147.78 1717.77L1148.11 1770.05L1130.32 1769.77L1112.52 1769.5L1111.14 1763C1110.38 1759.43 1109.64 1756.37 1109.5 1756.2C1109.36 1756.04 1107.23 1757.26 1104.78 1758.91C1077.06 1777.63 1043.65 1775.75 1029.67 1754.69C1023.95 1746.07 1022.5 1740.28 1022.5 1726C1022.5 1714.51 1022.72 1713.04 1025.2 1707.73C1028.59 1700.51 1036.8 1692.21 1044 1688.72C1054.53 1683.63 1059.84 1682.77 1083.86 1682.26L1106.21 1681.78L1105.82 1674.77C1105.46 1668.4 1105.14 1667.51 1102.25 1664.93C1097.3 1660.51 1092.24 1659.48 1076 1659.63C1062.91 1659.75 1051.74 1661.14 1035.75 1664.63L1033 1665.23V1648.2V1631.17L1037.81 1630.13C1042.5 1629.13 1062.97 1626.42 1072 1625.62C1081.4 1624.77 1104.56 1625.89 1110.5 1627.47ZM1432.14 1627.86C1451.76 1633 1465.63 1644.16 1473.96 1661.5C1478.83 1671.63 1480.97 1680.4 1481.69 1693.3C1484.03 1734.96 1464.3 1763.7 1428.21 1771.19C1415.64 1773.8 1396.44 1773.27 1385.02 1770.01C1366.52 1764.71 1353.44 1754.04 1345.64 1737.86C1339.62 1725.4 1337.72 1716 1337.75 1699C1337.8 1679.41 1341.04 1666.43 1348.98 1654.16C1358.55 1639.34 1372.93 1630.28 1392.83 1626.5C1403.15 1624.54 1421.96 1625.19 1432.14 1627.86ZM1651.36 1626.49C1655.14 1627.29 1660.16 1629.07 1662.52 1630.46C1668.41 1633.91 1674.49 1641.1 1677.22 1647.85C1679.49 1653.48 1679.5 1653.74 1679.8 1711.75L1680.09 1770H1659.55H1639V1721.15C1639 1687.98 1638.64 1671.28 1637.89 1669.12C1634.94 1660.64 1620.55 1660.98 1600.66 1670L1594 1673.02V1721.51V1770H1573.5H1553V1699V1628H1572H1591V1635C1591 1638.85 1591.21 1642 1591.47 1642C1591.74 1642 1596.12 1639.78 1601.22 1637.06C1622.32 1625.84 1635.35 1623.1 1651.36 1626.49ZM2499.5 1627.55C2509.49 1630.27 2516.13 1633.98 2522.56 1640.43C2525.89 1643.77 2529.65 1648.64 2530.9 1651.26C2536.25 1662.41 2536.29 1662.8 2536.74 1718.25L2537.16 1770H2519.21H2501.27L2499.99 1763.75C2499.28 1760.31 2498.52 1757.16 2498.29 1756.75C2498.06 1756.33 2495.99 1757.28 2493.69 1758.86C2472.51 1773.39 2447.19 1776.06 2430 1765.58C2419.27 1759.04 2413.02 1748.47 2410.91 1733.31C2408.25 1714.16 2416.73 1696.69 2432.44 1688.95C2443.47 1683.53 2447.6 1682.83 2472.25 1682.28L2495 1681.76V1676.33C2495 1666.83 2491.75 1663.18 2480.76 1660.35C2470.88 1657.8 2447.96 1659.56 2424.75 1664.63L2422 1665.23V1648.2V1631.17L2427 1630.09C2432.27 1628.96 2452.03 1626.33 2460.5 1625.64C2470.76 1624.79 2493.47 1625.9 2499.5 1627.55ZM3057.5 1627.49C3070.72 1630.95 3080.5 1637.61 3087.43 1647.86C3095.58 1659.92 3099 1674.94 3099 1698.72V1711H3054.48H3009.96L3010.57 1713.75C3012.8 1723.82 3017.02 1729.47 3024.82 1732.83C3030.5 1735.27 3040.18 1736.98 3048.37 1736.99C3057.89 1737 3079.86 1733.33 3093.77 1729.4L3096.05 1728.75L3095.77 1746.63L3095.5 1764.5L3086.5 1766.76C3067.7 1771.48 3060.26 1772.4 3040.5 1772.43C3025.57 1772.45 3020 1772.08 3014.53 1770.69C2998.74 1766.69 2984.84 1757.08 2977.59 1745.15C2970.04 1732.73 2966.26 1713.81 2967.28 1693.61C2968.42 1670.89 2974.27 1655.52 2986.39 1643.39C2996.06 1633.72 3007.03 1628.4 3022.48 1625.92C3029.81 1624.74 3050.55 1625.67 3057.5 1627.49ZM2703 1648.37V1669.74L2693.75 1671.87C2688.66 1673.04 2677.86 1676.1 2669.75 1678.67L2655 1683.35V1726.67V1770H2634.5H2614V1699V1628H2633.5H2653V1638.93V1649.86L2662.25 1643.56C2676.59 1633.79 2685.93 1629.53 2696.4 1628C2699.21 1627.59 2701.84 1627.19 2702.25 1627.13C2702.66 1627.06 2703 1636.62 2703 1648.37ZM3260 1648.36V1669.72L3248.75 1672.41C3242.56 1673.89 3231.87 1676.99 3225 1679.3L3212.5 1683.5L3212.24 1726.75L3211.98 1770H3191.49H3171V1699V1628H3190.5H3210V1638.98V1649.97L3220.75 1642.84C3233.18 1634.6 3241.25 1630.69 3249 1629.13C3256.32 1627.65 3258.35 1627.25 3259.25 1627.12C3259.66 1627.05 3260 1636.61 3260 1648.36ZM3028.09 1658.07C3019.09 1659.86 3011.49 1667.94 3010.27 1677L3009.74 1681H3033.37C3060.19 1681 3058.3 1681.75 3055.47 1672.23C3054.64 1669.41 3052.84 1665.77 3051.48 1664.16C3047.17 1659.04 3036.81 1656.34 3028.09 1658.07ZM1397.89 1662.38C1385.68 1666.74 1380 1678.26 1380 1698.66C1380 1725.73 1388.9 1737.42 1409.5 1737.42C1419.37 1737.42 1424.11 1735.86 1429.55 1730.85C1434.95 1725.87 1437.62 1719.58 1438.98 1708.68C1440.91 1693.16 1437.96 1676.98 1431.86 1669.62C1426.87 1663.6 1420.26 1661.01 1410 1661.05C1405.33 1661.07 1399.87 1661.67 1397.89 1662.38ZM2826.5 1662.9C2822.65 1663.94 2817.59 1665.57 2815.25 1666.51L2811 1668.22V1703.03V1737.84L2817.65 1738.55C2826.01 1739.45 2836.16 1738.6 2842 1736.52C2848.09 1734.35 2854.51 1727.82 2857.25 1721.03C2859.25 1716.05 2859.47 1713.75 2859.49 1697.98L2859.5 1680.46L2856.19 1673.74C2853.56 1668.4 2851.98 1666.48 2848.49 1664.44C2842.57 1660.97 2835.42 1660.47 2826.5 1662.9ZM1914.5 1692.87C1897.41 1700.65 1896.51 1725.11 1912.97 1734.37C1917.8 1737.08 1919.58 1737.49 1927.98 1737.83C1936.25 1738.16 1938.55 1737.86 1945.33 1735.59C1953.2 1732.95 1962.1 1727.92 1965.14 1724.4C1966.67 1722.62 1966.48 1721.48 1962.2 1706.75L1957.64 1691L1938.07 1691.02C1921.3 1691.04 1917.93 1691.31 1914.5 1692.87ZM2248 1714.49V1734.2L2269.25 1733.8C2292.98 1733.36 2295.3 1732.84 2300.7 1726.69C2304.2 1722.71 2305.62 1716.67 2304.7 1709.77C2303.96 1704.27 2301.38 1701 2295.45 1698.01C2290.73 1695.65 2289.5 1695.51 2269.25 1695.15L2248 1694.78V1714.49ZM1073.53 1710.47C1064.62 1712.86 1061.06 1720.2 1064.63 1728.82C1067.35 1735.39 1071.38 1737.5 1081 1737.41C1088.56 1737.34 1092.55 1736.42 1101.25 1732.76L1106 1730.75V1719.88V1709L1092.25 1709.07C1084.17 1709.11 1076.45 1709.68 1073.53 1710.47ZM2462.65 1710.44C2456.21 1712.17 2452.91 1715.58 2452.28 1721.16C2451.3 1729.93 2456.4 1736.19 2465.66 1737.58C2470.75 1738.34 2482.61 1736.08 2489.84 1732.97L2495 1730.75V1719.88V1709L2481.25 1709.07C2473.33 1709.11 2465.45 1709.69 2462.65 1710.44Z" fill="black"/>
</svg>
