<svg width="795" height="402" viewBox="0 0 795 402" fill="none" xmlns="http://www.w3.org/2000/svg">
<rect id="background" x="-517" y="-92" width="3936" height="1857" rx="107" fill="#006229"/>
<g id="Mask Group">
<mask id="mask0_0_1" style="mask-type:alpha" maskUnits="userSpaceOnUse" x="203" y="21" width="2449" height="1571">
<path id="mask" fill-rule="evenodd" clip-rule="evenodd" d="M415.5 22.0441C472.595 28.5621 522.037 58.983 554.537 107.593C591.812 163.344 596.334 238.669 566.025 298.951C533.111 364.413 466.83 406 395.409 406C365.622 406 339.435 400.017 312.301 387.01C229.227 347.19 186.471 253.833 209.937 163.5C227.76 94.8901 283.379 41.1 352.629 25.501C371.136 21.332 396.869 19.9171 415.5 22.0441ZM565.231 635.25C565.49 820.654 565.577 828.723 567.362 834C570.577 843.501 574.058 849.246 580.379 855.481C590.323 865.289 601.556 870 615 870C637.572 870 657.764 854.36 663.469 832.458C664.818 827.279 665 803.78 665 634.79V443H836.497H1008L1008.25 629.152L1008.5 815.305L1044.4 717.902C1089.68 595.066 1091.11 591.431 1102.95 570C1143.67 496.232 1203.66 453.698 1281.3 443.543C1296.89 441.505 1329.12 441.504 1344.66 443.542C1403.55 451.262 1456.9 480.696 1494 525.929L1501.5 535.075L1501.76 488.537L1502.02 442H1672.99H1843.96L1844.23 635.75L1844.5 829.5L1846.83 836C1855.86 861.22 1881.24 875.037 1906.46 868.467C1923.48 864.036 1936.83 850.248 1941.51 832.297C1942.8 827.33 1943 801.362 1943 634.29V442H2113.98H2284.96L2285.23 635.25C2285.49 820.654 2285.58 828.723 2287.36 834C2290.58 843.501 2294.06 849.246 2300.38 855.481C2310.32 865.289 2321.56 870 2335 870C2359.29 870 2380.59 851.845 2384.35 827.92C2384.95 824.114 2385.8 821 2386.23 821C2386.66 821 2397.65 825.587 2410.65 831.193L2434.29 841.385L2433.64 856.516C2428.92 966.031 2379.25 1045.57 2296 1076.9L2285.5 1080.85L2285.26 1084.68C2283.75 1108.26 2279.68 1133.91 2273.97 1155.86C2248.87 1252.24 2182.34 1321.29 2082.54 1354.52C2045.39 1366.89 2007.07 1373.95 1960 1377.09C1937.84 1378.57 1878.15 1377.71 1853.5 1375.55C1803.23 1371.15 1755.04 1362.86 1710.37 1350.91C1677.55 1342.13 1629.77 1325.59 1629.21 1322.81C1628.9 1321.27 1655.81 1158.86 1656.48 1158.18C1656.71 1157.96 1661.08 1159.57 1666.19 1161.76C1696.67 1174.82 1736.84 1183.4 1779.26 1185.93C1812.61 1187.92 1841.12 1183.01 1864.5 1171.25C1908.98 1148.89 1936.3 1104.14 1941.97 1044.36C1942.53 1038.39 1943 1024.12 1943 1012.66L1943 991.82L1938.81 997.16C1931.69 1006.22 1912.01 1025.81 1901.5 1034.3C1846.26 1078.91 1773.39 1097.41 1703.7 1084.51C1606 1066.44 1529.17 991.848 1507.55 894.105C1502.79 872.597 1502.7 870.756 1502.08 782.5C1501.51 699.486 1501.47 698.438 1499.35 693.255C1495.77 684.528 1492.39 679.578 1485.96 673.624C1469.28 658.181 1446.9 655.662 1425.5 666.82C1412.69 673.498 1397.65 690.73 1388.23 709.51C1386.57 712.816 1367.4 759.478 1345.64 813.204C1323.87 866.93 1303.8 915.949 1301.03 922.135C1283.2 961.949 1257.33 998.068 1229.52 1021.94C1186.03 1059.27 1135.87 1077.77 1066.5 1082.05C1054.76 1082.78 1020.52 1083.02 968 1082.74C881.247 1082.28 878.882 1082.16 854 1076.54C801.521 1064.7 754.293 1036.1 720.18 995.5C711.807 985.533 696.838 963.274 693.079 955.2C691.748 952.34 690.398 950.005 690.079 950.011C689.761 950.017 687.7 953.469 685.5 957.683C683.3 961.897 678.097 970.555 673.938 976.922C640.221 1028.54 589.157 1065.44 530.5 1080.58C451.977 1100.84 369.998 1081.67 308.323 1028.61C268.518 994.368 240.142 946.526 228.546 894.105C223.327 870.512 223.602 883.01 223.267 654.25L222.955 442H393.958H564.961L565.231 635.25ZM2529.31 1064.43C2567.52 1075.7 2593 1109.73 2593 1149.5C2593 1200.89 2550.78 1240.74 2499.57 1237.68C2461.73 1235.42 2430 1209.07 2419.88 1171.5C2418.15 1165.1 2417.72 1160.7 2417.72 1149.5C2417.72 1138.3 2418.15 1133.9 2419.88 1127.5C2428.71 1094.71 2454.34 1070.04 2487 1062.87C2499.19 1060.19 2517.21 1060.86 2529.31 1064.43ZM2490.07 1091.53C2464.3 1098.74 2445.85 1122.42 2445.67 1148.5C2445.55 1166.21 2450.83 1179.05 2463.39 1191.59C2475.84 1204.01 2487.95 1209 2505.66 1209C2539.75 1209 2566.83 1180.08 2564.66 1146C2563.14 1122.12 2547.15 1100.89 2524.72 1092.97C2516.49 1090.06 2498.07 1089.3 2490.07 1091.53ZM2517 1108.06C2520.57 1108.63 2526.54 1110.5 2530.25 1112.2L2537 1115.3V1124.65V1134H2525.5H2514V1131.07C2514 1126.49 2509.75 1123.68 2503.67 1124.26C2495.49 1125.04 2495.5 1125 2495.5 1149.5C2495.5 1173.38 2495.55 1173.57 2502.26 1174.66C2509.55 1175.84 2514 1173.1 2514 1167.43V1164H2525.5H2537V1173.98V1183.96L2533.25 1185.84C2524.45 1190.26 2518.84 1191.44 2506.5 1191.47C2497.47 1191.49 2493.22 1191.06 2489.35 1189.7C2472.44 1183.8 2465.8 1172.46 2465.8 1149.5C2465.81 1129.82 2470.53 1119.06 2481.98 1112.63C2491.2 1107.45 2503.33 1105.86 2517 1108.06ZM658 1491V1589H637.5H617V1491V1393H637.5H658V1491ZM2203 1423.5C2203 1440.28 2203.17 1454 2203.38 1454C2203.58 1454 2206.31 1452.87 2209.43 1451.49C2223.3 1445.36 2241.14 1442.65 2252.5 1444.97C2271.6 1448.86 2286.06 1464.2 2291.46 1486.31C2295.19 1501.58 2295.19 1526.37 2291.47 1541.69C2284.66 1569.68 2264.4 1586.93 2233.5 1591.06C2216.85 1593.29 2192.07 1591.17 2170 1585.63L2161.5 1583.5L2161.24 1488.25L2160.99 1393H2181.99H2203V1423.5ZM332 1403.3L342.5 1404.5L342.773 1423.38L343.045 1442.26L340.138 1441.68C319.391 1437.53 286.36 1436.31 276.57 1439.33C263.018 1443.51 257.835 1457.05 266.156 1466.53C269.951 1470.85 276.468 1472.91 297.987 1476.58C322.117 1480.7 333.047 1485.29 340.418 1494.38C348.302 1504.11 351.322 1514.35 351.357 1531.5C351.397 1550.96 347.209 1562.75 336.395 1573.61C322.525 1587.55 302.779 1592.84 269 1591.67C253.856 1591.14 228.673 1588.3 222.875 1586.46C221.131 1585.91 221 1584.58 221 1567.43C221 1557.29 221.37 1549 221.822 1549C222.274 1549 229.136 1550.1 237.072 1551.44C269.966 1556.99 285.477 1556.93 297 1551.22C303.386 1548.06 306.602 1543.84 307.578 1537.33C308.999 1527.85 303.895 1520.53 293.764 1517.52C290.869 1516.66 281.975 1514.85 274 1513.5C249.83 1509.41 240.857 1505.77 232.128 1496.54C222.997 1486.89 219.035 1475.38 219.035 1458.5C219.035 1438.06 225.576 1423.5 238.977 1414.1C248.008 1407.76 258.934 1403.92 274.5 1401.6C279.703 1400.83 321.039 1402.05 332 1403.3ZM1351.66 1402.56C1358.17 1403.42 1366.88 1404.9 1371 1405.85L1378.5 1407.57L1378.77 1425.92L1379.05 1444.26L1376.27 1443.68C1374.75 1443.36 1369.22 1442.19 1364 1441.09C1332.51 1434.43 1310.39 1437.65 1305.38 1449.64C1301.07 1459.96 1307.23 1473.02 1317.78 1475.96C1320.09 1476.6 1339.02 1476.99 1367.75 1476.99L1414 1477V1493.5V1510H1401.93C1390.91 1510 1389.91 1510.15 1390.39 1511.75C1390.67 1512.71 1395.88 1530.21 1401.95 1550.63C1408.03 1571.05 1413 1588.05 1413 1588.4C1413 1588.75 1404.13 1588.92 1393.29 1588.77L1373.58 1588.5L1371.34 1581.5C1370.11 1577.65 1369.08 1574.37 1369.05 1574.2C1369.02 1574.04 1366.94 1575.32 1364.43 1577.05C1351.72 1585.79 1335.48 1590.86 1317.47 1591.71C1285.9 1593.19 1261.16 1579.37 1254.01 1556.25C1246.61 1532.32 1255.16 1509.28 1276.27 1496.25L1282.11 1492.65L1276.92 1487.58C1263.09 1474.04 1257.67 1457.59 1261.44 1440.62C1264.52 1426.76 1273.48 1416.34 1288.75 1408.87C1304.23 1401.29 1325.67 1399.14 1351.66 1402.56ZM1699.5 1407.23C1718.91 1413.78 1730.25 1426.6 1733.16 1445.29C1735.92 1463.03 1727.78 1481.56 1713.05 1491.09L1710.6 1492.68L1717.4 1496.03C1726.28 1500.4 1732.36 1506.42 1736.31 1514.78C1739.43 1521.36 1739.5 1521.8 1739.46 1535.5C1739.42 1551.6 1738.07 1556.39 1730.86 1566C1722.62 1577 1711.11 1583.9 1695.7 1587.08C1687.47 1588.77 1681.77 1588.98 1641.75 1588.99L1597 1589V1496.45V1403.89L1644.25 1404.21L1691.5 1404.54L1699.5 1407.23ZM1640 1458.89V1478L1656.75 1477.99C1674.51 1477.99 1678.73 1477.33 1684.06 1473.74C1689.11 1470.34 1691.35 1465.73 1691.43 1458.6C1691.52 1450.69 1688.83 1446.11 1682.23 1442.91C1677.93 1440.82 1675.78 1440.57 1658.75 1440.2L1640 1439.78V1458.89ZM502.5 1446.47C520.236 1451.18 531.764 1461.6 537.203 1477.83C539.385 1484.34 539.448 1485.77 539.777 1536.77L540.114 1589.05L522.317 1588.77L504.52 1588.5L503.139 1582C502.38 1578.43 501.641 1575.37 501.499 1575.2C501.356 1575.04 499.234 1576.26 496.782 1577.91C469.057 1596.63 435.647 1594.75 421.671 1573.69C415.946 1565.07 414.5 1559.28 414.5 1545C414.5 1533.51 414.717 1532.04 417.203 1526.73C420.586 1519.51 428.801 1511.21 436 1507.72C446.533 1502.63 451.838 1501.77 475.857 1501.26L498.213 1500.78L497.817 1493.77C497.457 1487.4 497.135 1486.51 494.25 1483.93C489.296 1479.51 484.241 1478.48 468 1478.63C454.909 1478.75 443.736 1480.14 427.75 1483.63L425 1484.23V1467.2V1450.17L429.811 1449.13C434.496 1448.13 454.965 1445.42 464 1444.62C473.398 1443.77 496.556 1444.89 502.5 1446.47ZM824.144 1446.86C843.761 1452 857.628 1463.16 865.965 1480.5C870.835 1490.63 872.966 1499.4 873.691 1512.3C876.031 1553.96 856.297 1582.7 820.214 1590.19C807.635 1592.8 788.436 1592.27 777.016 1589.01C758.518 1583.71 745.44 1573.04 737.636 1556.86C731.624 1544.4 729.717 1535 729.754 1518C729.796 1498.41 733.045 1485.43 740.976 1473.16C750.552 1458.34 764.925 1449.28 784.834 1445.5C795.148 1443.54 813.962 1444.19 824.144 1446.86ZM1043.36 1445.49C1047.14 1446.29 1052.16 1448.07 1054.52 1449.46C1060.41 1452.91 1066.49 1460.1 1069.22 1466.85C1071.49 1472.48 1071.5 1472.74 1071.8 1530.75L1072.09 1589H1051.55H1031V1540.15C1031 1506.98 1030.64 1490.28 1029.89 1488.12C1026.94 1479.64 1012.55 1479.98 992.656 1489L986 1492.02V1540.51V1589H965.5H945V1518V1447H964H983V1454C983 1457.85 983.214 1461 983.475 1461C983.737 1461 988.124 1458.78 993.225 1456.07C1014.32 1444.84 1027.35 1442.1 1043.36 1445.49ZM1891.5 1446.55C1901.49 1449.27 1908.13 1452.98 1914.56 1459.43C1917.89 1462.77 1921.65 1467.64 1922.9 1470.26C1928.25 1481.41 1928.29 1481.8 1928.74 1537.25L1929.16 1589H1911.21H1893.27L1891.99 1582.75C1891.28 1579.31 1890.52 1576.16 1890.29 1575.74C1890.06 1575.33 1887.99 1576.28 1885.69 1577.86C1864.51 1592.39 1839.19 1595.06 1822 1584.58C1811.27 1578.04 1805.02 1567.47 1802.91 1552.31C1800.25 1533.16 1808.73 1515.69 1824.44 1507.95C1835.47 1502.53 1839.6 1501.83 1864.25 1501.28L1887 1500.76V1495.33C1887 1485.83 1883.75 1482.18 1872.76 1479.35C1862.88 1476.8 1839.96 1478.56 1816.75 1483.63L1814 1484.23V1467.2V1450.17L1819 1449.09C1824.27 1447.96 1844.03 1445.33 1852.5 1444.64C1862.76 1443.79 1885.47 1444.9 1891.5 1446.55ZM2449.5 1446.49C2462.72 1449.95 2472.5 1456.61 2479.43 1466.86C2487.58 1478.92 2491 1493.94 2491 1517.72V1530H2446.48H2401.96L2402.57 1532.75C2404.8 1542.82 2409.02 1548.47 2416.82 1551.83C2422.5 1554.27 2432.18 1555.98 2440.37 1555.99C2449.89 1556.01 2471.86 1552.33 2485.77 1548.4L2488.05 1547.75L2487.77 1565.63L2487.5 1583.5L2478.5 1585.76C2459.7 1590.48 2452.26 1591.4 2432.5 1591.43C2417.57 1591.45 2412 1591.08 2406.53 1589.69C2390.74 1585.69 2376.84 1576.08 2369.59 1564.15C2362.04 1551.73 2358.26 1532.81 2359.28 1512.61C2360.42 1489.89 2366.27 1474.52 2378.39 1462.39C2388.06 1452.72 2399.03 1447.4 2414.48 1444.92C2421.81 1443.74 2442.55 1444.67 2449.5 1446.49ZM2095 1467.37V1488.74L2085.75 1490.87C2080.66 1492.04 2069.86 1495.1 2061.75 1497.67L2047 1502.35V1545.67V1589H2026.5H2006V1518V1447H2025.5H2045V1457.93V1468.86L2054.25 1462.56C2068.59 1452.79 2077.93 1448.53 2088.4 1447C2091.21 1446.59 2093.84 1446.19 2094.25 1446.13C2094.66 1446.06 2095 1455.62 2095 1467.37ZM2652 1467.36V1488.72L2640.75 1491.41C2634.56 1492.89 2623.87 1495.99 2617 1498.3L2604.5 1502.5L2604.24 1545.75L2603.98 1589H2583.49H2563V1518V1447H2582.5H2602V1457.98V1468.97L2612.75 1461.84C2625.18 1453.6 2633.25 1449.69 2641 1448.13C2648.32 1446.65 2650.35 1446.25 2651.25 1446.12C2651.66 1446.05 2652 1455.61 2652 1467.36ZM2420.09 1477.08C2411.09 1478.86 2403.49 1486.94 2402.27 1496L2401.74 1500H2425.37C2452.19 1500 2450.3 1500.75 2447.47 1491.23C2446.64 1488.41 2444.84 1484.77 2443.48 1483.16C2439.17 1478.04 2428.81 1475.34 2420.09 1477.08ZM789.885 1481.38C777.676 1485.74 772 1497.26 772 1517.66C772 1544.73 780.898 1556.42 801.5 1556.42C811.374 1556.42 816.108 1554.86 821.553 1549.85C826.946 1544.87 829.624 1538.58 830.977 1527.68C832.906 1512.16 829.957 1495.98 823.857 1488.62C818.87 1482.6 812.259 1480.01 802 1480.05C797.325 1480.07 791.873 1480.67 789.885 1481.38ZM2218.5 1481.9C2214.65 1482.94 2209.59 1484.57 2207.25 1485.51L2203 1487.22V1522.03V1556.84L2209.65 1557.55C2218.01 1558.45 2228.16 1557.6 2234 1555.52C2240.09 1553.35 2246.51 1546.82 2249.24 1540.03C2251.25 1535.05 2251.47 1532.75 2251.48 1516.98L2251.5 1499.46L2248.19 1492.74C2245.56 1487.4 2243.98 1485.49 2240.49 1483.44C2234.57 1479.97 2227.42 1479.47 2218.5 1481.9ZM1306.5 1511.87C1289.41 1519.65 1288.51 1544.11 1304.98 1553.37C1309.8 1556.08 1311.58 1556.49 1319.98 1556.83C1328.25 1557.16 1330.55 1556.86 1337.33 1554.59C1345.2 1551.95 1354.1 1546.92 1357.14 1543.4C1358.67 1541.62 1358.48 1540.48 1354.2 1525.75L1349.64 1510L1330.07 1510.02C1313.3 1510.04 1309.93 1510.31 1306.5 1511.87ZM1640 1533.49V1553.2L1661.25 1552.8C1684.98 1552.36 1687.3 1551.84 1692.7 1545.69C1696.2 1541.71 1697.62 1535.67 1696.7 1528.77C1695.96 1523.27 1693.38 1520 1687.45 1517.01C1682.73 1514.65 1681.5 1514.51 1661.25 1514.15L1640 1513.78V1533.49ZM465.534 1529.47C456.615 1531.86 453.055 1539.2 456.629 1547.82C459.35 1554.39 463.376 1556.5 473 1556.41C480.561 1556.34 484.549 1555.42 493.25 1551.76L498 1549.75V1538.88V1528L484.25 1528.07C476.167 1528.11 468.453 1528.68 465.534 1529.47ZM1854.65 1529.44C1848.21 1531.17 1844.91 1534.58 1844.28 1540.16C1843.3 1548.93 1848.4 1555.19 1857.66 1556.58C1862.75 1557.34 1874.61 1555.08 1881.84 1551.97L1887 1549.75V1538.88V1528L1873.25 1528.07C1865.33 1528.11 1857.45 1528.69 1854.65 1529.44Z" fill="#006229"/>
</mask>
<g mask="url(#mask0_0_1)">
<path id="ivy" d="M397 624C397 856 330 1213 661 927C870.129 746.303 881.171 533.203 836.671 520.036C752.671 555.036 836.671 1134 1162.67 826.536C1221.84 662.036 1327.5 576.5 1604 541.5C1880.5 506.5 1415.36 1053.22 1860.5 887.5C2139.85 783.5 1954.5 388.5 2102.5 492.5C2250.5 714.5 2293 1290.9 1831 1188.5C1369 1086.1 2035 907.203 2453 826.536" stroke="white" stroke-width="400" stroke-linecap="square" stroke-linejoin="round"/>
</g>
</g>
<path id="outline" d="M-410 -67H3314C3359.29 -67 3396 -30.2873 3396 15V1660C3396 1705.29 3359.29 1742 3314 1742H-410C-455.287 1742 -492 1705.29 -492 1660V15C-492 -30.2873 -455.287 -67 -410 -67Z" stroke="white" stroke-width="50"/>
<path id="leaf" d="M1.79307 166.141C2.26897 165.951 8.87564 161.259 16.5174 155.783C77.61 111.742 149.17 71.4489 214.537 44.3462C223.628 40.5628 239.989 34.2143 246.078 32.0655C248.854 31.1302 253.762 29.3977 257.013 28.272C267.306 24.6164 289.725 17.8834 301.439 14.9086C391.446 -8.28165 467.555 -3.9188 529.067 27.8308C573.615 50.8117 610.598 88.7194 638.878 140.478C647.266 155.844 653.169 168.582 660.849 187.811C663.754 195.106 666.283 201.208 666.419 201.304C666.961 201.69 685.316 199.805 696.457 198.209C719.624 194.919 738.343 189.654 752.095 182.573C758.772 179.122 759.373 178.756 770.908 171.155C776.105 167.775 781.409 164.34 782.764 163.584C785.921 161.73 789.034 161.564 791.156 163.075C795.822 166.463 795.125 172.318 789.695 175.069C788.542 175.637 783.516 178.874 778.472 182.23C758.683 195.401 746.283 201.062 725.277 206.287C716.106 208.558 693.864 212.175 681.282 213.407C675.876 213.925 671.263 214.479 671.048 214.59C670.832 214.701 670.954 215.582 671.305 216.427C671.934 217.934 671.917 218.054 670.885 217.782C669.808 217.479 669.714 217.61 665.595 225.595C648.529 258.171 627.974 288.859 607.801 311.747C535.784 393.596 443.644 419.304 332.727 388.507C260.507 368.453 178.307 322.173 96.8897 255.676C64.566 229.29 34.8927 202.144 8.34924 174.712C4.9514 171.169 1.77247 168.178 1.36255 168.084C0.407211 167.801 0.671087 166.666 1.79307 166.141Z" fill="white"/>
<ellipse id="dot" cx="393" cy="212" rx="196" ry="192" fill="white"/>
</svg>
