<svg width="2433" height="531" viewBox="0 0 2433 531" fill="none" xmlns="http://www.w3.org/2000/svg">
<rect id="background" x="-739" y="-1153" width="3936" height="1857" rx="107" fill="#006229"/>
<g id="Mask Group">
<mask id="mask0_0_1" style="mask-type:alpha" maskUnits="userSpaceOnUse" x="-19" y="-1040" width="2449" height="1571">
<path id="mask" fill-rule="evenodd" clip-rule="evenodd" d="M193.5 -1038.96C250.595 -1032.44 300.037 -1002.02 332.537 -953.407C369.812 -897.656 374.334 -822.331 344.025 -762.049C311.111 -696.587 244.83 -655 173.409 -655C143.622 -655 117.435 -660.983 90.3012 -673.99C7.22717 -713.81 -35.5288 -807.167 -12.0628 -897.5C5.76016 -966.11 61.3792 -1019.9 130.629 -1035.5C149.136 -1039.67 174.869 -1041.08 193.5 -1038.96ZM343.231 -425.75C343.49 -240.346 343.577 -232.277 345.362 -227C348.577 -217.499 352.058 -211.754 358.379 -205.519C368.323 -195.711 379.556 -191 393 -191C415.572 -191 435.764 -206.64 441.469 -228.542C442.818 -233.721 443 -257.22 443 -426.21V-618H614.497H785.995L786.247 -431.848L786.5 -245.695L822.4 -343.098C867.675 -465.934 869.114 -469.569 880.946 -491C921.673 -564.768 981.664 -607.302 1059.3 -617.457C1074.89 -619.495 1107.12 -619.496 1122.66 -617.458C1181.55 -609.738 1234.9 -580.304 1272 -535.071L1279.5 -525.925L1279.76 -572.463L1280.02 -619H1450.99H1621.96L1622.23 -425.25L1622.5 -231.5L1624.83 -225C1633.86 -199.78 1659.24 -185.963 1684.46 -192.533C1701.48 -196.964 1714.83 -210.752 1719.51 -228.703C1720.8 -233.67 1721 -259.638 1721 -426.71V-619H1891.98H2062.96L2063.23 -425.75C2063.49 -240.346 2063.58 -232.277 2065.36 -227C2068.58 -217.499 2072.06 -211.754 2078.38 -205.519C2088.32 -195.711 2099.56 -191 2113 -191C2137.29 -191 2158.59 -209.155 2162.35 -233.08C2162.95 -236.886 2163.8 -240 2164.23 -240C2164.66 -240 2175.65 -235.413 2188.65 -229.807L2212.29 -219.615L2211.64 -204.484C2206.92 -94.969 2157.25 -15.435 2074 15.901L2063.5 19.8541L2063.26 23.6771C2061.75 47.2561 2057.68 72.9101 2051.97 94.8551C2026.87 191.242 1960.34 260.287 1860.54 293.517C1823.39 305.888 1785.07 312.945 1738 316.088C1715.84 317.568 1656.15 316.705 1631.5 314.55C1581.23 310.153 1533.04 301.858 1488.37 289.909C1455.55 281.134 1407.77 264.588 1407.21 261.808C1406.9 260.273 1433.81 97.858 1434.48 97.183C1434.71 96.959 1439.08 98.5701 1444.19 100.762C1474.67 113.816 1514.84 122.402 1557.26 124.929C1590.61 126.915 1619.12 122.005 1642.5 110.251C1686.98 87.8891 1714.3 43.1411 1719.97 -16.6439C1720.53 -22.6149 1721 -36.878 1721 -48.34L1721 -69.1801L1716.81 -63.84C1709.69 -54.783 1690.01 -35.1901 1679.5 -26.701C1624.26 17.9119 1551.39 36.411 1481.7 23.514C1384 5.43504 1307.17 -69.1519 1285.55 -166.895C1280.79 -188.403 1280.7 -190.244 1280.08 -278.5C1279.51 -361.514 1279.47 -362.562 1277.35 -367.745C1273.77 -376.472 1270.39 -381.422 1263.96 -387.376C1247.28 -402.819 1224.9 -405.338 1203.5 -394.18C1190.69 -387.502 1175.65 -370.27 1166.23 -351.49C1164.57 -348.184 1145.4 -301.522 1123.64 -247.796C1101.87 -194.07 1081.8 -145.051 1079.03 -138.865C1061.2 -99.0509 1035.33 -62.9319 1007.52 -39.0609C964.027 -1.72691 913.867 16.7691 844.5 21.0531C832.757 21.7781 798.515 22.0171 746 21.7401C659.247 21.2831 656.882 21.1551 632 15.5421C579.521 3.70411 532.293 -24.8969 498.18 -65.4999C489.807 -75.4669 474.838 -97.7259 471.079 -105.8C469.748 -108.66 468.398 -110.995 468.079 -110.989C467.761 -110.983 465.7 -107.531 463.5 -103.317C461.3 -99.103 456.097 -90.445 451.938 -84.078C418.221 -32.459 367.157 4.44198 308.5 19.579C229.977 39.842 147.998 20.667 86.3231 -32.39C46.5181 -66.632 18.1422 -114.474 6.54617 -166.895C1.32717 -190.488 1.60223 -177.99 1.26723 -406.75L0.955223 -619H171.958H342.961L343.231 -425.75ZM2307.31 3.42712C2345.52 14.6961 2371 48.7271 2371 88.5001C2371 139.891 2328.78 179.738 2277.57 176.68C2239.73 174.42 2208 148.068 2197.88 110.5C2196.15 104.102 2195.72 99.6971 2195.72 88.5001C2195.72 77.3031 2196.15 72.8981 2197.88 66.5001C2206.71 33.7061 2232.34 9.036 2265 1.87C2277.19 -0.805005 2295.21 -0.140876 2307.31 3.42712ZM2268.07 30.5321C2242.3 37.7391 2223.85 61.416 2223.67 87.496C2223.55 105.209 2228.83 118.054 2241.39 130.589C2253.84 143.01 2265.95 148 2283.66 148C2317.75 148 2344.83 119.084 2342.66 85.0001C2341.14 61.1231 2325.15 39.8919 2302.72 31.9659C2294.49 29.0579 2276.07 28.2961 2268.07 30.5321ZM2295 47.058C2298.57 47.632 2304.54 49.4951 2308.25 51.1991L2315 54.296V63.6481V73.0001H2303.5H2292V70.0731C2292 65.4881 2287.75 62.6841 2281.67 63.2621C2273.49 64.0411 2273.5 64.0001 2273.5 88.5001C2273.5 112.378 2273.55 112.566 2280.26 113.656C2287.55 114.837 2292 112.095 2292 106.429V103H2303.5H2315V112.98V122.959L2311.25 124.843C2302.45 129.262 2296.84 130.442 2284.5 130.471C2275.47 130.493 2271.22 130.055 2267.35 128.703C2250.44 122.803 2243.8 111.459 2243.8 88.5001C2243.81 68.8211 2248.53 58.0581 2259.98 51.6251C2269.2 46.4461 2281.33 44.864 2295 47.058ZM436 430V528H415.5H395V430V332H415.5H436V430ZM1981 362.5C1981 379.275 1981.17 393 1981.38 393C1981.58 393 1984.31 391.87 1987.43 390.488C2001.3 384.355 2019.14 381.654 2030.5 383.967C2049.6 387.856 2064.06 403.202 2069.46 425.312C2073.19 440.58 2073.19 465.372 2069.47 480.688C2062.66 508.677 2042.4 525.931 2011.5 530.063C1994.85 532.289 1970.07 530.17 1948 524.633L1939.5 522.5L1939.24 427.25L1938.99 332H1959.99H1981V362.5ZM110 342.301L120.5 343.5L120.773 362.38L121.045 381.259L118.138 380.678C97.3912 376.528 64.3602 375.309 54.5702 378.33C41.0182 382.513 35.8352 396.048 44.1562 405.525C47.9512 409.847 54.4682 411.906 75.9872 415.581C100.117 419.701 111.047 424.286 118.418 433.379C126.302 443.105 129.322 453.353 129.357 470.5C129.397 489.961 125.209 501.75 114.395 512.614C100.525 526.548 80.7791 531.837 47.0001 530.668C31.8561 530.144 6.67314 527.301 0.875145 525.46C-0.868855 524.907 -0.999855 523.576 -0.999855 506.433C-0.999855 496.295 -0.629834 488 -0.177834 488C0.274166 488 7.13617 489.096 15.0722 490.436C47.9662 495.99 63.4771 495.935 75.0001 490.225C81.3861 487.061 84.6021 482.836 85.5781 476.327C86.9991 466.851 81.8952 459.532 71.7642 456.521C68.8692 455.661 59.9751 453.851 52.0001 452.5C27.8301 448.405 18.8572 444.771 10.1282 435.542C0.997197 425.887 -2.96482 414.375 -2.96482 397.5C-2.96482 377.062 3.5762 362.497 16.9772 353.097C26.0082 346.762 36.9341 342.919 52.5001 340.602C57.7031 339.827 99.0391 341.048 110 342.301ZM1129.66 341.56C1136.17 342.418 1144.88 343.896 1149 344.846L1156.5 346.572L1156.77 364.916L1157.05 383.259L1154.27 382.677C1152.75 382.356 1147.22 381.19 1142 380.085C1110.51 373.427 1088.39 376.654 1083.38 388.636C1079.07 398.955 1085.23 412.024 1095.78 414.956C1098.09 415.598 1117.02 415.991 1145.75 415.994L1192 416V432.5V449H1179.93C1168.91 449 1167.91 449.151 1168.39 450.75C1168.67 451.713 1173.88 469.209 1179.95 489.63C1186.03 510.052 1191 527.049 1191 527.401C1191 527.754 1182.13 527.92 1171.29 527.771L1151.58 527.5L1149.34 520.5C1148.11 516.65 1147.08 513.366 1147.05 513.202C1147.02 513.038 1144.94 514.32 1142.43 516.052C1129.72 524.791 1113.48 529.862 1095.47 530.707C1063.9 532.19 1039.16 518.369 1032.01 495.248C1024.61 471.323 1033.16 448.283 1054.27 435.254L1060.11 431.65L1054.92 426.575C1041.09 413.044 1035.67 396.591 1039.44 379.624C1042.52 365.761 1051.48 355.342 1066.75 347.869C1082.23 340.287 1103.67 338.137 1129.66 341.56ZM1477.5 346.233C1496.91 352.778 1508.25 365.601 1511.16 384.285C1513.92 402.027 1505.78 420.555 1491.05 430.092L1488.6 431.678L1495.4 435.025C1504.28 439.398 1510.36 445.42 1514.31 453.775C1517.43 460.355 1517.5 460.801 1517.46 474.5C1517.42 490.602 1516.07 495.387 1508.86 505C1500.62 515.996 1489.11 522.896 1473.7 526.076C1465.47 527.773 1459.77 527.975 1419.75 527.987L1375 528V435.446V342.892L1422.25 343.214L1469.5 343.535L1477.5 346.233ZM1418 397.892V417L1434.75 416.994C1452.51 416.989 1456.73 416.331 1462.06 412.736C1467.11 409.338 1469.35 404.733 1469.43 397.601C1469.52 389.693 1466.83 385.109 1460.23 381.907C1455.93 379.821 1453.78 379.573 1436.75 379.198L1418 378.784V397.892ZM280.5 385.467C298.236 390.179 309.764 400.596 315.203 416.826C317.385 423.338 317.448 424.773 317.777 475.773L318.114 528.047L300.317 527.773L282.52 527.5L281.139 521C280.38 517.425 279.641 514.366 279.499 514.203C279.356 514.04 277.234 515.26 274.782 516.914C247.057 535.626 213.647 533.748 199.671 512.692C193.946 504.067 192.5 498.28 192.5 484C192.5 472.506 192.717 471.036 195.203 465.732C198.586 458.513 206.801 450.206 214 446.722C224.533 441.626 229.838 440.765 253.857 440.255L276.213 439.78L275.817 432.773C275.457 426.398 275.135 425.51 272.25 422.932C267.296 418.505 262.241 417.484 246 417.631C232.909 417.748 221.736 419.137 205.75 422.632L203 423.233V406.199V389.166L207.811 388.134C212.496 387.129 232.965 384.424 242 383.615C251.398 382.774 274.556 383.888 280.5 385.467ZM602.144 385.861C621.761 391.002 635.628 402.156 643.965 419.5C648.835 429.632 650.966 438.404 651.691 451.298C654.031 492.961 634.297 521.703 598.214 529.19C585.635 531.799 566.436 531.273 555.016 528.005C536.518 522.711 523.44 512.037 515.636 495.861C509.624 483.399 507.717 473.997 507.754 457C507.796 437.411 511.045 424.429 518.976 412.158C528.552 397.342 542.925 388.278 562.834 384.498C573.148 382.541 591.962 383.193 602.144 385.861ZM821.364 384.489C825.139 385.289 830.157 387.074 832.515 388.456C838.408 391.91 844.487 399.103 847.217 405.853C849.491 411.477 849.501 411.738 849.795 469.75L850.09 528H829.545H809V479.149C809 445.976 808.644 429.278 807.892 427.119C804.936 418.64 790.551 418.981 770.656 428.002L764 431.02V479.51V528H743.5H723V457V386H742H761V393C761 396.85 761.214 400 761.475 400C761.737 400 766.124 397.779 771.225 395.065C792.316 383.843 805.345 381.095 821.364 384.489ZM1669.5 385.549C1679.49 388.274 1686.13 391.982 1692.56 398.428C1695.89 401.768 1699.65 406.64 1700.9 409.256C1706.25 420.408 1706.29 420.804 1706.74 476.25L1707.16 528H1689.21H1671.27L1669.99 521.75C1669.28 518.313 1668.52 515.16 1668.29 514.745C1668.06 514.329 1665.99 515.282 1663.69 516.862C1642.51 531.389 1617.19 534.061 1600 523.582C1589.27 517.042 1583.02 506.465 1580.91 491.313C1578.25 472.161 1586.73 454.691 1602.44 446.955C1613.47 441.527 1617.6 440.833 1642.25 440.278L1665 439.764V434.333C1665 424.826 1661.75 421.184 1650.76 418.35C1640.88 415.804 1617.96 417.556 1594.75 422.632L1592 423.233V406.199V389.166L1597 388.093C1602.27 386.963 1622.03 384.333 1630.5 383.635C1640.76 382.789 1663.47 383.903 1669.5 385.549ZM2227.5 385.488C2240.72 388.954 2250.5 395.609 2257.43 405.859C2265.58 417.919 2269 432.941 2269 456.724V469H2224.48H2179.96L2180.57 471.75C2182.8 481.819 2187.02 487.474 2194.82 490.829C2200.5 493.271 2210.18 494.982 2218.37 494.992C2227.89 495.005 2249.86 491.328 2263.77 487.397L2266.05 486.754L2265.77 504.627L2265.5 522.5L2256.5 524.76C2237.7 529.483 2230.26 530.399 2210.5 530.428C2195.57 530.45 2190 530.077 2184.53 528.691C2168.74 524.694 2154.84 515.082 2147.59 503.147C2140.04 490.728 2136.26 471.805 2137.28 451.606C2138.42 428.893 2144.27 413.52 2156.39 401.389C2166.06 391.717 2177.03 386.404 2192.48 383.918C2199.81 382.736 2220.55 383.666 2227.5 385.488ZM1873 406.37V427.74L1863.75 429.87C1858.66 431.042 1847.86 434.104 1839.75 436.674L1825 441.348V484.674V528H1804.5H1784V457V386H1803.5H1823V396.93V407.859L1832.25 401.558C1846.59 391.787 1855.93 387.533 1866.4 385.997C1869.21 385.586 1871.84 385.193 1872.25 385.125C1872.66 385.056 1873 394.617 1873 406.37ZM2430 406.359V427.719L2418.75 430.406C2412.56 431.885 2401.87 434.986 2395 437.297L2382.5 441.5L2382.24 484.75L2381.98 528H2361.49H2341V457V386H2360.5H2380V396.983V407.966L2390.75 400.841C2403.18 392.602 2411.25 388.686 2419 387.126C2426.32 385.653 2428.35 385.254 2429.25 385.116C2429.66 385.052 2430 394.612 2430 406.359ZM2198.09 416.075C2189.09 417.863 2181.49 425.935 2180.27 435L2179.74 439H2203.37C2230.19 439 2228.3 439.748 2225.47 430.229C2224.64 427.405 2222.84 423.773 2221.48 422.157C2217.17 417.037 2206.81 414.342 2198.09 416.075ZM567.885 420.38C555.676 424.743 550 436.257 550 456.661C550 483.727 558.898 495.416 579.5 495.415C589.374 495.415 594.108 493.864 599.553 488.845C604.946 483.874 607.624 477.577 608.977 466.684C610.906 451.16 607.957 434.982 601.857 427.621C596.87 421.604 590.259 419.012 580 419.054C575.325 419.072 569.873 419.669 567.885 420.38ZM1996.5 420.896C1992.65 421.943 1987.59 423.568 1985.25 424.508L1981 426.217V461.029V495.841L1987.65 496.553C1996.01 497.449 2006.16 496.602 2012 494.521C2018.09 492.352 2024.51 485.822 2027.24 479.032C2029.25 474.053 2029.47 471.748 2029.48 455.979L2029.5 438.458L2026.19 431.737C2023.56 426.4 2021.98 424.485 2018.49 422.44C2012.57 418.973 2005.42 418.471 1996.5 420.896ZM1084.5 450.866C1067.41 458.648 1066.51 483.108 1082.98 492.368C1087.8 495.083 1089.58 495.493 1097.98 495.83C1106.25 496.162 1108.55 495.864 1115.33 493.587C1123.2 490.947 1132.1 485.919 1135.14 482.396C1136.67 480.623 1136.48 479.476 1132.2 464.75L1127.64 449L1108.07 449.022C1091.3 449.041 1087.93 449.305 1084.5 450.866ZM1418 472.488V492.199L1439.25 491.803C1462.98 491.361 1465.3 490.837 1470.7 484.691C1474.2 480.707 1475.62 474.674 1474.7 467.773C1473.96 462.27 1471.38 458.996 1465.45 456.014C1460.73 453.645 1459.5 453.511 1439.25 453.153L1418 452.777V472.488ZM243.534 468.468C234.615 470.861 231.055 478.2 234.629 486.824C237.35 493.388 241.376 495.5 251 495.41C258.561 495.339 262.549 494.423 271.25 490.756L276 488.754V477.877V467L262.25 467.067C254.167 467.107 246.453 467.684 243.534 468.468ZM1632.65 468.438C1626.21 470.17 1622.91 473.576 1622.28 479.162C1621.3 487.929 1626.4 494.187 1635.66 495.577C1640.75 496.34 1652.61 494.081 1659.84 490.974L1665 488.754V477.877V467L1651.25 467.067C1643.33 467.106 1635.45 467.687 1632.65 468.438Z" fill="#006229"/>
</mask>
<g mask="url(#mask0_0_1)">
<path id="ivy" d="M175 -437C175 -205 108 152 439 -134C648.129 -314.697 659.171 -527.797 614.671 -540.964C530.671 -505.964 614.671 73 940.671 -234.464C999.838 -398.964 1105.5 -484.5 1382 -519.5C1658.5 -554.5 1193.36 -7.77917 1638.5 -173.5C1917.85 -277.5 1732.5 -672.5 1880.5 -568.5C2028.5 -346.5 2071 229.9 1609 127.5C1147 25.1 1813 -153.797 2231 -234.464" stroke="white" stroke-width="400" stroke-linecap="square" stroke-linejoin="round"/>
</g>
</g>
<path id="outline" d="M-632 -1128H3092C3137.29 -1128 3174 -1091.29 3174 -1046V599C3174 644.287 3137.29 681 3092 681H-632C-677.287 681 -714 644.287 -714 599V-1046C-714 -1091.29 -677.287 -1128 -632 -1128Z" stroke="white" stroke-width="50"/>
<path id="letters" fill-rule="evenodd" clip-rule="evenodd" d="M2310.31 3.42987C2348.52 14.6999 2374 48.7298 2374 88.4998C2374 139.89 2331.78 179.74 2280.57 176.68C2242.73 174.42 2211 148.07 2200.88 110.5C2199.15 104.1 2198.72 99.6998 2198.72 88.4998C2198.72 77.2998 2199.15 72.8998 2200.88 66.4998C2209.71 33.7098 2235.34 9.03981 2268 1.86981C2280.19 -0.800186 2298.21 -0.140127 2310.31 3.42987ZM2271.07 30.5298C2245.3 37.7398 2226.85 61.4198 2226.67 87.4998C2226.55 105.21 2231.83 118.05 2244.39 130.59C2256.84 143.01 2268.95 148 2286.66 148C2320.75 148 2347.83 119.08 2345.66 84.9998C2344.14 61.1198 2328.15 39.8898 2305.72 31.9698C2297.49 29.0598 2279.07 28.2998 2271.07 30.5298ZM2298 47.0599C2301.57 47.6299 2307.54 49.4998 2311.25 51.1998L2318 54.2999V63.6498V72.9998H2306.5H2295V70.0698C2295 65.4898 2290.75 62.6798 2284.67 63.2598C2276.49 64.0398 2276.5 63.9998 2276.5 88.4998C2276.5 112.38 2276.55 112.57 2283.26 113.66C2290.55 114.84 2295 112.1 2295 106.43V103H2306.5H2318V112.98V122.96L2314.25 124.84C2305.45 129.26 2299.84 130.44 2287.5 130.47C2278.47 130.49 2274.22 130.06 2270.35 128.7C2253.44 122.8 2246.8 111.46 2246.8 88.4998C2246.81 68.8198 2251.53 58.0598 2262.98 51.6298C2272.2 46.4498 2284.33 44.8599 2298 47.0599ZM439 430V528H418.5H398V430V332H418.5H439V430ZM1984 362.5C1984 379.28 1984.17 393 1984.38 393C1984.58 393 1987.31 391.87 1990.43 390.49C2004.3 384.36 2022.14 381.65 2033.5 383.97C2052.6 387.86 2067.06 403.2 2072.46 425.31C2076.19 440.58 2076.19 465.37 2072.47 480.69C2065.66 508.68 2045.4 525.93 2014.5 530.06C1997.85 532.29 1973.07 530.17 1951 524.63L1942.5 522.5L1942.24 427.25L1941.99 332H1962.99H1984V362.5ZM113 342.3L123.5 343.5L123.773 362.38L124.045 381.26L121.138 380.68C100.391 376.53 67.36 375.31 57.57 378.33C44.018 382.51 38.835 396.05 47.156 405.53C50.951 409.85 57.468 411.91 78.987 415.58C103.117 419.7 114.047 424.29 121.418 433.38C129.302 443.11 132.322 453.35 132.357 470.5C132.397 489.96 128.209 501.75 117.395 512.61C103.525 526.55 83.779 531.84 50 530.67C34.856 530.14 9.673 527.3 3.875 525.46C2.131 524.91 2 523.58 2 506.43C2 496.3 2.37002 488 2.82202 488C3.27402 488 10.136 489.1 18.072 490.44C50.966 495.99 66.477 495.94 78 490.23C84.386 487.06 87.602 482.84 88.578 476.33C89.999 466.85 84.895 459.53 74.764 456.52C71.869 455.66 62.975 453.85 55 452.5C30.83 448.41 21.857 444.77 13.128 435.54C3.99699 425.89 0.0349731 414.38 0.0349731 397.5C0.0349731 377.06 6.57599 362.5 19.977 353.1C29.008 346.76 39.934 342.92 55.5 340.6C60.703 339.83 102.039 341.05 113 342.3ZM1132.66 341.56C1139.17 342.42 1147.87 343.9 1152 344.85L1159.5 346.57L1159.77 364.92L1160.05 383.26L1157.27 382.68C1155.75 382.36 1150.22 381.19 1145 380.09C1113.51 373.43 1091.39 376.65 1086.38 388.64C1082.07 398.96 1088.22 412.02 1098.78 414.96C1101.09 415.6 1120.02 415.99 1148.75 415.99L1195 416V432.5V449H1182.93C1171.91 449 1170.91 449.15 1171.38 450.75C1171.67 451.71 1176.88 469.21 1182.95 489.63C1189.03 510.05 1194 527.05 1194 527.4C1194 527.75 1185.13 527.92 1174.29 527.77L1154.58 527.5L1152.34 520.5C1151.11 516.65 1150.08 513.37 1150.05 513.2C1150.02 513.04 1147.94 514.32 1145.43 516.05C1132.72 524.79 1116.48 529.86 1098.47 530.71C1066.9 532.19 1042.16 518.37 1035.01 495.25C1027.61 471.32 1036.16 448.28 1057.27 435.25L1063.11 431.65L1057.92 426.58C1044.09 413.04 1038.67 396.59 1042.44 379.62C1045.52 365.76 1054.48 355.34 1069.75 347.87C1085.23 340.29 1106.67 338.14 1132.66 341.56ZM1480.5 346.23C1499.91 352.78 1511.25 365.6 1514.16 384.29C1516.92 402.03 1508.78 420.56 1494.05 430.09L1491.6 431.68L1498.4 435.03C1507.28 439.4 1513.36 445.42 1517.31 453.78C1520.43 460.36 1520.5 460.8 1520.46 474.5C1520.42 490.6 1519.07 495.39 1511.86 505C1503.62 516 1492.11 522.9 1476.7 526.08C1468.47 527.77 1462.77 527.98 1422.75 527.99L1378 528V435.45V342.89L1425.25 343.21L1472.5 343.54L1480.5 346.23ZM1421 397.89V417L1437.75 416.99C1455.51 416.99 1459.73 416.33 1465.06 412.74C1470.11 409.34 1472.35 404.73 1472.43 397.6C1472.52 389.69 1469.83 385.11 1463.23 381.91C1458.93 379.82 1456.78 379.57 1439.75 379.2L1421 378.78V397.89ZM283.5 385.47C301.24 390.18 312.76 400.6 318.2 416.83C320.39 423.34 320.45 424.77 320.78 475.77L321.11 528.05L303.32 527.77L285.52 527.5L284.14 521C283.38 517.43 282.64 514.37 282.5 514.2C282.36 514.04 280.23 515.26 277.78 516.91C250.057 535.63 216.647 533.75 202.671 512.69C196.946 504.07 195.5 498.28 195.5 484C195.5 472.51 195.717 471.04 198.203 465.73C201.586 458.51 209.801 450.21 217 446.72C227.533 441.63 232.838 440.77 256.857 440.26L279.21 439.78L278.82 432.77C278.46 426.4 278.14 425.51 275.25 422.93C270.3 418.51 265.24 417.48 249 417.63C235.909 417.75 224.736 419.14 208.75 422.63L206 423.23V406.2V389.17L210.811 388.13C215.496 387.13 235.965 384.42 245 383.62C254.398 382.77 277.56 383.89 283.5 385.47ZM605.14 385.86C624.76 391 638.63 402.16 646.97 419.5C651.84 429.63 653.97 438.4 654.69 451.3C657.03 492.96 637.3 521.7 601.21 529.19C588.64 531.8 569.44 531.27 558.02 528.01C539.52 522.71 526.44 512.04 518.64 495.86C512.62 483.4 510.72 474 510.75 457C510.8 437.41 514.05 424.43 521.98 412.16C531.55 397.34 545.93 388.28 565.83 384.5C576.15 382.54 594.96 383.19 605.14 385.86ZM824.36 384.49C828.14 385.29 833.16 387.07 835.52 388.46C841.41 391.91 847.49 399.1 850.22 405.85C852.49 411.48 852.5 411.74 852.8 469.75L853.09 528H832.55H812V479.15C812 445.98 811.64 429.28 810.89 427.12C807.94 418.64 793.55 418.98 773.66 428L767 431.02V479.51V528H746.5H726V457V386H745H764V393C764 396.85 764.21 400 764.48 400C764.74 400 769.12 397.78 774.23 395.07C795.32 383.84 808.35 381.1 824.36 384.49ZM1672.5 385.55C1682.49 388.27 1689.13 391.98 1695.56 398.43C1698.89 401.77 1702.65 406.64 1703.9 409.26C1709.25 420.41 1709.29 420.8 1709.74 476.25L1710.16 528H1692.21H1674.27L1672.99 521.75C1672.28 518.31 1671.52 515.16 1671.29 514.75C1671.06 514.33 1668.99 515.28 1666.69 516.86C1645.51 531.39 1620.19 534.06 1603 523.58C1592.27 517.04 1586.02 506.47 1583.91 491.31C1581.25 472.16 1589.73 454.69 1605.44 446.95C1616.47 441.53 1620.6 440.83 1645.25 440.28L1668 439.76V434.33C1668 424.83 1664.75 421.18 1653.76 418.35C1643.88 415.8 1620.96 417.56 1597.75 422.63L1595 423.23V406.2V389.17L1600 388.09C1605.27 386.96 1625.03 384.33 1633.5 383.64C1643.76 382.79 1666.47 383.9 1672.5 385.55ZM2230.5 385.49C2243.72 388.95 2253.5 395.61 2260.43 405.86C2268.58 417.92 2272 432.94 2272 456.72V469H2227.48H2182.96L2183.57 471.75C2185.8 481.82 2190.02 487.47 2197.82 490.83C2203.5 493.27 2213.18 494.98 2221.37 494.99C2230.89 495.01 2252.86 491.33 2266.77 487.4L2269.05 486.75L2268.77 504.63L2268.5 522.5L2259.5 524.76C2240.7 529.48 2233.26 530.4 2213.5 530.43C2198.57 530.45 2193 530.08 2187.53 528.69C2171.74 524.69 2157.84 515.08 2150.59 503.15C2143.04 490.73 2139.26 471.81 2140.28 451.61C2141.42 428.89 2147.27 413.52 2159.39 401.39C2169.06 391.72 2180.03 386.4 2195.48 383.92C2202.81 382.74 2223.55 383.67 2230.5 385.49ZM1876 406.37V427.74L1866.75 429.87C1861.66 431.04 1850.86 434.1 1842.75 436.67L1828 441.35V484.67V528H1807.5H1787V457V386H1806.5H1826V396.93V407.86L1835.25 401.56C1849.59 391.79 1858.93 387.53 1869.4 386C1872.21 385.59 1874.84 385.19 1875.25 385.13C1875.66 385.06 1876 394.62 1876 406.37ZM2433 406.36V427.72L2421.75 430.41C2415.56 431.89 2404.87 434.99 2398 437.3L2385.5 441.5L2385.24 484.75L2384.98 528H2364.49H2344V457V386H2363.5H2383V396.98V407.97L2393.75 400.84C2406.18 392.6 2414.25 388.69 2422 387.13C2429.32 385.65 2431.35 385.25 2432.25 385.12C2432.66 385.05 2433 394.61 2433 406.36ZM2201.09 416.08C2192.09 417.86 2184.49 425.94 2183.27 435L2182.74 439H2206.37C2233.19 439 2231.3 439.75 2228.47 430.23C2227.64 427.41 2225.84 423.77 2224.48 422.16C2220.17 417.04 2209.81 414.34 2201.09 416.08ZM570.89 420.38C558.68 424.74 553 436.26 553 456.66C553 483.73 561.9 495.42 582.5 495.42C592.37 495.42 597.11 493.86 602.55 488.85C607.95 483.87 610.62 477.58 611.98 466.68C613.91 451.16 610.96 434.98 604.86 427.62C599.87 421.6 593.26 419.01 583 419.05C578.33 419.07 572.87 419.67 570.89 420.38ZM1999.5 420.9C1995.65 421.94 1990.59 423.57 1988.25 424.51L1984 426.22V461.03V495.84L1990.65 496.55C1999.01 497.45 2009.16 496.6 2015 494.52C2021.09 492.35 2027.51 485.82 2030.24 479.03C2032.25 474.05 2032.47 471.75 2032.48 455.98L2032.5 438.46L2029.19 431.74C2026.56 426.4 2024.98 424.49 2021.49 422.44C2015.57 418.97 2008.42 418.47 1999.5 420.9ZM1087.5 450.87C1070.41 458.65 1069.51 483.11 1085.98 492.37C1090.8 495.08 1092.58 495.49 1100.98 495.83C1109.25 496.16 1111.55 495.86 1118.33 493.59C1126.2 490.95 1135.1 485.92 1138.14 482.4C1139.67 480.62 1139.48 479.48 1135.2 464.75L1130.64 449L1111.07 449.02C1094.3 449.04 1090.93 449.31 1087.5 450.87ZM1421 472.49V492.2L1442.25 491.8C1465.98 491.36 1468.3 490.84 1473.7 484.69C1477.2 480.71 1478.62 474.67 1477.7 467.77C1476.96 462.27 1474.38 459 1468.45 456.01C1463.73 453.65 1462.5 453.51 1442.25 453.15L1421 452.78V472.49ZM246.534 468.47C237.615 470.86 234.055 478.2 237.629 486.82C240.35 493.39 244.376 495.5 254 495.41C261.56 495.34 265.55 494.42 274.25 490.76L279 488.75V477.88V467L265.25 467.07C257.167 467.11 249.453 467.68 246.534 468.47ZM1635.65 468.44C1629.21 470.17 1625.91 473.58 1625.28 479.16C1624.3 487.93 1629.4 494.19 1638.66 495.58C1643.75 496.34 1655.61 494.08 1662.84 490.97L1668 488.75V477.88V467L1654.25 467.07C1646.33 467.11 1638.45 467.69 1635.65 468.44Z" fill="white"/>
</svg>
