<svg width="2449" height="1571" viewBox="0 0 2449 1571" fill="none" xmlns="http://www.w3.org/2000/svg">
<rect id="background" x="-720" y="-113" width="3936" height="1857" rx="107" fill="#006229"/>
<g id="Mask Group">
<mask id="mask0_0_1" style="mask-type:alpha" maskUnits="userSpaceOnUse" x="0" y="0" width="2449" height="1571">
<path id="mask" fill-rule="evenodd" clip-rule="evenodd" d="M212.5 1.04406C269.595 7.56206 319.037 37.983 351.537 86.593C388.812 142.344 393.334 217.669 363.025 277.951C330.111 343.413 263.83 385 192.409 385C162.622 385 136.435 379.017 109.301 366.01C26.2272 326.19 -16.5288 232.833 6.93716 142.5C24.7602 73.8901 80.3792 20.1 149.629 4.50097C168.136 0.331965 193.869 -1.08294 212.5 1.04406ZM362.231 614.25C362.49 799.654 362.577 807.723 364.362 813C367.577 822.501 371.058 828.246 377.379 834.481C387.323 844.289 398.556 849 412 849C434.572 849 454.764 833.36 460.469 811.458C461.818 806.279 462 782.78 462 613.79V422H633.497H804.995L805.247 608.152L805.5 794.305L841.4 696.902C886.675 574.066 888.114 570.431 899.946 549C940.673 475.232 1000.66 432.698 1078.3 422.543C1093.89 420.505 1126.12 420.504 1141.66 422.542C1200.55 430.262 1253.9 459.696 1291 504.929L1298.5 514.075L1298.76 467.537L1299.02 421H1469.99H1640.96L1641.23 614.75L1641.5 808.5L1643.83 815C1652.86 840.22 1678.24 854.037 1703.46 847.467C1720.48 843.036 1733.83 829.248 1738.51 811.297C1739.8 806.33 1740 780.362 1740 613.29V421H1910.98H2081.96L2082.23 614.25C2082.49 799.654 2082.58 807.723 2084.36 813C2087.58 822.501 2091.06 828.246 2097.38 834.481C2107.32 844.289 2118.56 849 2132 849C2156.29 849 2177.59 830.845 2181.35 806.92C2181.95 803.114 2182.8 800 2183.23 800C2183.66 800 2194.65 804.587 2207.65 810.193L2231.29 820.385L2230.64 835.516C2225.92 945.031 2176.25 1024.57 2093 1055.9L2082.5 1059.85L2082.26 1063.68C2080.75 1087.26 2076.68 1112.91 2070.97 1134.86C2045.87 1231.24 1979.34 1300.29 1879.54 1333.52C1842.39 1345.89 1804.07 1352.95 1757 1356.09C1734.84 1357.57 1675.15 1356.71 1650.5 1354.55C1600.23 1350.15 1552.04 1341.86 1507.37 1329.91C1474.55 1321.13 1426.77 1304.59 1426.21 1301.81C1425.9 1300.27 1452.81 1137.86 1453.48 1137.18C1453.71 1136.96 1458.08 1138.57 1463.19 1140.76C1493.67 1153.82 1533.84 1162.4 1576.26 1164.93C1609.61 1166.92 1638.12 1162.01 1661.5 1150.25C1705.98 1127.89 1733.3 1083.14 1738.97 1023.36C1739.53 1017.39 1740 1003.12 1740 991.66L1740 970.82L1735.81 976.16C1728.69 985.217 1709.01 1004.81 1698.5 1013.3C1643.26 1057.91 1570.39 1076.41 1500.7 1063.51C1403 1045.44 1326.17 970.848 1304.55 873.105C1299.79 851.597 1299.7 849.756 1299.08 761.5C1298.51 678.486 1298.47 677.438 1296.35 672.255C1292.77 663.528 1289.39 658.578 1282.96 652.624C1266.28 637.181 1243.9 634.662 1222.5 645.82C1209.69 652.498 1194.65 669.73 1185.23 688.51C1183.57 691.816 1164.4 738.478 1142.64 792.204C1120.87 845.93 1100.8 894.949 1098.03 901.135C1080.2 940.949 1054.33 977.068 1026.52 1000.94C983.027 1038.27 932.867 1056.77 863.5 1061.05C851.757 1061.78 817.515 1062.02 765 1061.74C678.247 1061.28 675.882 1061.16 651 1055.54C598.521 1043.7 551.293 1015.1 517.18 974.5C508.807 964.533 493.838 942.274 490.079 934.2C488.748 931.34 487.398 929.005 487.079 929.011C486.761 929.017 484.7 932.469 482.5 936.683C480.3 940.897 475.097 949.555 470.938 955.922C437.221 1007.54 386.157 1044.44 327.5 1059.58C248.977 1079.84 166.998 1060.67 105.323 1007.61C65.5181 973.368 37.1422 925.526 25.5462 873.105C20.3272 849.512 20.6022 862.01 20.2672 633.25L19.9552 421H190.958H361.961L362.231 614.25ZM2326.31 1043.43C2364.52 1054.7 2390 1088.73 2390 1128.5C2390 1179.89 2347.78 1219.74 2296.57 1216.68C2258.73 1214.42 2227 1188.07 2216.88 1150.5C2215.15 1144.1 2214.72 1139.7 2214.72 1128.5C2214.72 1117.3 2215.15 1112.9 2216.88 1106.5C2225.71 1073.71 2251.34 1049.04 2284 1041.87C2296.19 1039.19 2314.21 1039.86 2326.31 1043.43ZM2287.07 1070.53C2261.3 1077.74 2242.85 1101.42 2242.67 1127.5C2242.55 1145.21 2247.83 1158.05 2260.39 1170.59C2272.84 1183.01 2284.95 1188 2302.66 1188C2336.75 1188 2363.83 1159.08 2361.66 1125C2360.14 1101.12 2344.15 1079.89 2321.72 1071.97C2313.49 1069.06 2295.07 1068.3 2287.07 1070.53ZM2314 1087.06C2317.57 1087.63 2323.54 1089.5 2327.25 1091.2L2334 1094.3V1103.65V1113H2322.5H2311V1110.07C2311 1105.49 2306.75 1102.68 2300.67 1103.26C2292.49 1104.04 2292.5 1104 2292.5 1128.5C2292.5 1152.38 2292.55 1152.57 2299.26 1153.66C2306.55 1154.84 2311 1152.1 2311 1146.43V1143H2322.5H2334V1152.98V1162.96L2330.25 1164.84C2321.45 1169.26 2315.84 1170.44 2303.5 1170.47C2294.47 1170.49 2290.22 1170.06 2286.35 1168.7C2269.44 1162.8 2262.8 1151.46 2262.8 1128.5C2262.81 1108.82 2267.53 1098.06 2278.98 1091.63C2288.2 1086.45 2300.33 1084.86 2314 1087.06ZM455 1470V1568H434.5H414V1470V1372H434.5H455V1470ZM2000 1402.5C2000 1419.28 2000.17 1433 2000.38 1433C2000.58 1433 2003.31 1431.87 2006.43 1430.49C2020.3 1424.36 2038.14 1421.65 2049.5 1423.97C2068.6 1427.86 2083.06 1443.2 2088.46 1465.31C2092.19 1480.58 2092.19 1505.37 2088.47 1520.69C2081.66 1548.68 2061.4 1565.93 2030.5 1570.06C2013.85 1572.29 1989.07 1570.17 1967 1564.63L1958.5 1562.5L1958.24 1467.25L1957.99 1372H1978.99H2000V1402.5ZM129 1382.3L139.5 1383.5L139.773 1402.38L140.045 1421.26L137.138 1420.68C116.391 1416.53 83.3602 1415.31 73.5702 1418.33C60.0182 1422.51 54.8352 1436.05 63.1562 1445.53C66.9512 1449.85 73.4682 1451.91 94.9872 1455.58C119.117 1459.7 130.047 1464.29 137.418 1473.38C145.302 1483.11 148.322 1493.35 148.357 1510.5C148.397 1529.96 144.209 1541.75 133.395 1552.61C119.525 1566.55 99.7791 1571.84 66.0001 1570.67C50.8561 1570.14 25.6731 1567.3 19.8751 1565.46C18.1311 1564.91 18.0001 1563.58 18.0001 1546.43C18.0001 1536.29 18.3702 1528 18.8222 1528C19.2742 1528 26.1362 1529.1 34.0722 1530.44C66.9662 1535.99 82.4771 1535.93 94.0001 1530.22C100.386 1527.06 103.602 1522.84 104.578 1516.33C105.999 1506.85 100.895 1499.53 90.7642 1496.52C87.8692 1495.66 78.9751 1493.85 71.0001 1492.5C46.8301 1488.41 37.8572 1484.77 29.1282 1475.54C19.9972 1465.89 16.0352 1454.38 16.0352 1437.5C16.0352 1417.06 22.5762 1402.5 35.9772 1393.1C45.0082 1386.76 55.9341 1382.92 71.5001 1380.6C76.7031 1379.83 118.039 1381.05 129 1382.3ZM1148.66 1381.56C1155.17 1382.42 1163.88 1383.9 1168 1384.85L1175.5 1386.57L1175.77 1404.92L1176.05 1423.26L1173.27 1422.68C1171.75 1422.36 1166.22 1421.19 1161 1420.09C1129.51 1413.43 1107.39 1416.65 1102.38 1428.64C1098.07 1438.96 1104.23 1452.02 1114.78 1454.96C1117.09 1455.6 1136.02 1455.99 1164.75 1455.99L1211 1456V1472.5V1489H1198.93C1187.91 1489 1186.91 1489.15 1187.39 1490.75C1187.67 1491.71 1192.88 1509.21 1198.95 1529.63C1205.03 1550.05 1210 1567.05 1210 1567.4C1210 1567.75 1201.13 1567.92 1190.29 1567.77L1170.58 1567.5L1168.34 1560.5C1167.11 1556.65 1166.08 1553.37 1166.05 1553.2C1166.02 1553.04 1163.94 1554.32 1161.43 1556.05C1148.72 1564.79 1132.48 1569.86 1114.47 1570.71C1082.9 1572.19 1058.16 1558.37 1051.01 1535.25C1043.61 1511.32 1052.16 1488.28 1073.27 1475.25L1079.11 1471.65L1073.92 1466.58C1060.09 1453.04 1054.67 1436.59 1058.44 1419.62C1061.52 1405.76 1070.48 1395.34 1085.75 1387.87C1101.23 1380.29 1122.67 1378.14 1148.66 1381.56ZM1496.5 1386.23C1515.91 1392.78 1527.25 1405.6 1530.16 1424.29C1532.92 1442.03 1524.78 1460.56 1510.05 1470.09L1507.6 1471.68L1514.4 1475.03C1523.28 1479.4 1529.36 1485.42 1533.31 1493.78C1536.43 1500.36 1536.5 1500.8 1536.46 1514.5C1536.42 1530.6 1535.07 1535.39 1527.86 1545C1519.62 1556 1508.11 1562.9 1492.7 1566.08C1484.47 1567.77 1478.77 1567.98 1438.75 1567.99L1394 1568V1475.45V1382.89L1441.25 1383.21L1488.5 1383.54L1496.5 1386.23ZM1437 1437.89V1457L1453.75 1456.99C1471.51 1456.99 1475.73 1456.33 1481.06 1452.74C1486.11 1449.34 1488.35 1444.73 1488.43 1437.6C1488.52 1429.69 1485.83 1425.11 1479.23 1421.91C1474.93 1419.82 1472.78 1419.57 1455.75 1419.2L1437 1418.78V1437.89ZM299.5 1425.47C317.236 1430.18 328.764 1440.6 334.203 1456.83C336.385 1463.34 336.448 1464.77 336.777 1515.77L337.114 1568.05L319.317 1567.77L301.52 1567.5L300.139 1561C299.38 1557.43 298.641 1554.37 298.499 1554.2C298.356 1554.04 296.234 1555.26 293.782 1556.91C266.057 1575.63 232.647 1573.75 218.671 1552.69C212.946 1544.07 211.5 1538.28 211.5 1524C211.5 1512.51 211.717 1511.04 214.203 1505.73C217.586 1498.51 225.801 1490.21 233 1486.72C243.533 1481.63 248.838 1480.77 272.857 1480.26L295.213 1479.78L294.817 1472.77C294.457 1466.4 294.135 1465.51 291.25 1462.93C286.296 1458.51 281.241 1457.48 265 1457.63C251.909 1457.75 240.736 1459.14 224.75 1462.63L222 1463.23V1446.2V1429.17L226.811 1428.13C231.496 1427.13 251.965 1424.42 261 1423.62C270.398 1422.77 293.556 1423.89 299.5 1425.47ZM621.144 1425.86C640.761 1431 654.628 1442.16 662.965 1459.5C667.835 1469.63 669.966 1478.4 670.691 1491.3C673.031 1532.96 653.297 1561.7 617.214 1569.19C604.635 1571.8 585.436 1571.27 574.016 1568.01C555.518 1562.71 542.44 1552.04 534.636 1535.86C528.624 1523.4 526.717 1514 526.754 1497C526.796 1477.41 530.045 1464.43 537.976 1452.16C547.552 1437.34 561.925 1428.28 581.834 1424.5C592.148 1422.54 610.962 1423.19 621.144 1425.86ZM840.364 1424.49C844.139 1425.29 849.157 1427.07 851.515 1428.46C857.408 1431.91 863.487 1439.1 866.217 1445.85C868.491 1451.48 868.501 1451.74 868.795 1509.75L869.09 1568H848.545H828V1519.15C828 1485.98 827.644 1469.28 826.892 1467.12C823.936 1458.64 809.551 1458.98 789.656 1468L783 1471.02V1519.51V1568H762.5H742V1497V1426H761H780V1433C780 1436.85 780.214 1440 780.475 1440C780.737 1440 785.124 1437.78 790.225 1435.07C811.316 1423.84 824.345 1421.1 840.364 1424.49ZM1688.5 1425.55C1698.49 1428.27 1705.13 1431.98 1711.56 1438.43C1714.89 1441.77 1718.65 1446.64 1719.9 1449.26C1725.25 1460.41 1725.29 1460.8 1725.74 1516.25L1726.16 1568H1708.21H1690.27L1688.99 1561.75C1688.28 1558.31 1687.52 1555.16 1687.29 1554.74C1687.06 1554.33 1684.99 1555.28 1682.69 1556.86C1661.51 1571.39 1636.19 1574.06 1619 1563.58C1608.27 1557.04 1602.02 1546.47 1599.91 1531.31C1597.25 1512.16 1605.73 1494.69 1621.44 1486.95C1632.47 1481.53 1636.6 1480.83 1661.25 1480.28L1684 1479.76V1474.33C1684 1464.83 1680.75 1461.18 1669.76 1458.35C1659.88 1455.8 1636.96 1457.56 1613.75 1462.63L1611 1463.23V1446.2V1429.17L1616 1428.09C1621.27 1426.96 1641.03 1424.33 1649.5 1423.64C1659.76 1422.79 1682.47 1423.9 1688.5 1425.55ZM2246.5 1425.49C2259.72 1428.95 2269.5 1435.61 2276.43 1445.86C2284.58 1457.92 2288 1472.94 2288 1496.72V1509H2243.48H2198.96L2199.57 1511.75C2201.8 1521.82 2206.02 1527.47 2213.82 1530.83C2219.5 1533.27 2229.18 1534.98 2237.37 1534.99C2246.89 1535.01 2268.86 1531.33 2282.77 1527.4L2285.05 1526.75L2284.77 1544.63L2284.5 1562.5L2275.5 1564.76C2256.7 1569.48 2249.26 1570.4 2229.5 1570.43C2214.57 1570.45 2209 1570.08 2203.53 1568.69C2187.74 1564.69 2173.84 1555.08 2166.59 1543.15C2159.04 1530.73 2155.26 1511.81 2156.28 1491.61C2157.42 1468.89 2163.27 1453.52 2175.39 1441.39C2185.06 1431.72 2196.03 1426.4 2211.48 1423.92C2218.81 1422.74 2239.55 1423.67 2246.5 1425.49ZM1892 1446.37V1467.74L1882.75 1469.87C1877.66 1471.04 1866.86 1474.1 1858.75 1476.67L1844 1481.35V1524.67V1568H1823.5H1803V1497V1426H1822.5H1842V1436.93V1447.86L1851.25 1441.56C1865.59 1431.79 1874.93 1427.53 1885.4 1426C1888.21 1425.59 1890.84 1425.19 1891.25 1425.13C1891.66 1425.06 1892 1434.62 1892 1446.37ZM2449 1446.36V1467.72L2437.75 1470.41C2431.56 1471.89 2420.87 1474.99 2414 1477.3L2401.5 1481.5L2401.24 1524.75L2400.98 1568H2380.49H2360V1497V1426H2379.5H2399V1436.98V1447.97L2409.75 1440.84C2422.18 1432.6 2430.25 1428.69 2438 1427.13C2445.32 1425.65 2447.35 1425.25 2448.25 1425.12C2448.66 1425.05 2449 1434.61 2449 1446.36ZM2217.09 1456.08C2208.09 1457.86 2200.49 1465.94 2199.27 1475L2198.74 1479H2222.37C2249.19 1479 2247.3 1479.75 2244.47 1470.23C2243.64 1467.41 2241.84 1463.77 2240.48 1462.16C2236.17 1457.04 2225.81 1454.34 2217.09 1456.08ZM586.885 1460.38C574.676 1464.74 569 1476.26 569 1496.66C569 1523.73 577.898 1535.42 598.5 1535.42C608.374 1535.42 613.108 1533.86 618.553 1528.85C623.946 1523.87 626.624 1517.58 627.977 1506.68C629.906 1491.16 626.957 1474.98 620.857 1467.62C615.87 1461.6 609.259 1459.01 599 1459.05C594.325 1459.07 588.873 1459.67 586.885 1460.38ZM2015.5 1460.9C2011.65 1461.94 2006.59 1463.57 2004.25 1464.51L2000 1466.22V1501.03V1535.84L2006.65 1536.55C2015.01 1537.45 2025.16 1536.6 2031 1534.52C2037.09 1532.35 2043.51 1525.82 2046.24 1519.03C2048.25 1514.05 2048.47 1511.75 2048.48 1495.98L2048.5 1478.46L2045.19 1471.74C2042.56 1466.4 2040.98 1464.49 2037.49 1462.44C2031.57 1458.97 2024.42 1458.47 2015.5 1460.9ZM1103.5 1490.87C1086.41 1498.65 1085.51 1523.11 1101.98 1532.37C1106.8 1535.08 1108.58 1535.49 1116.98 1535.83C1125.25 1536.16 1127.55 1535.86 1134.33 1533.59C1142.2 1530.95 1151.1 1525.92 1154.14 1522.4C1155.67 1520.62 1155.48 1519.48 1151.2 1504.75L1146.64 1489L1127.07 1489.02C1110.3 1489.04 1106.93 1489.31 1103.5 1490.87ZM1437 1512.49V1532.2L1458.25 1531.8C1481.98 1531.36 1484.3 1530.84 1489.7 1524.69C1493.2 1520.71 1494.62 1514.67 1493.7 1507.77C1492.96 1502.27 1490.38 1499 1484.45 1496.01C1479.73 1493.65 1478.5 1493.51 1458.25 1493.15L1437 1492.78V1512.49ZM262.534 1508.47C253.615 1510.86 250.055 1518.2 253.629 1526.82C256.35 1533.39 260.376 1535.5 270 1535.41C277.561 1535.34 281.549 1534.42 290.25 1530.76L295 1528.75V1517.88V1507L281.25 1507.07C273.167 1507.11 265.453 1507.68 262.534 1508.47ZM1651.65 1508.44C1645.21 1510.17 1641.91 1513.58 1641.28 1519.16C1640.3 1527.93 1645.4 1534.19 1654.66 1535.58C1659.75 1536.34 1671.61 1534.08 1678.84 1530.97L1684 1528.75V1517.88V1507L1670.25 1507.07C1662.33 1507.11 1654.45 1507.69 1651.65 1508.44Z" fill="#006229"/>
</mask>
<g mask="url(#mask0_0_1)">
<path id="ivy" d="M194 603C194 835 127 1192 458 906C667.129 725.303 678.171 512.203 633.671 499.036C549.671 534.036 633.671 1113 959.671 805.536C1018.84 641.036 1124.5 555.5 1401 520.5C1677.5 485.5 1212.36 1032.22 1657.5 866.5C1936.85 762.5 1751.5 367.5 1899.5 471.5C2047.5 693.5 2090 1269.9 1628 1167.5C1166 1065.1 1832 886.203 2250 805.536" stroke="white" stroke-width="400" stroke-linecap="square" stroke-linejoin="round"/>
</g>
</g>
<path id="outline" d="M-613 -88H3111C3156.29 -88 3193 -51.2873 3193 -6V1639C3193 1684.29 3156.29 1721 3111 1721H-613C-658.287 1721 -695 1684.29 -695 1639V-6C-695 -51.2873 -658.287 -88 -613 -88Z" stroke="white" stroke-width="50"/>
<path id="leaf" d="M-201.207 145.141C-200.731 144.951 -194.124 140.259 -186.483 134.783C-125.39 90.7425 -53.8303 50.4489 11.5371 23.3462C20.6277 19.5628 36.9887 13.2143 43.0781 11.0655C45.8536 10.1302 50.7619 8.39771 54.0133 7.27197C64.3058 3.61643 86.7252 -3.1166 98.4386 -6.0914C188.446 -29.2816 264.555 -24.9188 326.067 6.83081C370.615 29.8117 407.598 67.7194 435.878 119.478C444.266 134.844 450.169 147.582 457.849 166.811C460.754 174.106 463.283 180.208 463.419 180.304C463.961 180.69 482.316 178.805 493.457 177.209C516.624 173.919 535.343 168.654 549.095 161.573C555.772 158.122 556.373 157.756 567.908 150.155C573.105 146.775 578.409 143.34 579.764 142.584C582.921 140.73 586.034 140.564 588.156 142.075C592.822 145.463 592.125 151.318 586.695 154.069C585.542 154.637 580.516 157.874 575.472 161.23C555.683 174.401 543.283 180.062 522.277 185.287C513.106 187.558 490.864 191.175 478.282 192.407C472.876 192.925 468.263 193.479 468.048 193.59C467.832 193.701 467.954 194.582 468.305 195.427C468.934 196.934 468.917 197.054 467.885 196.782C466.808 196.479 466.714 196.61 462.595 204.595C445.529 237.171 424.974 267.859 404.801 290.747C332.784 372.596 240.644 398.304 129.727 367.507C57.5072 347.453 -24.6929 301.173 -106.11 234.676C-138.434 208.29 -168.107 181.144 -194.651 153.712C-198.049 150.169 -201.228 147.178 -201.637 147.084C-202.593 146.801 -202.329 145.666 -201.207 145.141Z" fill="white"/>
<path id="letters" fill-rule="evenodd" clip-rule="evenodd" d="M2329.31 1043.43C2367.52 1054.7 2393 1088.73 2393 1128.5C2393 1179.89 2350.78 1219.74 2299.57 1216.68C2261.73 1214.42 2230 1188.07 2219.88 1150.5C2218.15 1144.1 2217.72 1139.7 2217.72 1128.5C2217.72 1117.3 2218.15 1112.9 2219.88 1106.5C2228.71 1073.71 2254.34 1049.04 2287 1041.87C2299.19 1039.2 2317.21 1039.86 2329.31 1043.43ZM2290.07 1070.53C2264.3 1077.74 2245.85 1101.42 2245.67 1127.5C2245.55 1145.21 2250.83 1158.05 2263.39 1170.59C2275.84 1183.01 2287.95 1188 2305.66 1188C2339.75 1188 2366.83 1159.08 2364.66 1125C2363.14 1101.12 2347.15 1079.89 2324.72 1071.97C2316.49 1069.06 2298.07 1068.3 2290.07 1070.53ZM2317 1087.06C2320.57 1087.63 2326.54 1089.5 2330.25 1091.2L2337 1094.3V1103.65V1113H2325.5H2314V1110.07C2314 1105.49 2309.75 1102.68 2303.67 1103.26C2295.49 1104.04 2295.5 1104 2295.5 1128.5C2295.5 1152.38 2295.55 1152.57 2302.26 1153.66C2309.55 1154.84 2314 1152.1 2314 1146.43V1143H2325.5H2337V1152.98V1162.96L2333.25 1164.84C2324.45 1169.26 2318.84 1170.44 2306.5 1170.47C2297.47 1170.49 2293.22 1170.06 2289.35 1168.7C2272.44 1162.8 2265.8 1151.46 2265.8 1128.5C2265.81 1108.82 2270.53 1098.06 2281.98 1091.63C2291.2 1086.45 2303.33 1084.86 2317 1087.06ZM458 1470V1568H437.5H417V1470V1372H437.5H458V1470ZM2003 1402.5C2003 1419.28 2003.17 1433 2003.38 1433C2003.58 1433 2006.31 1431.87 2009.43 1430.49C2023.3 1424.36 2041.14 1421.65 2052.5 1423.97C2071.6 1427.86 2086.06 1443.2 2091.46 1465.31C2095.19 1480.58 2095.19 1505.37 2091.47 1520.69C2084.66 1548.68 2064.4 1565.93 2033.5 1570.06C2016.85 1572.29 1992.07 1570.17 1970 1564.63L1961.5 1562.5L1961.24 1467.25L1960.99 1372H1981.99H2003V1402.5ZM132 1382.3L142.5 1383.5L142.773 1402.38L143.045 1421.26L140.138 1420.68C119.391 1416.53 86.36 1415.31 76.57 1418.33C63.018 1422.51 57.835 1436.05 66.156 1445.53C69.951 1449.85 76.468 1451.91 97.987 1455.58C122.117 1459.7 133.047 1464.29 140.418 1473.38C148.302 1483.11 151.322 1493.35 151.357 1510.5C151.397 1529.96 147.209 1541.75 136.395 1552.61C122.525 1566.55 102.779 1571.84 69 1570.67C53.856 1570.14 28.673 1567.3 22.875 1565.46C21.131 1564.91 21 1563.58 21 1546.43C21 1536.3 21.37 1528 21.822 1528C22.274 1528 29.136 1529.1 37.072 1530.44C69.966 1535.99 85.477 1535.94 97 1530.23C103.386 1527.06 106.602 1522.84 107.578 1516.33C108.999 1506.85 103.895 1499.53 93.764 1496.52C90.869 1495.66 81.975 1493.85 74 1492.5C49.83 1488.41 40.857 1484.77 32.128 1475.54C22.997 1465.89 19.035 1454.38 19.035 1437.5C19.035 1417.06 25.576 1402.5 38.977 1393.1C48.008 1386.76 58.934 1382.92 74.5 1380.6C79.703 1379.83 121.039 1381.05 132 1382.3ZM1151.66 1381.56C1158.17 1382.42 1166.87 1383.9 1171 1384.85L1178.5 1386.57L1178.77 1404.92L1179.05 1423.26L1176.27 1422.68C1174.75 1422.36 1169.22 1421.19 1164 1420.09C1132.51 1413.43 1110.39 1416.65 1105.38 1428.64C1101.07 1438.96 1107.22 1452.02 1117.78 1454.96C1120.09 1455.6 1139.02 1455.99 1167.75 1455.99L1214 1456V1472.5V1489H1201.93C1190.91 1489 1189.91 1489.15 1190.38 1490.75C1190.67 1491.71 1195.88 1509.21 1201.95 1529.63C1208.03 1550.05 1213 1567.05 1213 1567.4C1213 1567.75 1204.13 1567.92 1193.29 1567.77L1173.58 1567.5L1171.34 1560.5C1170.11 1556.65 1169.08 1553.37 1169.05 1553.2C1169.02 1553.04 1166.94 1554.32 1164.43 1556.05C1151.72 1564.79 1135.48 1569.86 1117.47 1570.71C1085.9 1572.19 1061.16 1558.37 1054.01 1535.25C1046.61 1511.32 1055.16 1488.28 1076.27 1475.25L1082.11 1471.65L1076.92 1466.58C1063.09 1453.04 1057.67 1436.59 1061.44 1419.62C1064.52 1405.76 1073.48 1395.34 1088.75 1387.87C1104.23 1380.29 1125.67 1378.14 1151.66 1381.56ZM1499.5 1386.23C1518.91 1392.78 1530.25 1405.6 1533.16 1424.29C1535.92 1442.03 1527.78 1460.56 1513.05 1470.09L1510.6 1471.68L1517.4 1475.03C1526.28 1479.4 1532.36 1485.42 1536.31 1493.78C1539.43 1500.36 1539.5 1500.8 1539.46 1514.5C1539.42 1530.6 1538.07 1535.39 1530.86 1545C1522.62 1556 1511.11 1562.9 1495.7 1566.08C1487.47 1567.77 1481.77 1567.98 1441.75 1567.99L1397 1568V1475.45V1382.89L1444.25 1383.21L1491.5 1383.54L1499.5 1386.23ZM1440 1437.89V1457L1456.75 1456.99C1474.51 1456.99 1478.73 1456.33 1484.06 1452.74C1489.11 1449.34 1491.35 1444.73 1491.43 1437.6C1491.52 1429.69 1488.83 1425.11 1482.23 1421.91C1477.93 1419.82 1475.78 1419.57 1458.75 1419.2L1440 1418.78V1437.89ZM302.5 1425.47C320.24 1430.18 331.76 1440.6 337.2 1456.83C339.39 1463.34 339.45 1464.77 339.78 1515.77L340.11 1568.05L322.32 1567.77L304.52 1567.5L303.14 1561C302.38 1557.43 301.64 1554.37 301.5 1554.2C301.36 1554.04 299.23 1555.26 296.78 1556.91C269.057 1575.63 235.647 1573.75 221.671 1552.69C215.946 1544.07 214.5 1538.28 214.5 1524C214.5 1512.51 214.717 1511.04 217.203 1505.73C220.586 1498.51 228.801 1490.21 236 1486.72C246.533 1481.63 251.838 1480.77 275.857 1480.26L298.21 1479.78L297.82 1472.77C297.46 1466.4 297.14 1465.51 294.25 1462.93C289.3 1458.51 284.24 1457.48 268 1457.63C254.909 1457.75 243.736 1459.14 227.75 1462.63L225 1463.23V1446.2V1429.17L229.811 1428.13C234.496 1427.13 254.965 1424.42 264 1423.62C273.398 1422.77 296.56 1423.89 302.5 1425.47ZM624.14 1425.86C643.76 1431 657.63 1442.16 665.97 1459.5C670.84 1469.63 672.97 1478.4 673.69 1491.3C676.03 1532.96 656.3 1561.7 620.21 1569.19C607.64 1571.8 588.44 1571.27 577.02 1568.01C558.52 1562.71 545.44 1552.04 537.64 1535.86C531.62 1523.4 529.72 1514 529.75 1497C529.8 1477.41 533.05 1464.43 540.98 1452.16C550.55 1437.34 564.93 1428.28 584.83 1424.5C595.15 1422.54 613.96 1423.19 624.14 1425.86ZM843.36 1424.49C847.14 1425.29 852.16 1427.07 854.52 1428.46C860.41 1431.91 866.49 1439.1 869.22 1445.85C871.49 1451.48 871.5 1451.74 871.8 1509.75L872.09 1568H851.55H831V1519.15C831 1485.98 830.64 1469.28 829.89 1467.12C826.94 1458.64 812.55 1458.98 792.66 1468L786 1471.02V1519.51V1568H765.5H745V1497V1426H764H783V1433C783 1436.85 783.21 1440 783.48 1440C783.74 1440 788.12 1437.78 793.23 1435.07C814.32 1423.84 827.35 1421.1 843.36 1424.49ZM1691.5 1425.55C1701.49 1428.27 1708.13 1431.98 1714.56 1438.43C1717.89 1441.77 1721.65 1446.64 1722.9 1449.26C1728.25 1460.41 1728.29 1460.8 1728.74 1516.25L1729.16 1568H1711.21H1693.27L1691.99 1561.75C1691.28 1558.31 1690.52 1555.16 1690.29 1554.75C1690.06 1554.33 1687.99 1555.28 1685.69 1556.86C1664.51 1571.39 1639.19 1574.06 1622 1563.58C1611.27 1557.04 1605.02 1546.47 1602.91 1531.31C1600.25 1512.16 1608.73 1494.69 1624.44 1486.95C1635.47 1481.53 1639.6 1480.83 1664.25 1480.28L1687 1479.76V1474.33C1687 1464.83 1683.75 1461.18 1672.76 1458.35C1662.88 1455.8 1639.96 1457.56 1616.75 1462.63L1614 1463.23V1446.2V1429.17L1619 1428.09C1624.27 1426.96 1644.03 1424.33 1652.5 1423.64C1662.76 1422.79 1685.47 1423.9 1691.5 1425.55ZM2249.5 1425.49C2262.72 1428.95 2272.5 1435.61 2279.43 1445.86C2287.58 1457.92 2291 1472.94 2291 1496.72V1509H2246.48H2201.96L2202.57 1511.75C2204.8 1521.82 2209.02 1527.47 2216.82 1530.83C2222.5 1533.27 2232.18 1534.98 2240.37 1534.99C2249.89 1535.01 2271.86 1531.33 2285.77 1527.4L2288.05 1526.75L2287.77 1544.63L2287.5 1562.5L2278.5 1564.76C2259.7 1569.48 2252.26 1570.4 2232.5 1570.43C2217.57 1570.45 2212 1570.08 2206.53 1568.69C2190.74 1564.69 2176.84 1555.08 2169.59 1543.15C2162.04 1530.73 2158.26 1511.81 2159.28 1491.61C2160.42 1468.89 2166.27 1453.52 2178.39 1441.39C2188.06 1431.72 2199.03 1426.4 2214.48 1423.92C2221.81 1422.74 2242.55 1423.67 2249.5 1425.49ZM1895 1446.37V1467.74L1885.75 1469.87C1880.66 1471.04 1869.86 1474.1 1861.75 1476.67L1847 1481.35V1524.67V1568H1826.5H1806V1497V1426H1825.5H1845V1436.93V1447.86L1854.25 1441.56C1868.59 1431.79 1877.93 1427.53 1888.4 1426C1891.21 1425.59 1893.84 1425.19 1894.25 1425.13C1894.66 1425.06 1895 1434.62 1895 1446.37ZM2452 1446.36V1467.72L2440.75 1470.41C2434.56 1471.89 2423.87 1474.99 2417 1477.3L2404.5 1481.5L2404.24 1524.75L2403.98 1568H2383.49H2363V1497V1426H2382.5H2402V1436.98V1447.97L2412.75 1440.84C2425.18 1432.6 2433.25 1428.69 2441 1427.13C2448.32 1425.65 2450.35 1425.25 2451.25 1425.12C2451.66 1425.05 2452 1434.61 2452 1446.36ZM2220.09 1456.08C2211.09 1457.86 2203.49 1465.94 2202.27 1475L2201.74 1479H2225.37C2252.19 1479 2250.3 1479.75 2247.47 1470.23C2246.64 1467.41 2244.84 1463.77 2243.48 1462.16C2239.17 1457.04 2228.81 1454.34 2220.09 1456.08ZM589.89 1460.38C577.68 1464.74 572 1476.26 572 1496.66C572 1523.73 580.9 1535.42 601.5 1535.42C611.37 1535.42 616.11 1533.86 621.55 1528.85C626.95 1523.87 629.62 1517.58 630.98 1506.68C632.91 1491.16 629.96 1474.98 623.86 1467.62C618.87 1461.6 612.26 1459.01 602 1459.05C597.33 1459.07 591.87 1459.67 589.89 1460.38ZM2018.5 1460.9C2014.65 1461.94 2009.59 1463.57 2007.25 1464.51L2003 1466.22V1501.03V1535.84L2009.65 1536.55C2018.01 1537.45 2028.16 1536.6 2034 1534.52C2040.09 1532.35 2046.51 1525.82 2049.24 1519.03C2051.25 1514.05 2051.47 1511.75 2051.48 1495.98L2051.5 1478.46L2048.19 1471.74C2045.56 1466.4 2043.98 1464.49 2040.49 1462.44C2034.57 1458.97 2027.42 1458.47 2018.5 1460.9ZM1106.5 1490.87C1089.41 1498.65 1088.51 1523.11 1104.98 1532.37C1109.8 1535.08 1111.58 1535.49 1119.98 1535.83C1128.25 1536.16 1130.55 1535.86 1137.33 1533.59C1145.2 1530.95 1154.1 1525.92 1157.14 1522.4C1158.67 1520.62 1158.48 1519.48 1154.2 1504.75L1149.64 1489L1130.07 1489.02C1113.3 1489.04 1109.93 1489.31 1106.5 1490.87ZM1440 1512.49V1532.2L1461.25 1531.8C1484.98 1531.36 1487.3 1530.84 1492.7 1524.69C1496.2 1520.71 1497.62 1514.67 1496.7 1507.77C1495.96 1502.27 1493.38 1499 1487.45 1496.01C1482.73 1493.65 1481.5 1493.51 1461.25 1493.15L1440 1492.78V1512.49ZM265.534 1508.47C256.615 1510.86 253.055 1518.2 256.629 1526.82C259.35 1533.39 263.376 1535.5 273 1535.41C280.56 1535.34 284.55 1534.42 293.25 1530.76L298 1528.75V1517.88V1507L284.25 1507.07C276.167 1507.11 268.453 1507.68 265.534 1508.47ZM1654.65 1508.44C1648.21 1510.17 1644.91 1513.58 1644.28 1519.16C1643.3 1527.93 1648.4 1534.19 1657.66 1535.58C1662.75 1536.34 1674.61 1534.08 1681.84 1530.97L1687 1528.75V1517.88V1507L1673.25 1507.07C1665.33 1507.11 1657.45 1507.69 1654.65 1508.44Z" fill="white"/>
<ellipse id="dot" cx="190" cy="191" rx="196" ry="192" fill="white"/>
</svg>
