<svg width="2430" height="1061" viewBox="0 0 2430 1061" fill="none" xmlns="http://www.w3.org/2000/svg">
<rect width="2430" height="1061" fill="#0B0000"/>
<path id="Vector 1" d="M400 264.5V64.5H0V264.5H400ZM200 556H0V591.964L12.5289 625.675L200 556ZM486.5 526.5L605.711 687.089L618.271 677.765L629.23 666.601L486.5 526.5ZM649.5 47.5L849.364 54.8878L449.857 35.5536L649.5 47.5ZM787.5 580.5L752.205 383.639L747.231 384.531L742.309 385.673L787.5 580.5ZM1493.5 210L1692.71 227.768L1707.14 66.0148L1551.79 18.6831L1493.5 210ZM1543 625L1633.07 446.43L1619.52 439.595L1605.09 434.883L1543 625ZM1805 526.5L1922.83 688.105L1948.59 669.325L1967.23 643.47L1805 526.5ZM1928 106.5L2125.86 77.3286L1733.4 60.3318L1928 106.5ZM1913.5 802.5L2041.93 955.819L2083.08 921.345L2101.44 870.894L1913.5 802.5ZM1434.5 684.5L1387.32 490.145L1294.82 512.601L1253.91 598.547L1434.5 684.5ZM2276.68 685.855C2384.02 659.796 2449.91 551.656 2423.85 444.317C2397.8 336.978 2289.66 271.087 2182.32 297.145L2276.68 685.855ZM0 264.5V556H400V264.5H0ZM12.5289 625.675C29.3121 670.832 58.8639 732.128 116.79 777.938C184.426 831.426 262.764 842.606 330.885 831.333C389.684 821.602 441.193 795.491 479.424 773.033C519.998 749.198 562.74 718.988 605.711 687.089L367.289 365.911C327.185 395.681 298.339 415.498 276.821 428.139C252.959 442.156 251.872 438.968 265.577 436.7C274.482 435.227 290.484 434.007 310.544 438.472C331.499 443.135 350.156 452.524 364.908 464.19C390.755 484.63 393.738 503.187 387.471 486.325L12.5289 625.675ZM629.23 666.601C794.582 498.146 834.444 305.083 849.143 59.4464L449.857 35.5536C436.906 251.987 405.856 323.148 343.77 386.399L629.23 666.601ZM449.636 40.1122C442.171 242.072 447.888 407.731 478.942 525.118C494.178 582.712 522.392 656.651 583.619 712.291C657.548 779.474 750.212 794.459 832.691 775.327L742.309 385.673C770.596 379.111 817.059 383.937 852.633 416.265C875.505 437.05 873.211 451.439 865.64 422.82C851.08 367.783 841.99 254.372 849.364 54.8878L449.636 40.1122ZM822.795 777.361C920.72 759.804 993.583 706.678 1044.33 655.229C1094.23 604.627 1131.88 546.396 1159.33 499.991C1173.41 476.19 1186.38 452.717 1197.27 433.043C1208.77 412.252 1217.54 396.433 1225.63 382.939C1229.51 376.474 1232.62 371.57 1235.11 367.882C1236.32 366.08 1237.27 364.744 1237.96 363.802C1238.65 362.855 1238.98 362.453 1238.95 362.492C1238.92 362.523 1238.38 363.186 1237.32 364.318C1236.27 365.442 1234.48 367.27 1231.93 369.545C1227.16 373.8 1217.57 381.574 1202.94 388.885L1024.06 31.1144C977.436 54.4251 946.42 88.3224 929.177 109.428C910.357 132.466 894.685 157.047 882.57 177.253C870.21 197.868 857.909 220.157 847.257 239.411C835.987 259.783 825.728 278.294 815.045 296.356C792.972 333.675 774.988 358.681 759.535 374.348C744.919 389.168 742.698 385.343 752.205 383.639L822.795 777.361ZM1202.94 388.885C1171.06 404.827 1149.14 399.244 1161.2 400.657C1170.74 401.774 1185.45 405.151 1213.73 412.896C1234.26 418.517 1275.55 430.589 1312.75 435.944C1332.4 438.772 1363.02 441.769 1397.62 436.947C1433.39 431.963 1486.19 416.65 1531.42 371.421L1248.58 88.5784C1283.93 53.2241 1323.16 43.4583 1342.41 40.7754C1352.29 39.3996 1359.71 39.4239 1363.59 39.5598C1365.67 39.6329 1367.23 39.7573 1368.19 39.8489C1369.15 39.9411 1369.69 40.0176 1369.74 40.0245C1369.79 40.032 1369.49 39.9897 1368.79 39.8629C1368.1 39.7368 1367.12 39.5457 1365.81 39.2673C1363.12 38.6958 1359.6 37.8764 1354.98 36.7103C1344.93 34.1698 1334.67 31.2882 1319.39 27.1035C1293.36 19.9734 1251.3 8.47608 1207.75 3.37415C1166.73 -1.43174 1095.44 -4.57753 1024.06 31.1144L1202.94 388.885ZM1531.42 371.421C1498.73 404.111 1463.01 405.169 1457.16 405.186C1452.46 405.2 1449.12 404.712 1446.88 404.303C1445.56 404.061 1444.05 403.737 1442.24 403.286C1441.32 403.057 1440.29 402.786 1439.13 402.464C1438.55 402.302 1437.94 402.127 1437.29 401.937C1436.96 401.842 1436.62 401.742 1436.28 401.639C1436.1 401.587 1435.93 401.535 1435.75 401.481C1435.66 401.454 1435.57 401.427 1435.48 401.4C1435.44 401.386 1435.37 401.365 1435.35 401.358C1435.28 401.337 1435.21 401.316 1493.5 210C1551.79 18.6831 1551.72 18.6621 1551.65 18.641C1551.63 18.6338 1551.56 18.6126 1551.51 18.5983C1551.42 18.5697 1551.32 18.5408 1551.23 18.5116C1551.03 18.4531 1550.83 18.3935 1550.63 18.3326C1550.22 18.2109 1549.79 18.0843 1549.34 17.9534C1548.45 17.6916 1547.47 17.4117 1546.41 17.1172C1544.3 16.5288 1541.85 15.8776 1539.11 15.1923C1533.64 13.8287 1526.82 12.2899 1518.88 10.8371C1503.42 8.00629 1481.6 5.11168 1455.97 5.18819C1408.24 5.33065 1320.77 16.3881 1248.58 88.5784L1531.42 371.421ZM1294.29 192.231C1284.49 302.066 1278.27 385.359 1275.78 448.268C1273.46 507.022 1273.5 563.665 1282.92 611.762C1294.22 669.533 1325.57 744.685 1407.59 788.774C1436.62 804.375 1463.89 810.948 1471.76 812.93C1485.18 816.305 1481.45 815.296 1480.91 815.117L1605.09 434.883C1588.25 429.381 1569.54 425.064 1569.35 425.018C1563.63 423.579 1578.69 426.619 1596.98 436.446C1620.47 449.074 1642.44 468.568 1658.1 493.656C1671.48 515.106 1674.95 532.283 1675.47 534.928C1675.78 536.546 1673.23 520.735 1675.47 464.047C1677.55 411.512 1683.02 336.373 1692.71 227.768L1294.29 192.231ZM1452.93 803.57C1553.95 854.526 1651.83 841.342 1731.53 807.275C1797.34 779.144 1864.14 730.896 1922.83 688.105L1687.17 364.895C1655.94 387.668 1631.86 404.791 1611.63 417.958C1591.09 431.328 1579.73 437.152 1574.31 439.467C1569.48 441.531 1576.34 437.748 1591.06 437.411C1607.95 437.024 1623.08 441.388 1633.07 446.43L1452.93 803.57ZM1967.23 643.47C2022.09 567.381 2047.28 487.785 2065.6 412.453C2074.63 375.35 2083.08 334.273 2091.68 293.082C2100.53 250.727 2110.22 204.836 2122.6 152.668L1733.4 60.3318C1719.71 118.051 1709.1 168.359 1700.13 211.301C1690.92 255.406 1684.04 288.726 1676.94 317.905C1663.02 375.139 1652.77 395.656 1642.77 409.529L1967.23 643.47ZM1730.14 135.671C1782.23 489.01 1779.09 587.013 1725.56 734.106L2101.44 870.894C2191.51 623.398 2179.2 439.115 2125.86 77.3286L1730.14 135.671ZM1785.07 649.181C1782.83 651.058 1772.53 658.14 1745.7 659.942C1718.72 661.754 1685.58 657.196 1653.68 646.653C1638.27 641.561 1625.23 635.743 1615.25 630.262C1604.82 624.531 1600.58 620.732 1600.72 620.863C1600.95 621.082 1603.4 623.369 1606.85 628.08C1610.25 632.713 1615.81 641.301 1620.65 653.986C1631.6 682.669 1636.01 726.5 1615.09 770.453L1253.91 598.547C1182.08 749.458 1282.61 871.117 1327.81 913.298C1384.09 965.825 1457.58 1003.12 1528.15 1026.44C1659.22 1069.77 1877.45 1093.59 2041.93 955.819L1785.07 649.181ZM1481.68 878.855L2276.68 685.855L2182.32 297.145L1387.32 490.145L1481.68 878.855Z" fill="white"/>
<path id="backGround" fill-rule="evenodd" clip-rule="evenodd" d="M-607.5 -458.947C-635.702 -456.194 -660.562 -443.879 -680.691 -422.689C-689.641 -413.266 -694.977 -405.398 -701.076 -392.63C-707.147 -379.921 -710.67 -366.781 -711.971 -352C-713.371 -336.084 -713.374 1275.08 -711.974 1290.9C-709.282 1321.32 -697.622 1345.67 -675.691 1366.69C-659.519 1382.18 -642.227 1391.19 -618 1396.72C-610.935 1398.34 -502.676 1398.45 1249 1398.76C2531.95 1398.98 3111.91 1398.76 3119.5 1398.04C3133.11 1396.75 3146.66 1393.19 3157.78 1387.98C3192.11 1371.89 3215.44 1342.04 3223.76 1303.56C3225.41 1295.93 3225.5 1250.99 3225.5 469.5C3225.5 -333.122 3225.45 -356.741 3223.63 -365C3217.91 -391.043 3207.51 -409.67 3188.58 -427.768C3169.44 -446.062 3146.71 -456.331 3119.5 -458.976C3107.38 -460.154 -595.429 -460.125 -607.5 -458.947ZM221.5 -345.956C278.595 -339.438 328.037 -309.017 360.537 -260.407C397.812 -204.656 402.334 -129.331 372.025 -69.049C339.111 -3.58695 272.83 38.0001 201.409 38.0001C171.622 38.0001 145.435 32.0171 118.301 19.0101C35.2271 -20.8099 -7.52896 -114.167 15.937 -204.5C33.76 -273.11 89.3791 -326.9 158.629 -342.499C177.136 -346.668 202.869 -348.083 221.5 -345.956ZM371.231 267.25C371.49 452.654 371.577 460.723 373.362 466C376.577 475.501 380.058 481.246 386.379 487.481C396.323 497.289 407.556 502 421 502C443.572 502 463.764 486.36 469.469 464.458C470.818 459.279 471 435.78 471 266.79V75.0001H642.497H813.995L814.247 261.152L814.5 447.305L850.4 349.902C895.675 227.066 897.114 223.431 908.946 202C949.673 128.232 1009.66 85.6981 1087.3 75.5431C1102.89 73.5051 1135.12 73.5041 1150.66 75.5421C1209.55 83.2621 1262.9 112.696 1300 157.929L1307.5 167.075L1307.76 120.537L1308.02 74.0001H1478.99H1649.96L1650.23 267.75L1650.5 461.5L1652.83 468C1661.86 493.22 1687.24 507.037 1712.46 500.467C1729.48 496.036 1742.83 482.248 1747.51 464.297C1748.8 459.33 1749 433.362 1749 266.29V74.0001H1919.98H2090.96L2091.23 267.25C2091.49 452.654 2091.58 460.723 2093.36 466C2096.58 475.501 2100.06 481.246 2106.38 487.481C2116.32 497.289 2127.56 502 2141 502C2165.29 502 2186.59 483.845 2190.35 459.92C2190.95 456.114 2191.8 453 2192.23 453C2192.66 453 2203.65 457.587 2216.65 463.193L2240.29 473.385L2239.64 488.516C2234.92 598.031 2185.25 677.565 2102 708.901L2091.5 712.854L2091.26 716.677C2089.75 740.256 2085.68 765.91 2079.97 787.855C2054.87 884.242 1988.34 953.287 1888.54 986.517C1851.39 998.888 1813.07 1005.95 1766 1009.09C1743.84 1010.57 1684.15 1009.71 1659.5 1007.55C1609.23 1003.15 1561.04 994.858 1516.37 982.909C1483.55 974.134 1435.77 957.588 1435.21 954.808C1434.9 953.273 1461.81 790.858 1462.48 790.183C1462.71 789.959 1467.08 791.57 1472.19 793.762C1502.67 806.816 1542.84 815.402 1585.26 817.929C1618.61 819.915 1647.12 815.005 1670.5 803.251C1714.98 780.889 1742.3 736.141 1747.97 676.356C1748.53 670.385 1749 656.122 1749 644.66L1749 623.82L1744.81 629.16C1737.69 638.217 1718.01 657.81 1707.5 666.299C1652.26 710.912 1579.39 729.411 1509.7 716.514C1412 698.435 1335.17 623.848 1313.55 526.105C1308.79 504.597 1308.7 502.756 1308.08 414.5C1307.51 331.486 1307.47 330.438 1305.35 325.255C1301.77 316.528 1298.39 311.578 1291.96 305.624C1275.28 290.181 1252.9 287.662 1231.5 298.82C1218.69 305.498 1203.65 322.73 1194.23 341.51C1192.57 344.816 1173.4 391.478 1151.64 445.204C1129.87 498.93 1109.8 547.949 1107.03 554.135C1089.2 593.949 1063.33 630.068 1035.52 653.939C992.027 691.273 941.867 709.769 872.5 714.053C860.757 714.778 826.515 715.017 774 714.74C687.247 714.283 684.882 714.155 660 708.542C607.521 696.704 560.293 668.103 526.18 627.5C517.807 617.533 502.838 595.274 499.079 587.2C497.748 584.34 496.398 582.005 496.079 582.011C495.761 582.017 493.7 585.469 491.5 589.683C489.3 593.897 484.097 602.555 479.938 608.922C446.221 660.541 395.157 697.442 336.5 712.579C257.977 732.842 175.998 713.667 114.323 660.61C74.518 626.368 46.1421 578.526 34.5461 526.105C29.3271 502.512 29.6021 515.01 29.2671 286.25L28.9551 74.0001H199.958H370.961L371.231 267.25ZM2335.31 696.427C2373.52 707.696 2399 741.727 2399 781.5C2399 832.891 2356.78 872.738 2305.57 869.68C2267.73 867.42 2236 841.068 2225.88 803.5C2224.15 797.102 2223.72 792.697 2223.72 781.5C2223.72 770.303 2224.15 765.898 2225.88 759.5C2234.71 726.706 2260.34 702.036 2293 694.87C2305.19 692.195 2323.21 692.859 2335.31 696.427ZM2296.07 723.532C2270.3 730.739 2251.85 754.416 2251.67 780.496C2251.55 798.209 2256.83 811.054 2269.39 823.589C2281.84 836.01 2293.95 841 2311.66 841C2345.75 841 2372.83 812.084 2370.66 778C2369.14 754.123 2353.15 732.892 2330.72 724.966C2322.49 722.058 2304.07 721.296 2296.07 723.532ZM2323 740.058C2326.57 740.632 2332.54 742.495 2336.25 744.199L2343 747.296V756.648V766H2331.5H2320V763.073C2320 758.488 2315.75 755.684 2309.67 756.262C2301.49 757.041 2301.5 757 2301.5 781.5C2301.5 805.378 2301.55 805.566 2308.26 806.656C2315.55 807.837 2320 805.095 2320 799.429V796H2331.5H2343V805.98V815.959L2339.25 817.843C2330.45 822.262 2324.84 823.442 2312.5 823.471C2303.47 823.493 2299.22 823.055 2295.35 821.703C2278.44 815.803 2271.8 804.459 2271.8 781.5C2271.81 761.821 2276.53 751.058 2287.98 744.625C2297.2 739.446 2309.33 737.864 2323 740.058ZM464 1123V1221H443.5H423V1123V1025H443.5H464V1123ZM2009 1055.5C2009 1072.28 2009.17 1086 2009.38 1086C2009.58 1086 2012.31 1084.87 2015.43 1083.49C2029.3 1077.36 2047.14 1074.65 2058.5 1076.97C2077.6 1080.86 2092.06 1096.2 2097.46 1118.31C2101.19 1133.58 2101.19 1158.37 2097.47 1173.69C2090.66 1201.68 2070.4 1218.93 2039.5 1223.06C2022.85 1225.29 1998.07 1223.17 1976 1217.63L1967.5 1215.5L1967.24 1120.25L1966.99 1025H1987.99H2009V1055.5ZM138 1035.3L148.5 1036.5L148.773 1055.38L149.045 1074.26L146.138 1073.68C125.391 1069.53 92.3601 1068.31 82.5701 1071.33C69.0181 1075.51 63.835 1089.05 72.156 1098.53C75.951 1102.85 82.4681 1104.91 103.987 1108.58C128.117 1112.7 139.047 1117.29 146.418 1126.38C154.302 1136.11 157.322 1146.35 157.357 1163.5C157.397 1182.96 153.209 1194.75 142.395 1205.61C128.525 1219.55 108.779 1224.84 75 1223.67C59.856 1223.14 34.673 1220.3 28.875 1218.46C27.131 1217.91 27 1216.58 27 1199.43C27 1189.3 27.3701 1181 27.8221 1181C28.2741 1181 35.1361 1182.1 43.0721 1183.44C75.9661 1188.99 91.477 1188.94 103 1183.23C109.386 1180.06 112.602 1175.84 113.578 1169.33C114.999 1159.85 109.895 1152.53 99.7641 1149.52C96.8691 1148.66 87.975 1146.85 80 1145.5C55.83 1141.41 46.8571 1137.77 38.1281 1128.54C28.9971 1118.89 25.0351 1107.38 25.0351 1090.5C25.0351 1070.06 31.5761 1055.5 44.9771 1046.1C54.0081 1039.76 64.934 1035.92 80.5 1033.6C85.703 1032.83 127.039 1034.05 138 1035.3ZM1157.66 1034.56C1164.17 1035.42 1172.87 1036.9 1177 1037.85L1184.5 1039.57L1184.77 1057.92L1185.05 1076.26L1182.27 1075.68C1180.75 1075.36 1175.22 1074.19 1170 1073.09C1138.51 1066.43 1116.39 1069.65 1111.38 1081.64C1107.07 1091.96 1113.22 1105.02 1123.78 1107.96C1126.09 1108.6 1145.02 1108.99 1173.75 1108.99L1220 1109V1125.5V1142H1207.93C1196.91 1142 1195.91 1142.15 1196.38 1143.75C1196.67 1144.71 1201.88 1162.21 1207.95 1182.63C1214.03 1203.05 1219 1220.05 1219 1220.4C1219 1220.75 1210.13 1220.92 1199.29 1220.77L1179.58 1220.5L1177.34 1213.5C1176.11 1209.65 1175.08 1206.37 1175.05 1206.2C1175.02 1206.04 1172.94 1207.32 1170.43 1209.05C1157.72 1217.79 1141.48 1222.86 1123.47 1223.71C1091.9 1225.19 1067.16 1211.37 1060.01 1188.25C1052.61 1164.32 1061.16 1141.28 1082.27 1128.25L1088.11 1124.65L1082.92 1119.58C1069.09 1106.04 1063.67 1089.59 1067.44 1072.62C1070.52 1058.76 1079.48 1048.34 1094.75 1040.87C1110.23 1033.29 1131.67 1031.14 1157.66 1034.56ZM1505.5 1039.23C1524.91 1045.78 1536.25 1058.6 1539.16 1077.29C1541.92 1095.03 1533.78 1113.56 1519.05 1123.09L1516.6 1124.68L1523.4 1128.03C1532.28 1132.4 1538.36 1138.42 1542.31 1146.78C1545.43 1153.36 1545.5 1153.8 1545.46 1167.5C1545.42 1183.6 1544.07 1188.39 1536.86 1198C1528.62 1209 1517.11 1215.9 1501.7 1219.08C1493.47 1220.77 1487.77 1220.98 1447.75 1220.99L1403 1221V1128.45V1035.89L1450.25 1036.21L1497.5 1036.54L1505.5 1039.23ZM1446 1090.89V1110L1462.75 1109.99C1480.51 1109.99 1484.73 1109.33 1490.06 1105.74C1495.11 1102.34 1497.35 1097.73 1497.43 1090.6C1497.52 1082.69 1494.83 1078.11 1488.23 1074.91C1483.93 1072.82 1481.78 1072.57 1464.75 1072.2L1446 1071.78V1090.89ZM308.5 1078.47C326.236 1083.18 337.764 1093.6 343.203 1109.83C345.385 1116.34 345.448 1117.77 345.777 1168.77L346.114 1221.05L328.317 1220.77L310.52 1220.5L309.139 1214C308.38 1210.43 307.641 1207.37 307.499 1207.2C307.356 1207.04 305.234 1208.26 302.782 1209.91C275.057 1228.63 241.647 1226.75 227.671 1205.69C221.946 1197.07 220.5 1191.28 220.5 1177C220.5 1165.51 220.717 1164.04 223.203 1158.73C226.586 1151.51 234.801 1143.21 242 1139.72C252.533 1134.63 257.838 1133.77 281.857 1133.26L304.213 1132.78L303.817 1125.77C303.457 1119.4 303.135 1118.51 300.25 1115.93C295.296 1111.51 290.241 1110.48 274 1110.63C260.909 1110.75 249.736 1112.14 233.75 1115.63L231 1116.23V1099.2V1082.17L235.811 1081.13C240.496 1080.13 260.965 1077.42 270 1076.62C279.398 1075.77 302.556 1076.89 308.5 1078.47ZM630.144 1078.86C649.761 1084 663.628 1095.16 671.965 1112.5C676.835 1122.63 678.966 1131.4 679.691 1144.3C682.031 1185.96 662.297 1214.7 626.214 1222.19C613.635 1224.8 594.436 1224.27 583.016 1221.01C564.518 1215.71 551.44 1205.04 543.636 1188.86C537.624 1176.4 535.717 1167 535.754 1150C535.796 1130.41 539.045 1117.43 546.976 1105.16C556.552 1090.34 570.925 1081.28 590.834 1077.5C601.148 1075.54 619.962 1076.19 630.144 1078.86ZM849.364 1077.49C853.139 1078.29 858.157 1080.07 860.515 1081.46C866.408 1084.91 872.487 1092.1 875.217 1098.85C877.491 1104.48 877.501 1104.74 877.795 1162.75L878.09 1221H857.545H837V1172.15C837 1138.98 836.644 1122.28 835.892 1120.12C832.936 1111.64 818.551 1111.98 798.656 1121L792 1124.02V1172.51V1221H771.5H751V1150V1079H770H789V1086C789 1089.85 789.214 1093 789.475 1093C789.737 1093 794.124 1090.78 799.225 1088.07C820.316 1076.84 833.345 1074.1 849.364 1077.49ZM1697.5 1078.55C1707.49 1081.27 1714.13 1084.98 1720.56 1091.43C1723.89 1094.77 1727.65 1099.64 1728.9 1102.26C1734.25 1113.41 1734.29 1113.8 1734.74 1169.25L1735.16 1221H1717.21H1699.27L1697.99 1214.75C1697.28 1211.31 1696.52 1208.16 1696.29 1207.75C1696.06 1207.33 1693.99 1208.28 1691.69 1209.86C1670.51 1224.39 1645.19 1227.06 1628 1216.58C1617.27 1210.04 1611.02 1199.47 1608.91 1184.31C1606.25 1165.16 1614.73 1147.69 1630.44 1139.95C1641.47 1134.53 1645.6 1133.83 1670.25 1133.28L1693 1132.76V1127.33C1693 1117.83 1689.75 1114.18 1678.76 1111.35C1668.88 1108.8 1645.96 1110.56 1622.75 1115.63L1620 1116.23V1099.2V1082.17L1625 1081.09C1630.27 1079.96 1650.03 1077.33 1658.5 1076.64C1668.76 1075.79 1691.47 1076.9 1697.5 1078.55ZM2255.5 1078.49C2268.72 1081.95 2278.5 1088.61 2285.43 1098.86C2293.58 1110.92 2297 1125.94 2297 1149.72V1162H2252.48H2207.96L2208.57 1164.75C2210.8 1174.82 2215.02 1180.47 2222.82 1183.83C2228.5 1186.27 2238.18 1187.98 2246.37 1187.99C2255.89 1188.01 2277.86 1184.33 2291.77 1180.4L2294.05 1179.75L2293.77 1197.63L2293.5 1215.5L2284.5 1217.76C2265.7 1222.48 2258.26 1223.4 2238.5 1223.43C2223.57 1223.45 2218 1223.08 2212.53 1221.69C2196.74 1217.69 2182.84 1208.08 2175.59 1196.15C2168.04 1183.73 2164.26 1164.81 2165.28 1144.61C2166.42 1121.89 2172.27 1106.52 2184.39 1094.39C2194.06 1084.72 2205.03 1079.4 2220.48 1076.92C2227.81 1075.74 2248.55 1076.67 2255.5 1078.49ZM1901 1099.37V1120.74L1891.75 1122.87C1886.66 1124.04 1875.86 1127.1 1867.75 1129.67L1853 1134.35V1177.67V1221H1832.5H1812V1150V1079H1831.5H1851V1089.93V1100.86L1860.25 1094.56C1874.59 1084.79 1883.93 1080.53 1894.4 1079C1897.21 1078.59 1899.84 1078.19 1900.25 1078.13C1900.66 1078.06 1901 1087.62 1901 1099.37ZM2458 1099.36V1120.72L2446.75 1123.41C2440.56 1124.89 2429.87 1127.99 2423 1130.3L2410.5 1134.5L2410.24 1177.75L2409.98 1221H2389.49H2369V1150V1079H2388.5H2408V1089.98V1100.97L2418.75 1093.84C2431.18 1085.6 2439.25 1081.69 2447 1080.13C2454.32 1078.65 2456.35 1078.25 2457.25 1078.12C2457.66 1078.05 2458 1087.61 2458 1099.36ZM2226.09 1109.08C2217.09 1110.86 2209.49 1118.94 2208.27 1128L2207.74 1132H2231.37C2258.19 1132 2256.3 1132.75 2253.47 1123.23C2252.64 1120.41 2250.84 1116.77 2249.48 1115.16C2245.17 1110.04 2234.81 1107.34 2226.09 1109.08ZM595.885 1113.38C583.676 1117.74 578 1129.26 578 1149.66C578 1176.73 586.898 1188.42 607.5 1188.42C617.374 1188.42 622.108 1186.86 627.553 1181.85C632.946 1176.87 635.624 1170.58 636.977 1159.68C638.906 1144.16 635.957 1127.98 629.857 1120.62C624.87 1114.6 618.259 1112.01 608 1112.05C603.325 1112.07 597.873 1112.67 595.885 1113.38ZM2024.5 1113.9C2020.65 1114.94 2015.59 1116.57 2013.25 1117.51L2009 1119.22V1154.03V1188.84L2015.65 1189.55C2024.01 1190.45 2034.16 1189.6 2040 1187.52C2046.09 1185.35 2052.51 1178.82 2055.24 1172.03C2057.25 1167.05 2057.47 1164.75 2057.48 1148.98L2057.5 1131.46L2054.19 1124.74C2051.56 1119.4 2049.98 1117.49 2046.49 1115.44C2040.57 1111.97 2033.42 1111.47 2024.5 1113.9ZM1112.5 1143.87C1095.41 1151.65 1094.51 1176.11 1110.98 1185.37C1115.8 1188.08 1117.58 1188.49 1125.98 1188.83C1134.25 1189.16 1136.55 1188.86 1143.33 1186.59C1151.2 1183.95 1160.1 1178.92 1163.14 1175.4C1164.67 1173.62 1164.48 1172.48 1160.2 1157.75L1155.64 1142L1136.07 1142.02C1119.3 1142.04 1115.93 1142.31 1112.5 1143.87ZM1446 1165.49V1185.2L1467.25 1184.8C1490.98 1184.36 1493.3 1183.84 1498.7 1177.69C1502.2 1173.71 1503.62 1167.67 1502.7 1160.77C1501.96 1155.27 1499.38 1152 1493.45 1149.01C1488.73 1146.65 1487.5 1146.51 1467.25 1146.15L1446 1145.78V1165.49ZM271.534 1161.47C262.615 1163.86 259.055 1171.2 262.629 1179.82C265.35 1186.39 269.376 1188.5 279 1188.41C286.561 1188.34 290.549 1187.42 299.25 1183.76L304 1181.75V1170.88V1160L290.25 1160.07C282.167 1160.11 274.453 1160.68 271.534 1161.47ZM1660.65 1161.44C1654.21 1163.17 1650.91 1166.58 1650.28 1172.16C1649.3 1180.93 1654.4 1187.19 1663.66 1188.58C1668.75 1189.34 1680.61 1187.08 1687.84 1183.97L1693 1181.75V1170.88V1160L1679.25 1160.07C1671.33 1160.11 1663.45 1160.69 1660.65 1161.44Z" fill="#006229"/>
</svg>
